<svg xmlns="http://www.w3.org/2000/svg" width="20" height="24" viewBox="0 0 20 24" fill="none">
    <g opacity="0.3">
        <path
            opacity="0.3"
            d="M13.9654 4.92479C13.4187 4.924 12.8945 4.70637 12.508 4.31964C12.1214 3.93292 11.9041 3.40866 11.9035 2.86188V0H2.6899C1.97623 0 1.29181 0.283499 0.787174 0.788139C0.282535 1.29278 -0.000976562 1.97722 -0.000976562 2.69089V18.9122C-0.000976562 19.6259 0.282535 20.3103 0.787174 20.815C1.29181 21.3196 1.97623 21.6031 2.6899 21.6031H13.7495C14.1029 21.6032 14.4529 21.5337 14.7795 21.3986C15.1061 21.2634 15.4029 21.0652 15.6528 20.8153C15.9028 20.5654 16.1011 20.2687 16.2364 19.9422C16.3717 19.6157 16.4413 19.2657 16.4413 18.9122V4.92479H13.9654Z"
            fill="#FF9908"
        />
    </g>
    <path
        d="M16.4411 4.92479H13.9652C13.4184 4.924 12.8943 4.70637 12.5078 4.31964C12.1212 3.93292 11.9038 3.40866 11.9033 2.86188V0L16.4411 4.92479Z"
        fill="#FF9908"
    />
    <path
        d="M18.3926 17.0601H5.88912C5.00219 17.0601 4.2832 17.7791 4.2832 18.666V22.3938C4.2832 23.2808 5.00219 23.9998 5.88912 23.9998H18.3926C19.2795 23.9998 19.9985 23.2808 19.9985 22.3938V18.666C19.9985 17.7791 19.2795 17.0601 18.3926 17.0601Z"
        fill="#FF9908"
    />
    <path d="M10.378 21.3369V22.0639H9.625V21.3369H10.378Z" fill="white" />
    <path
        d="M12.62 21.515H11.492L11.305 22.064H10.54L11.64 19.0781H12.478L13.5779 22.064H12.804L12.62 21.515ZM12.432 20.962L12.058 19.8561L11.68 20.962H12.432Z"
        fill="white"
    />
    <path d="M14.5883 19.0571V22.064H13.8613V19.0571H14.5883Z" fill="white" />
    <path
        d="M7.60538 11.4074C7.60003 11.3639 7.60473 11.3197 7.61912 11.2783C7.63351 11.2368 7.65718 11.1993 7.68836 11.1684C7.71566 11.1411 7.7481 11.1194 7.78379 11.1046C7.81947 11.0898 7.85772 11.0822 7.89635 11.0822C7.93499 11.0822 7.97323 11.0898 8.00892 11.1046C8.04461 11.1194 8.07705 11.1411 8.10435 11.1684C8.13169 11.1957 8.15335 11.2281 8.16814 11.2638C8.18294 11.2995 8.19056 11.3378 8.19056 11.3764C8.19056 11.4151 8.18294 11.4533 8.16814 11.489C8.15335 11.5247 8.13169 11.5571 8.10435 11.5844C8.07351 11.6156 8.03592 11.6393 7.99449 11.6537C7.95307 11.6681 7.90888 11.6728 7.86535 11.6674L4.4495 15.0833L9.54929 12.5834C9.54929 12.5834 10.1223 10.4495 10.7722 9.79848L9.47229 8.49854C8.82132 9.14851 6.6874 9.72148 6.6874 9.72148L4.1875 14.8213L7.60538 11.4074Z"
        fill="#FF9908"
    />
    <path
        d="M12.2507 9.04024L10.2334 7.02295L9.2442 8.01215L11.2615 10.0294L12.2507 9.04024Z"
        fill="#FF9908"
    />
</svg>