<svg width="200" height="240" viewBox="0 0 200 240" fill="none" xmlns="http://www.w3.org/2000/svg">
<g id="AI">
<g id="Group" opacity="0.3">
<path id="Vector" opacity="0.3" d="M139.67 49.25C134.202 49.2421 128.96 47.0657 125.095 43.1982C121.229 39.3308 119.055 34.0881 119.05 28.62V0H26.9099C19.7729 0 12.9284 2.83511 7.88184 7.88171C2.83523 12.9283 0 19.7731 0 26.91V189.13C0 196.267 2.83523 203.112 7.88184 208.158C12.9284 213.205 19.7729 216.04 26.9099 216.04H137.51C141.045 216.041 144.545 215.346 147.811 213.995C151.077 212.643 154.045 210.661 156.545 208.162C159.045 205.663 161.028 202.696 162.381 199.43C163.734 196.165 164.43 192.665 164.43 189.13V49.25H139.67Z" fill="#FF9908"/>
</g>
<path id="Vector_2" d="M164.431 49.25H139.671C134.203 49.2421 128.961 47.0657 125.095 43.1982C121.23 39.3308 119.056 34.0881 119.051 28.62V0L164.431 49.25Z" fill="#FF9908"/>
<path id="Vector_3" d="M183.94 170.61H58.8997C50.03 170.61 42.8398 177.8 42.8398 186.67V223.95C42.8398 232.82 50.03 240.01 58.8997 240.01H183.94C192.809 240.01 200 232.82 200 223.95V186.67C200 177.8 192.809 170.61 183.94 170.61Z" fill="#FF9908"/>
<path id="Vector_4" d="M103.792 213.38V220.65H96.2617V213.38H103.792Z" fill="white"/>
<path id="Vector_5" d="M126.21 215.16H114.93L113.06 220.65H105.41L116.41 190.79H124.79L135.79 220.65H128.05L126.21 215.16ZM124.33 209.63L120.59 198.57L116.81 209.63H124.33Z" fill="white"/>
<path id="Vector_6" d="M145.899 190.58V220.65H138.629V190.58H145.899Z" fill="white"/>
<path id="Vector_7" d="M76.0708 114.08C76.0173 113.645 76.0644 113.203 76.2083 112.789C76.3521 112.374 76.5889 111.998 76.9006 111.69C77.1737 111.417 77.4981 111.2 77.855 111.052C78.2119 110.904 78.5944 110.828 78.9807 110.828C79.3671 110.828 79.7495 110.904 80.1064 111.052C80.4633 111.2 80.7877 111.417 81.0608 111.69C81.3341 111.963 81.5508 112.287 81.6987 112.644C81.8467 113.001 81.9229 113.384 81.9229 113.77C81.9229 114.156 81.8467 114.539 81.6987 114.896C81.5508 115.253 81.3341 115.577 81.0608 115.85C80.7523 116.162 80.3765 116.399 79.9622 116.543C79.5478 116.686 79.106 116.734 78.6707 116.68L44.5107 150.84L95.5107 125.84C95.5107 125.84 101.241 104.5 107.741 97.99L94.7407 84.99C88.2307 91.49 66.8906 97.22 66.8906 97.22L41.8906 148.22L76.0708 114.08Z" fill="#FF9908"/>
<path id="Vector_8" d="M122.518 90.406L102.344 70.2322L92.4513 80.1246L112.625 100.298L122.518 90.406Z" fill="#FF9908"/>
</g>
</svg>
