<svg width="201" height="240" viewBox="0 0 201 240" fill="none" xmlns="http://www.w3.org/2000/svg">
<g id="AVI">
<g id="Group" opacity="0.3">
<path id="Vector" opacity="0.3" d="M139.999 49.24C134.531 49.2347 129.288 47.0609 125.421 43.1953C121.553 39.3297 119.377 34.0881 119.369 28.62V0H27.199C20.062 0 13.2174 2.83517 8.17078 7.88177C3.12417 12.9284 0.289062 19.773 0.289062 26.91V189.13C0.297015 196.261 3.13598 203.097 8.18201 208.135C13.228 213.174 20.0681 216.003 27.199 216H137.799C144.936 216 151.781 213.165 156.827 208.118C161.874 203.072 164.709 196.227 164.709 189.09V49.24H139.999Z" fill="#FF9908"/>
</g>
<path id="Vector_2" d="M164.707 49.24H139.997C134.529 49.2347 129.286 47.0609 125.419 43.1953C121.552 39.3297 119.375 34.0881 119.367 28.62V0L164.707 49.24Z" fill="#FF9908"/>
<path id="Vector_3" d="M184.229 170.6H59.1888C50.3191 170.6 43.1289 177.79 43.1289 186.66V223.94C43.1289 232.81 50.3191 240 59.1888 240H184.229C193.099 240 200.289 232.81 200.289 223.94V186.66C200.289 177.79 193.099 170.6 184.229 170.6Z" fill="#FF9908"/>
<path id="Vector_4" d="M87.9988 213.37V220.64H80.4688V213.37H87.9988Z" fill="white"/>
<path id="Vector_5" d="M110.448 215.16H99.1685L97.2985 220.64H89.6484L100.648 190.79H108.998L119.998 220.64H112.258L110.448 215.16ZM108.568 209.63L104.828 198.57L101.048 209.63H108.568Z" fill="white"/>
<path id="Vector_6" d="M128.479 190.57L135.839 213.2L143.199 190.57H150.999L140.539 220.64H131.139L120.719 190.57H128.479Z" fill="white"/>
<path id="Vector_7" d="M161.059 190.57V220.64H153.789V190.57H161.059Z" fill="white"/>
<path id="Vector_8" d="M82.3375 149.83C71.4279 149.817 60.969 145.477 53.2548 137.763C45.5405 130.049 41.2007 119.59 41.1875 108.68C41.2007 97.7704 45.5405 87.3114 53.2548 79.5972C60.969 71.8829 71.4279 67.5433 82.3375 67.53C93.2471 67.5433 103.706 71.8829 111.42 79.5972C119.135 87.3114 123.474 97.7704 123.488 108.68C123.474 119.59 119.135 130.049 111.42 137.763C103.706 145.477 93.2471 149.817 82.3375 149.83ZM82.3375 74.74C73.341 74.7559 64.7174 78.3368 58.3558 84.6983C51.9943 91.0599 48.4134 99.6834 48.3976 108.68C48.3976 117.687 51.9715 126.326 58.3347 132.7C64.698 139.075 73.3306 142.664 82.3375 142.68C91.3445 142.664 99.9772 139.075 106.34 132.7C112.704 126.326 116.278 117.687 116.278 108.68C116.262 99.6834 112.681 91.0599 106.319 84.6983C99.9577 78.3368 91.3341 74.7559 82.3375 74.74Z" fill="#FF9908"/>
<path id="Vector_9" d="M94.1396 105.86L84.5696 100.34C84.0742 100.054 83.5124 99.9035 82.9404 99.9033C82.3685 99.9032 81.8065 100.053 81.311 100.339C80.8155 100.625 80.4039 101.036 80.1176 101.531C79.8312 102.026 79.6803 102.588 79.6797 103.16V114.21C79.6803 114.782 79.8312 115.344 80.1176 115.839C80.4039 116.334 80.8155 116.745 81.311 117.031C81.8065 117.317 82.3685 117.467 82.9404 117.467C83.5124 117.467 84.0742 117.316 84.5696 117.03L94.1396 111.5C94.6337 111.214 95.0438 110.802 95.3289 110.307C95.6139 109.812 95.764 109.251 95.764 108.68C95.764 108.109 95.6139 107.548 95.3289 107.053C95.0438 106.558 94.6337 106.147 94.1396 105.86Z" fill="#FF9908"/>
<path id="Vector_10" d="M74.7701 99.48H71.2701C69.9667 99.48 68.9102 100.537 68.9102 101.84V115.53C68.9102 116.833 69.9667 117.89 71.2701 117.89H74.7701C76.0735 117.89 77.1301 116.833 77.1301 115.53V101.84C77.1301 100.537 76.0735 99.48 74.7701 99.48Z" fill="#FF9908"/>
</g>
</svg>
