<svg width="201" height="240" viewBox="0 0 201 240" fill="none" xmlns="http://www.w3.org/2000/svg">
<g id="BMP">
<g id="Group" opacity="0.3">
<path id="Vector" opacity="0.3" d="M140.529 49.24C135.06 49.2373 129.816 47.0644 125.948 43.1982C122.08 39.3321 119.904 34.0889 119.899 28.62V0H27.7693C24.2346 -2.4406e-07 20.7345 0.696337 17.469 2.04932C14.2035 3.4023 11.2365 5.38537 8.73755 7.88525C6.2386 10.3851 4.25655 13.3529 2.90479 16.6189C1.55302 19.8849 0.858063 23.3853 0.859377 26.92V189.13C0.858063 192.665 1.55302 196.165 2.90479 199.431C4.25655 202.697 6.2386 205.665 8.73755 208.165C11.2365 210.665 14.2035 212.648 17.469 214.001C20.7345 215.354 24.2346 216.05 27.7693 216.05H138.369C141.904 216.05 145.404 215.354 148.67 214.001C151.935 212.648 154.902 210.665 157.401 208.165C159.9 205.665 161.882 202.697 163.234 199.431C164.585 196.165 165.281 192.665 165.279 189.13V49.25L140.529 49.24Z" fill="#670BC1"/>
</g>
<path id="Vector_2" d="M165.279 49.24H140.529C135.06 49.2373 129.815 47.0644 125.947 43.1982C122.079 39.3321 119.904 34.0889 119.898 28.62V0L165.279 49.24Z" fill="#670BC1"/>
<path id="Vector_3" d="M184.799 170.6H59.7593C50.8896 170.6 43.6992 177.79 43.6992 186.66V223.94C43.6992 232.81 50.8896 240 59.7593 240H184.799C193.669 240 200.859 232.81 200.859 223.94V186.66C200.859 177.79 193.669 170.6 184.799 170.6Z" fill="#670BC1"/>
<path id="Vector_4" d="M79.4597 213.37V220.65H71.9297V213.37H79.4597Z" fill="white"/>
<path id="Vector_5" d="M105.598 207.8C106.653 209.114 107.215 210.755 107.188 212.44C107.24 213.569 107.036 214.696 106.591 215.735C106.146 216.774 105.472 217.699 104.618 218.44C102.898 219.88 100.438 220.61 97.2383 220.61H83.2383V190.54H96.8882C99.9482 190.54 102.315 191.207 103.988 192.54C104.825 193.226 105.488 194.1 105.924 195.09C106.36 196.08 106.557 197.16 106.498 198.24C106.561 199.872 106.052 201.474 105.058 202.77C104.106 203.972 102.767 204.806 101.268 205.13C102.975 205.498 104.504 206.44 105.598 207.8ZM90.5183 202.87H95.2783C97.805 202.87 99.0684 201.79 99.0684 199.63C99.0684 197.47 97.7782 196.393 95.1982 196.4H90.5183V202.87ZM99.7483 211.42C99.7716 210.946 99.6885 210.473 99.5051 210.035C99.3217 209.597 99.0425 209.206 98.6882 208.89C97.831 208.233 96.7662 207.907 95.6882 207.97H90.5383V214.73H95.7283C98.4083 214.73 99.7483 213.627 99.7483 211.42Z" fill="white"/>
<path id="Vector_6" d="M144.83 190.79V220.65H137.56V202L131.1 220.68H124.8L118.29 201.96V220.68H111V190.82H119.89L128.01 211.62L136.01 190.82L144.83 190.79Z" fill="white"/>
<path id="Vector_7" d="M157.127 210.1V220.65H149.848V190.58H161.627C165.207 190.58 167.931 191.463 169.798 193.23C170.744 194.161 171.483 195.28 171.967 196.516C172.451 197.751 172.67 199.075 172.608 200.4C172.639 202.149 172.204 203.875 171.348 205.4C170.482 206.895 169.185 208.094 167.627 208.84C165.756 209.732 163.699 210.164 161.627 210.1H157.127ZM165.208 200.4C165.208 197.733 163.748 196.4 160.828 196.4H157.127V204.23H160.828C163.748 204.257 165.208 202.98 165.208 200.4Z" fill="white"/>
<path id="Vector_8" d="M105.157 146.41H60.9976C56.6735 146.405 52.528 144.685 49.4705 141.627C46.4129 138.57 44.6928 134.424 44.6875 130.1V85.9302C44.6928 81.6061 46.4129 77.4606 49.4705 74.4031C52.528 71.3455 56.6735 69.6254 60.9976 69.6201H105.167C109.491 69.6254 113.635 71.3458 116.691 74.4037C119.747 77.4615 121.465 81.607 121.468 85.9302V130.1C121.465 134.425 119.746 138.572 116.688 141.63C113.629 144.688 109.482 146.408 105.157 146.41ZM60.9976 76.8301C58.5849 76.8327 56.2719 77.7924 54.5659 79.4984C52.8599 81.2044 51.9001 83.5175 51.8975 85.9302V130.1C51.9001 132.513 52.8599 134.826 54.5659 136.532C56.2719 138.238 58.5849 139.197 60.9976 139.2H105.167C107.578 139.195 109.889 138.234 111.593 136.528C113.297 134.823 114.255 132.511 114.258 130.1V85.9302C114.255 83.5192 113.297 81.2077 111.593 79.502C109.889 77.7962 107.578 76.8354 105.167 76.8301H60.9976Z" fill="#670BC1"/>
<path id="Vector_9" d="M117.859 121.7V130.1C117.856 133.467 116.518 136.696 114.136 139.077C111.755 141.458 108.526 142.797 105.159 142.8H60.999C57.6299 142.8 54.3984 141.462 52.0151 139.081C49.6318 136.699 48.2917 133.469 48.2891 130.1V116C55.3691 114.48 66.139 114 79.209 119.22L87.3091 111.5L92.8291 125.5C92.8291 125.5 94.3091 120.35 99.0891 121.08C103.869 121.81 111.609 124.4 114.919 122.19C115.808 121.678 116.852 121.504 117.859 121.7Z" fill="#670BC1"/>
<path id="Vector_10" d="M102.39 94.9498C105.102 94.9498 107.301 92.7516 107.301 90.0399C107.301 87.3282 105.102 85.1299 102.39 85.1299C99.6787 85.1299 97.4805 87.3282 97.4805 90.0399C97.4805 92.7516 99.6787 94.9498 102.39 94.9498Z" fill="#670BC1"/>
</g>
</svg>
