<svg width="201" height="240" viewBox="0 0 201 240" fill="none" xmlns="http://www.w3.org/2000/svg">
<g id="CRD">
<g id="Group" opacity="0.3">
<path id="Vector" opacity="0.3" d="M140.24 49.24C134.773 49.2347 129.531 47.0606 125.666 43.1947C121.8 39.3288 119.626 34.0871 119.62 28.62V0H27.4803C23.9456 -2.4406e-07 20.4455 0.696337 17.18 2.04932C13.9145 3.4023 10.9475 5.38537 8.44855 7.88525C5.94959 10.3851 3.96761 13.3529 2.61585 16.6189C1.26408 19.8849 0.569001 23.3853 0.570314 26.92V189.13C0.580913 196.26 3.42073 203.094 8.46619 208.132C13.5116 213.17 20.3502 216 27.4803 216H138.09C145.222 216 152.062 213.169 157.108 208.129C162.154 203.089 164.992 196.252 165 189.12V49.24H140.24Z" fill="#3CBA32"/>
</g>
<path id="Vector_2" d="M165.001 49.24H140.241C134.774 49.2347 129.532 47.0606 125.666 43.1947C121.801 39.3288 119.626 34.0871 119.621 28.62V0L165.001 49.24Z" fill="#3CBA32"/>
<path id="Vector_3" d="M184.51 170.6H59.4702C50.6005 170.6 43.4102 177.79 43.4102 186.66V223.94C43.4102 232.81 50.6005 240 59.4702 240H184.51C193.38 240 200.57 232.81 200.57 223.94V186.66C200.57 177.79 193.38 170.6 184.51 170.6Z" fill="#3CBA32"/>
<path id="Vector_4" d="M79.6511 213.37V220.65H72.1211V213.37H79.6511Z" fill="white"/>
<path id="Vector_5" d="M106.68 193.3C109.218 195.358 110.943 198.249 111.55 201.46H103.85C103.331 200.128 102.417 198.987 101.23 198.19C99.9753 197.369 98.4988 196.954 97.0002 197C96.0212 196.968 95.0482 197.163 94.1567 197.569C93.2652 197.975 92.4794 198.581 91.8602 199.34C90.4636 201.115 89.7535 203.334 89.8602 205.59C89.7502 207.84 90.4609 210.054 91.8602 211.82C92.4819 212.575 93.2687 213.176 94.1599 213.579C95.0512 213.981 96.023 214.173 97.0002 214.14C98.4853 214.178 99.9466 213.762 101.19 212.95C102.365 212.157 103.277 211.033 103.81 209.72H111.51C110.891 212.92 109.167 215.801 106.64 217.86C103.919 219.943 100.554 221.004 97.1302 220.86C94.4368 220.92 91.777 220.253 89.4302 218.93C87.2328 217.655 85.4538 215.768 84.3102 213.5C83.0606 211.022 82.4391 208.275 82.5002 205.5C82.4473 202.742 83.0686 200.013 84.3102 197.55C85.4538 195.281 87.2328 193.395 89.4302 192.12C91.777 190.797 94.4368 190.13 97.1302 190.19C100.58 190.071 103.962 191.173 106.68 193.3Z" fill="white"/>
<path id="Vector_6" d="M131.069 220.65L124.559 209.29H122.899V220.65H115.629V190.58H128.049C130.117 190.522 132.17 190.943 134.049 191.81C135.593 192.54 136.882 193.718 137.749 195.19C138.586 196.689 139.011 198.383 138.979 200.1C139.036 202.111 138.401 204.081 137.179 205.68C135.834 207.295 133.979 208.403 131.919 208.82L139.069 220.65H131.069ZM122.899 204.31H127.409C128.56 204.392 129.7 204.034 130.599 203.31C130.954 202.934 131.227 202.488 131.399 202.001C131.571 201.514 131.639 200.995 131.599 200.48C131.634 199.968 131.563 199.454 131.391 198.971C131.219 198.487 130.949 198.045 130.599 197.67C129.716 196.931 128.576 196.572 127.429 196.67H122.899V204.31Z" fill="white"/>
<path id="Vector_7" d="M167.84 213.39C166.591 215.666 164.698 217.523 162.4 218.73C159.818 220.06 156.943 220.72 154.04 220.65H142.68V190.58H154C156.904 190.504 159.783 191.147 162.38 192.45C164.667 193.633 166.553 195.467 167.8 197.72C169.093 200.124 169.744 202.821 169.69 205.55C169.755 208.279 169.118 210.978 167.84 213.39ZM160.01 211.88C160.825 211.049 161.456 210.056 161.863 208.966C162.269 207.875 162.442 206.712 162.37 205.55C162.442 204.387 162.269 203.222 161.862 202.13C161.456 201.038 160.825 200.043 160.01 199.21C158.188 197.62 155.813 196.811 153.4 196.96H150V214.14H153.45C155.845 214.273 158.196 213.462 160 211.88H160.01Z" fill="white"/>
<path id="Vector_8" d="M82.5219 62C82.5219 62 106.002 67 84.2518 140.49H81.2518C81.2518 140.49 60.3519 72.8 82.5219 62Z" fill="#3CBA32"/>
<path id="Vector_9" d="M87.7089 62.72C87.7089 62.72 120.549 75.1101 86.1289 140.06C86.1289 140.06 138.119 76.69 87.7089 62.72Z" fill="#3CBA32"/>
<path id="Vector_10" d="M101.39 67.1899C101.39 67.1899 132.93 82.88 90.1602 137.61C90.1602 137.61 139.27 84.7599 101.39 67.1899Z" fill="#3CBA32"/>
<path id="Vector_11" d="M77.8614 62.72C77.8614 62.72 45.0214 75.1101 79.4414 140.06C79.4414 140.06 27.4514 76.69 77.8614 62.72Z" fill="#3CBA32"/>
<path id="Vector_12" d="M64.1793 67.1899C64.1793 67.1899 32.6392 82.88 75.4092 137.61C75.4092 137.61 26.2993 84.7599 64.1793 67.1899Z" fill="#3CBA32"/>
<path id="Vector_13" d="M87.1914 154.03H78.7314L76.1914 145.96H89.7314L87.1914 154.03Z" fill="#3CBA32"/>
</g>
</svg>
