<svg xmlns="http://www.w3.org/2000/svg" width="189" height="221" viewBox="0 0 189 221" fill="none">
  <g opacity="0.3">
    <path opacity="0.3" d="M139.67 49.25C134.203 49.2447 128.961 47.0704 125.095 43.2046C121.229 39.3387 119.055 34.097 119.05 28.6299V1.85854e-06H26.92C23.3853 -0.00131167 19.8849 0.693646 16.6189 2.04541C13.3529 3.39718 10.3851 5.37922 7.88525 7.87818C5.38537 10.3771 3.4023 13.3441 2.04932 16.6096C0.696337 19.8751 -2.4406e-07 23.3752 0 26.9099V189.13C-2.4406e-07 192.665 0.696337 196.165 2.04932 199.43C3.4023 202.696 5.38537 205.663 7.88525 208.162C10.3851 210.661 13.3529 212.643 16.6189 213.994C19.8849 215.346 23.3853 216.041 26.92 216.04H137.52C144.657 216.04 151.502 213.205 156.548 208.158C161.595 203.112 164.43 196.267 164.43 189.13V49.25H139.67Z" fill="#67A6F4"/>
  </g>
  <path d="M164.431 49.25H139.671C134.204 49.2447 128.962 47.0704 125.096 43.2046C121.23 39.3387 119.056 34.097 119.051 28.6299V0L164.431 49.25Z" fill="#67A6F4"/>
  <path d="M130.601 83.7302H27.3611C26.3692 83.7302 25.418 83.3362 24.7166 82.6348C24.0152 81.9334 23.6211 80.9821 23.6211 79.9902C23.6198 79.4982 23.7156 79.0108 23.903 78.5559C24.0903 78.101 24.3656 77.6875 24.713 77.3391C25.0604 76.9908 25.4731 76.7145 25.9275 76.5259C26.3819 76.3373 26.8691 76.2402 27.3611 76.2402H130.601C131.596 76.2402 132.549 76.6354 133.253 77.3386C133.956 78.0419 134.351 78.9957 134.351 79.9902C134.348 80.9831 133.952 81.9344 133.249 82.6355C132.546 83.3366 131.594 83.7302 130.601 83.7302Z" fill="#67A6F4"/>
  <path d="M130.601 106.1H27.3611C26.3692 106.1 25.418 105.706 24.7166 105.005C24.0152 104.303 23.6211 103.352 23.6211 102.36C23.6198 101.868 23.7156 101.381 23.903 100.926C24.0903 100.471 24.3656 100.058 24.713 99.7092C25.0604 99.3609 25.4731 99.0846 25.9275 98.896C26.3819 98.7074 26.8691 98.6103 27.3611 98.6104H130.601C131.596 98.6104 132.549 99.0052 133.253 99.7085C133.956 100.412 134.351 101.366 134.351 102.36C134.348 103.353 133.952 104.304 133.249 105.005C132.546 105.706 131.594 106.1 130.601 106.1Z" fill="#67A6F4"/>
  <path d="M130.601 128.47H27.3611C26.8691 128.47 26.3819 128.373 25.9275 128.184C25.4731 127.996 25.0604 127.719 24.713 127.371C24.3656 127.023 24.0903 126.609 23.903 126.154C23.7156 125.699 23.6198 125.212 23.6211 124.72C23.6211 123.728 24.0152 122.777 24.7166 122.075C25.418 121.374 26.3692 120.98 27.3611 120.98H130.601C131.594 120.98 132.546 121.374 133.249 122.075C133.952 122.776 134.348 123.727 134.351 124.72C134.351 125.715 133.956 126.668 133.253 127.372C132.549 128.075 131.596 128.47 130.601 128.47Z" fill="#67A6F4"/>
  <path d="M89.8611 150.84H27.3611C26.8691 150.84 26.3819 150.743 25.9275 150.554C25.4731 150.366 25.0604 150.089 24.713 149.741C24.3656 149.393 24.0903 148.979 23.903 148.524C23.7156 148.07 23.6198 147.582 23.6211 147.09C23.6211 146.098 24.0152 145.147 24.7166 144.445C25.418 143.744 26.3692 143.35 27.3611 143.35H89.8611C90.853 143.35 91.8042 143.744 92.5056 144.445C93.207 145.147 93.6011 146.098 93.6011 147.09C93.6024 147.582 93.5066 148.07 93.3192 148.524C93.1319 148.979 92.8566 149.393 92.5092 149.741C92.1618 150.089 91.7491 150.366 91.2947 150.554C90.8403 150.743 90.3531 150.84 89.8611 150.84Z" fill="#67A6F4"/>
  <path d="M61.1783 213.38V220.65H53.6484V213.38H61.1783Z" fill="white"/>
  <path d="M180.141 220.65L173.8 211.29L168.36 220.65H160.021L169.641 205.17L159.73 190.58H168.36L174.531 199.64L179.84 190.58H188.141L178.651 205.72L188.771 220.65H180.141Z" fill="white"/>
</svg>