<svg width="201" height="240" viewBox="0 0 201 240" fill="none" xmlns="http://www.w3.org/2000/svg">
<g id="DLL">
<g id="Group" opacity="0.3">
<path id="Vector" opacity="0.3" d="M140.529 49.25C135.06 49.2447 129.815 47.0695 125.948 43.2018C122.08 39.3341 119.904 34.0898 119.899 28.62V0H27.7693C20.6323 0 13.7876 2.83511 8.74097 7.88171C3.69436 12.9283 0.859375 19.7731 0.859375 26.91V189.13C0.859375 196.267 3.69436 203.112 8.74097 208.158C13.7876 213.205 20.6323 216.04 27.7693 216.04H138.369C145.506 216.04 152.351 213.205 157.397 208.158C162.444 203.112 165.279 196.267 165.279 189.13V49.25H140.529Z" fill="#670BC1"/>
</g>
<path id="Vector_2" d="M165.279 49.25H140.529C135.059 49.2447 129.815 47.0695 125.947 43.2018C122.079 39.3341 119.904 34.0898 119.898 28.62V0L165.279 49.25Z" fill="#670BC1"/>
<path id="Vector_3" d="M184.799 170.61H59.7593C50.8896 170.61 43.6992 177.8 43.6992 186.67V223.95C43.6992 232.82 50.8896 240.01 59.7593 240.01H184.799C193.669 240.01 200.859 232.82 200.859 223.95V186.67C200.859 177.8 193.669 170.61 184.799 170.61Z" fill="#670BC1"/>
<path id="Vector_4" d="M89.9988 213.38V220.65H82.4688V213.38H89.9988Z" fill="white"/>
<path id="Vector_5" d="M119.001 213.4C117.751 215.673 115.859 217.527 113.561 218.73C110.979 220.061 108.104 220.721 105.201 220.65H93.8008V190.58H105.151C108.055 190.503 110.934 191.145 113.531 192.45C115.816 193.636 117.701 195.469 118.951 197.72C120.247 200.123 120.902 202.82 120.851 205.55C120.915 208.282 120.278 210.984 119.001 213.4ZM111.181 211.89C111.993 211.055 112.622 210.06 113.029 208.969C113.435 207.877 113.61 206.713 113.541 205.55C113.61 204.387 113.435 203.223 113.029 202.131C112.622 201.04 111.993 200.045 111.181 199.21C109.355 197.62 106.977 196.812 104.561 196.96H101.121V214.14H104.561C106.96 214.275 109.318 213.468 111.131 211.89H111.181Z" fill="white"/>
<path id="Vector_6" d="M132.238 215.08H141.938V220.65H124.938V190.58H132.208L132.238 215.08Z" fill="white"/>
<path id="Vector_7" d="M152.57 215.08H162.27V220.65H145.27V190.58H152.54L152.57 215.08Z" fill="white"/>
<path id="Vector_8" d="M69.2375 159.4C68.0971 159.4 67.0034 158.947 66.197 158.141C65.3906 157.334 64.9375 156.24 64.9375 155.1V148.49C64.9375 147.926 65.0489 147.367 65.2651 146.846C65.4814 146.325 65.7981 145.852 66.1975 145.453C66.5969 145.055 67.0711 144.739 67.5928 144.524C68.1144 144.309 68.6733 144.199 69.2375 144.2C70.3753 144.2 71.4665 144.652 72.271 145.457C73.0755 146.261 73.5276 147.352 73.5276 148.49V155.1C73.5276 156.239 73.076 157.331 72.2717 158.137C71.4675 158.943 70.3762 159.397 69.2375 159.4Z" fill="#670BC1"/>
<path id="Vector_9" d="M69.2375 106.1C68.6733 106.101 68.1144 105.991 67.5928 105.776C67.0711 105.561 66.5969 105.245 66.1975 104.847C65.7981 104.448 65.4814 103.975 65.2651 103.454C65.0489 102.933 64.9375 102.374 64.9375 101.81V94.1199C64.9375 92.9794 65.3906 91.8858 66.197 91.0793C67.0034 90.2729 68.0971 89.8198 69.2375 89.8198C70.3762 89.8225 71.4675 90.2768 72.2717 91.0829C73.076 91.889 73.5276 92.9812 73.5276 94.1199V101.81C73.5276 102.948 73.0755 104.039 72.271 104.843C71.4665 105.648 70.3753 106.1 69.2375 106.1Z" fill="#670BC1"/>
<path id="Vector_10" d="M84.4898 155.32C83.7343 155.319 82.9924 155.12 82.3379 154.743C81.6834 154.365 81.1392 153.823 80.7598 153.17L77.5598 147.61C76.9905 146.623 76.836 145.451 77.1304 144.35C77.4247 143.25 78.1437 142.311 79.1296 141.74C80.1177 141.171 81.2911 141.019 82.3919 141.315C83.4926 141.611 84.4306 142.332 84.9998 143.32L88.2097 148.87C88.7782 149.858 88.931 151.031 88.6348 152.132C88.3385 153.233 87.6173 154.171 86.6296 154.74C85.9802 155.119 85.2418 155.319 84.4898 155.32Z" fill="#670BC1"/>
<path id="Vector_11" d="M57.9375 109.32C57.1816 109.321 56.439 109.123 55.7841 108.746C55.1293 108.368 54.5854 107.825 54.2075 107.17L50.2775 100.35C49.9946 99.8626 49.8108 99.324 49.7365 98.7652C49.6623 98.2064 49.699 97.6384 49.8449 97.0939C49.9908 96.5494 50.2427 96.0392 50.5864 95.5923C50.93 95.1455 51.3588 94.7709 51.8476 94.4902C52.3359 94.2069 52.8752 94.0229 53.4348 93.9485C53.9943 93.8742 54.563 93.911 55.1084 94.0568C55.6537 94.2027 56.1648 94.4547 56.6125 94.7985C57.0602 95.1423 57.4358 95.5711 57.7175 96.0602L61.6474 102.88C61.9306 103.368 62.1148 103.908 62.1892 104.467C62.2635 105.027 62.2266 105.596 62.0808 106.141C61.9349 106.686 61.6831 107.198 61.3393 107.645C60.9955 108.093 60.5668 108.468 60.0776 108.75C59.4268 109.125 58.6885 109.322 57.9375 109.32Z" fill="#670BC1"/>
<path id="Vector_12" d="M95.6476 144.15C94.8925 144.148 94.1512 143.948 93.4977 143.57L87.9376 140.36C86.9524 139.791 86.2335 138.854 85.9391 137.755C85.6447 136.656 85.799 135.485 86.3678 134.5C86.937 133.512 87.875 132.791 88.9757 132.495C90.0764 132.199 91.2496 132.352 92.2377 132.92L97.7977 136.13C98.7836 136.701 99.5026 137.64 99.797 138.74C100.091 139.841 99.9371 141.013 99.3678 142C98.9923 142.655 98.4503 143.198 97.797 143.576C97.1437 143.953 96.4021 144.151 95.6476 144.15Z" fill="#670BC1"/>
<path id="Vector_13" d="M49.6404 117.6C48.8887 117.596 48.151 117.396 47.5005 117.02L40.6804 113.09C39.6945 112.519 38.9755 111.58 38.6812 110.48C38.3868 109.379 38.5413 108.207 39.1106 107.22C39.6798 106.232 40.6178 105.511 41.7185 105.215C42.8192 104.918 43.9924 105.071 44.9805 105.64L51.8005 109.58C52.7865 110.151 53.5055 111.089 53.7998 112.19C54.0942 113.291 53.9399 114.463 53.3706 115.45C52.9927 116.104 52.4488 116.648 51.794 117.025C51.1391 117.403 50.3962 117.601 49.6404 117.6Z" fill="#670BC1"/>
<path id="Vector_14" d="M99.7285 128.91H93.1086C91.969 128.907 90.8766 128.453 90.0708 127.647C89.265 126.842 88.8112 125.749 88.8086 124.61C88.8112 123.471 89.2654 122.38 90.0715 121.576C90.8777 120.772 91.9699 120.32 93.1086 120.32H99.7285C100.867 120.32 101.96 120.772 102.766 121.576C103.572 122.38 104.026 123.471 104.029 124.61C104.026 125.749 103.572 126.842 102.766 127.647C101.96 128.453 100.868 128.907 99.7285 128.91Z" fill="#670BC1"/>
<path id="Vector_15" d="M46.4292 128.91H38.7493C37.6096 128.907 36.5175 128.453 35.7117 127.647C34.9058 126.842 34.4519 125.749 34.4492 124.61C34.4519 123.471 34.906 122.38 35.7122 121.576C36.5183 120.772 37.6106 120.32 38.7493 120.32H46.4292C47.567 120.32 48.6581 120.772 49.4626 121.576C50.2672 122.381 50.7192 123.472 50.7192 124.61C50.7192 125.749 50.2676 126.841 49.4634 127.647C48.6591 128.453 47.5679 128.907 46.4292 128.91Z" fill="#670BC1"/>
<path id="Vector_16" d="M89.6187 117.14C88.8628 117.141 88.12 116.943 87.4651 116.565C86.8103 116.188 86.2664 115.644 85.8885 114.99C85.6072 114.501 85.4251 113.962 85.3523 113.403C85.2795 112.844 85.3177 112.277 85.4644 111.732C85.6111 111.188 85.8636 110.678 86.2075 110.232C86.5515 109.785 86.9799 109.411 87.4685 109.13L93.4685 105.64C94.4566 105.071 95.63 104.918 96.7307 105.215C97.8315 105.511 98.7695 106.232 99.3387 107.22C99.908 108.207 100.062 109.379 99.7678 110.48C99.4735 111.58 98.7545 112.519 97.7686 113.09L91.7686 116.57C91.1154 116.948 90.3733 117.145 89.6187 117.14Z" fill="#670BC1"/>
<path id="Vector_17" d="M42.8306 144.15C42.0764 144.149 41.3356 143.95 40.6826 143.573C40.0297 143.195 39.4877 142.653 39.1106 142C38.5413 141.013 38.3868 139.841 38.6812 138.74C38.9755 137.64 39.6945 136.701 40.6804 136.13L47.0405 132.46C48.028 131.893 49.1995 131.74 50.2993 132.035C51.3991 132.329 52.3377 133.046 52.9104 134.03C53.4797 135.017 53.6342 136.189 53.3399 137.29C53.0455 138.39 52.3265 139.329 51.3406 139.9L44.9805 143.57C44.327 143.948 43.5857 144.148 42.8306 144.15Z" fill="#670BC1"/>
<path id="Vector_18" d="M69.771 152.79H69.0811C64.1663 152.684 59.3711 151.253 55.2009 148.65C51.0786 146.094 47.6993 142.501 45.4009 138.23C43.2526 134.208 42.1264 129.72 42.1211 125.16C42.1211 124.92 42.1211 124.7 42.1211 124.47C42.2394 119.771 43.554 115.18 45.9409 111.13C48.3247 107.086 51.6969 103.714 55.741 101.33C59.8074 98.9412 64.416 97.6299 69.1309 97.52H69.761C74.3264 97.5144 78.8216 98.645 82.8411 100.81C87.1088 103.101 90.6989 106.473 93.251 110.59C95.86 114.78 97.2901 119.596 97.3909 124.53C97.3909 124.7 97.3909 124.92 97.3909 125.16C97.3918 129.934 96.1551 134.627 93.801 138.78C91.3401 143.139 87.7375 146.745 83.3809 149.21C79.2294 151.558 74.5407 152.792 69.771 152.79ZM69.6609 106.1H69.3909C66.1276 106.166 62.9361 107.068 60.1211 108.72C57.3288 110.364 54.9995 112.69 53.3511 115.48C51.7019 118.282 50.7964 121.459 50.7209 124.71C50.7209 124.89 50.7209 125.02 50.7209 125.15C50.722 128.289 51.4946 131.38 52.9709 134.15C54.5572 137.102 56.892 139.585 59.741 141.35C62.6256 143.14 65.9372 144.124 69.3311 144.2H69.771C73.0621 144.204 76.2976 143.353 79.1609 141.73C82.1676 140.028 84.6536 137.539 86.3511 134.53C87.9721 131.67 88.8231 128.438 88.821 125.15V124.77C88.7471 121.354 87.7632 118.019 85.9709 115.11C84.2039 112.271 81.7253 109.944 78.781 108.36C75.973 106.868 72.8404 106.092 69.6609 106.1Z" fill="#670BC1"/>
<path id="Vector_19" d="M80.8008 108.87C80.0497 108.872 79.3114 108.675 78.6607 108.3C78.1715 108.019 77.7427 107.643 77.3989 107.195C77.0552 106.748 76.8033 106.236 76.6575 105.691C76.5116 105.146 76.4747 104.577 76.5491 104.017C76.6234 103.458 76.8076 102.919 77.0908 102.43L80.7607 96.0602C81.0425 95.5711 81.418 95.1423 81.8657 94.7985C82.3135 94.4547 82.8246 94.2027 83.3699 94.0568C83.9152 93.911 84.4839 93.8742 85.0435 93.9485C85.603 94.0229 86.1423 94.2069 86.6306 94.4902C87.1193 94.771 87.5479 95.1455 87.8919 95.5921C88.2358 96.0386 88.4883 96.5486 88.635 97.0928C88.7817 97.637 88.8199 98.2048 88.7471 98.7637C88.6743 99.3226 88.4919 99.8617 88.2107 100.35L84.5308 106.72C84.1528 107.375 83.609 107.918 82.9541 108.296C82.2993 108.673 81.5566 108.871 80.8008 108.87Z" fill="#670BC1"/>
<path id="Vector_20" d="M54 155.32C53.2479 155.319 52.5096 155.119 51.8601 154.74C51.3709 154.458 50.9422 154.083 50.5984 153.635C50.2546 153.187 50.0025 152.676 49.8567 152.131C49.7108 151.586 49.6739 151.017 49.7483 150.457C49.8227 149.898 50.0068 149.358 50.29 148.87L53.76 142.87C54.0417 142.381 54.4173 141.952 54.865 141.608C55.3127 141.265 55.8238 141.012 56.3691 140.867C56.9145 140.721 57.4832 140.684 58.0427 140.758C58.6023 140.833 59.1416 141.017 59.6299 141.3C60.6158 141.871 61.335 142.81 61.6294 143.91C61.9238 145.011 61.7693 146.183 61.2 147.17L57.73 153.17C57.3521 153.825 56.8084 154.368 56.1536 154.746C55.4987 155.123 54.7558 155.321 54 155.32Z" fill="#670BC1"/>
<path id="Vector_21" d="M108.839 100.66C108.144 100.66 107.477 100.384 106.986 99.8927C106.495 99.4014 106.219 98.735 106.219 98.0402V94.0402C106.219 93.6966 106.287 93.3564 106.418 93.0391C106.55 92.7218 106.743 92.4336 106.987 92.1911C107.23 91.9486 107.519 91.7566 107.837 91.626C108.155 91.4954 108.495 91.4289 108.839 91.4302C109.531 91.4302 110.195 91.7051 110.684 92.1946C111.174 92.6841 111.449 93.348 111.449 94.0402V98.0402C111.45 98.3838 111.384 98.7242 111.253 99.042C111.122 99.3598 110.93 99.6487 110.688 99.8921C110.445 100.136 110.157 100.329 109.84 100.46C109.523 100.592 109.182 100.66 108.839 100.66Z" fill="#670BC1"/>
<path id="Vector_22" d="M108.839 68.2299C108.495 68.2312 108.155 68.1646 107.837 68.0341C107.519 67.9035 107.23 67.7115 106.987 67.469C106.743 67.2265 106.55 66.9383 106.418 66.621C106.287 66.3037 106.219 65.9635 106.219 65.6199V60.9398C106.219 60.245 106.495 59.5786 106.986 59.0873C107.477 58.5959 108.144 58.3198 108.839 58.3198C109.182 58.3198 109.523 58.3877 109.84 58.5195C110.157 58.6513 110.445 58.8445 110.688 59.0879C110.93 59.3313 111.122 59.6202 111.253 59.938C111.384 60.2558 111.45 60.5962 111.449 60.9398V65.6199C111.449 66.3121 111.174 66.976 110.684 67.4655C110.195 67.9549 109.531 68.2299 108.839 68.2299Z" fill="#670BC1"/>
<path id="Vector_23" d="M118.12 98.1699C117.661 98.1711 117.21 98.0516 116.811 97.8235C116.413 97.5953 116.082 97.2664 115.85 96.8699L113.9 93.4899C113.559 92.8824 113.472 92.1642 113.659 91.4929C113.847 90.8217 114.293 90.2523 114.9 89.9099C115.2 89.741 115.531 89.6327 115.873 89.5915C116.214 89.5504 116.561 89.577 116.893 89.6699C117.224 89.7628 117.534 89.92 117.805 90.1328C118.075 90.3456 118.302 90.6097 118.47 90.9099L120.47 94.2899C120.639 94.5899 120.747 94.9202 120.789 95.2621C120.83 95.6039 120.803 95.9505 120.71 96.2821C120.617 96.6137 120.46 96.9237 120.247 97.1944C120.035 97.4652 119.77 97.6913 119.47 97.8599C119.057 98.0848 118.59 98.1921 118.12 98.1699Z" fill="#670BC1"/>
<path id="Vector_24" d="M102.001 70.19C101.541 70.1892 101.089 70.0678 100.691 69.8379C100.293 69.6081 99.9618 69.2778 99.7309 68.8801L97.3411 64.73C97.1721 64.43 97.0639 64.0996 97.0227 63.7577C96.9815 63.4159 97.0082 63.0693 97.1011 62.7377C97.1939 62.4062 97.3512 62.0962 97.564 61.8255C97.7767 61.5548 98.0408 61.3287 98.3411 61.1601C98.6407 60.9898 98.9711 60.8806 99.3132 60.8387C99.6554 60.7968 100.003 60.8231 100.334 60.9161C100.666 61.009 100.976 61.1668 101.247 61.3803C101.518 61.5938 101.743 61.8589 101.911 62.1601L104.301 66.3101C104.47 66.6101 104.578 66.9404 104.619 67.2823C104.661 67.6241 104.634 67.9707 104.541 68.3023C104.448 68.6339 104.291 68.9439 104.078 69.2147C103.865 69.4854 103.601 69.7115 103.301 69.8801C102.901 70.0919 102.454 70.1985 102.001 70.19Z" fill="#670BC1"/>
<path id="Vector_25" d="M124.91 91.3799C124.45 91.3822 123.998 91.2613 123.6 91.03L120.22 89.03C119.92 88.8614 119.656 88.6351 119.443 88.3644C119.23 88.0937 119.073 87.7838 118.98 87.4522C118.887 87.1206 118.86 86.774 118.902 86.4322C118.943 86.0903 119.051 85.7599 119.22 85.4599C119.388 85.1587 119.613 84.8937 119.884 84.6802C120.154 84.4667 120.465 84.3088 120.797 84.2159C121.129 84.1229 121.475 84.0966 121.818 84.1385C122.16 84.1804 122.49 84.2896 122.79 84.4599L126.17 86.4599C126.471 86.6275 126.736 86.8532 126.95 87.1238C127.163 87.3944 127.321 87.7046 127.414 88.0366C127.507 88.3685 127.533 88.7155 127.491 89.0577C127.45 89.3998 127.34 89.7303 127.17 90.03C126.947 90.4357 126.621 90.7748 126.223 91.0121C125.826 91.2495 125.373 91.3764 124.91 91.3799Z" fill="#670BC1"/>
<path id="Vector_26" d="M96.9182 75.22C96.4581 75.2222 96.006 75.1014 95.6084 74.87L91.4582 72.48C91.158 72.3114 90.8939 72.0853 90.6811 71.8146C90.4684 71.5439 90.3111 71.2338 90.2183 70.9023C90.1254 70.5707 90.0987 70.2241 90.1399 69.8822C90.1811 69.5404 90.2893 69.2101 90.4582 68.9101C90.8007 68.303 91.37 67.8567 92.0413 67.6692C92.7125 67.4817 93.4309 67.5684 94.0383 67.9101L98.1782 70.3001C98.7852 70.6425 99.2317 71.2118 99.4192 71.8831C99.6067 72.5543 99.5199 73.2726 99.1782 73.88C98.9536 74.2833 98.6263 74.6197 98.2292 74.8551C97.8322 75.0905 97.3797 75.2164 96.9182 75.22Z" fill="#670BC1"/>
<path id="Vector_27" d="M127.391 82.1099H123.391C123.048 82.1099 122.707 82.0421 122.39 81.9103C122.073 81.7785 121.785 81.5854 121.542 81.3419C121.3 81.0985 121.108 80.8095 120.977 80.4917C120.846 80.1739 120.78 79.8335 120.781 79.4899C120.781 78.7977 121.056 78.1338 121.546 77.6443C122.035 77.1548 122.699 76.8799 123.391 76.8799H127.391C127.735 76.8786 128.075 76.9451 128.393 77.0757C128.711 77.2063 129 77.3983 129.243 77.6408C129.487 77.8833 129.68 78.1715 129.812 78.4888C129.943 78.8061 130.011 79.1463 130.011 79.4899C130.011 80.1848 129.735 80.8512 129.244 81.3425C128.753 81.8339 128.086 82.1099 127.391 82.1099Z" fill="#670BC1"/>
<path id="Vector_28" d="M95.001 82.1099H90.3211C89.9775 82.1099 89.6372 82.0421 89.3198 81.9103C89.0025 81.7785 88.7144 81.5853 88.4719 81.3419C88.2295 81.0985 88.0373 80.8095 87.9068 80.4917C87.7762 80.1739 87.7096 79.8335 87.711 79.4899C87.711 79.1471 87.7785 78.8077 87.9097 78.4911C88.0409 78.1744 88.233 77.8866 88.4754 77.6443C88.7177 77.4019 89.0056 77.2098 89.3223 77.0786C89.6389 76.9474 89.9783 76.8799 90.3211 76.8799H95.001C95.6932 76.8799 96.357 77.1548 96.8465 77.6443C97.3359 78.1338 97.6111 78.7977 97.6111 79.4899C97.6124 79.8335 97.5459 80.1739 97.4153 80.4917C97.2847 80.8095 97.0926 81.0985 96.8501 81.3419C96.6076 81.5853 96.3195 81.7785 96.0022 81.9103C95.6849 82.0421 95.3446 82.1099 95.001 82.1099Z" fill="#670BC1"/>
<path id="Vector_29" d="M121.24 75.0001C120.78 74.9993 120.328 74.878 119.93 74.6481C119.532 74.4182 119.201 74.0878 118.97 73.6901C118.801 73.3901 118.693 73.0598 118.652 72.7179C118.61 72.3761 118.637 72.0295 118.73 71.6979C118.823 71.3663 118.98 71.0563 119.193 70.7855C119.406 70.5148 119.67 70.2887 119.97 70.1201L123.64 68.0001C123.94 67.8312 124.27 67.7231 124.612 67.6819C124.954 67.6407 125.301 67.6673 125.632 67.7601C125.964 67.853 126.274 68.0104 126.545 68.2232C126.815 68.4359 127.041 68.6999 127.21 69.0001C127.38 69.2998 127.49 69.6303 127.531 69.9724C127.573 70.3146 127.547 70.6616 127.454 70.9935C127.361 71.3255 127.203 71.6357 126.99 71.9063C126.776 72.1769 126.511 72.4025 126.21 72.5701L122.54 74.6901C122.14 74.9019 121.693 75.0087 121.24 75.0001Z" fill="#670BC1"/>
<path id="Vector_30" d="M92.769 91.3799C92.3102 91.3804 91.8596 91.2594 91.4626 91.0293C91.0657 90.7993 90.7366 90.4682 90.509 90.0699C90.3354 89.7735 90.2222 89.4458 90.176 89.1054C90.1298 88.765 90.1514 88.4188 90.2397 88.0868C90.3281 87.7549 90.4814 87.4438 90.6907 87.1714C90.8999 86.8991 91.161 86.6708 91.459 86.4999L95.3291 84.2699C95.6288 84.0997 95.9591 83.9904 96.3013 83.9485C96.6434 83.9067 96.9906 83.933 97.3225 84.0259C97.6544 84.1189 97.9645 84.2766 98.2351 84.4902C98.5057 84.7037 98.7313 84.9688 98.8989 85.2699C99.0679 85.57 99.1761 85.9004 99.2173 86.2422C99.2584 86.5841 99.2318 86.9307 99.1389 87.2623C99.046 87.5938 98.8888 87.9038 98.676 88.1745C98.4632 88.4452 98.1991 88.6713 97.8989 88.8399L94.039 91.0799C93.6476 91.285 93.2108 91.3882 92.769 91.3799Z" fill="#670BC1"/>
<path id="Vector_31" d="M109.161 96.64H108.731C105.745 96.575 102.832 95.7043 100.301 94.12C97.778 92.5711 95.7084 90.3842 94.3008 87.78C92.9853 85.3188 92.2983 82.5707 92.3008 79.78V79.3499C92.3735 76.4922 93.1754 73.7005 94.6306 71.24C96.0861 68.7609 98.1515 66.6954 100.631 65.24C103.106 63.787 105.911 62.9887 108.781 62.92H109.161C111.952 62.9113 114.702 63.5987 117.161 64.92C119.765 66.328 121.951 68.3975 123.501 70.92C125.081 73.4718 125.951 76.3993 126.021 79.4V79.79C126.023 82.6921 125.272 85.545 123.841 88.0699C122.341 90.7248 120.146 92.9204 117.491 94.42C114.955 95.8728 112.083 96.638 109.161 96.64ZM109.091 68.2299H108.941C106.952 68.2632 105.005 68.811 103.291 69.8199C101.59 70.8211 100.172 72.239 99.1707 73.9399C98.1686 75.6432 97.618 77.5743 97.5708 79.55V79.8199C97.5698 81.7315 98.0402 83.6138 98.9407 85.3C99.9061 87.0902 101.323 88.5967 103.051 89.67C104.808 90.7596 106.824 91.3603 108.891 91.41H109.161C111.162 91.4113 113.129 90.8945 114.871 89.91C116.701 88.8744 118.215 87.3603 119.251 85.53C120.233 83.787 120.749 81.8205 120.751 79.8199V79.5799C120.706 77.5043 120.108 75.4783 119.021 73.7099C117.944 71.9815 116.434 70.5647 114.641 69.5999C112.933 68.691 111.026 68.2203 109.091 68.2299Z" fill="#670BC1"/>
<path id="Vector_32" d="M115.868 69.9101C115.411 69.911 114.962 69.7902 114.568 69.5601C114.267 69.3915 114.003 69.1653 113.791 68.8945C113.578 68.6238 113.421 68.3139 113.328 67.9823C113.235 67.6508 113.208 67.3041 113.249 66.9623C113.29 66.6204 113.399 66.29 113.568 65.99L115.808 62.12C115.976 61.8198 116.202 61.5558 116.473 61.343C116.744 61.1303 117.054 60.9729 117.385 60.88C117.717 60.7871 118.063 60.7606 118.405 60.8018C118.747 60.843 119.077 60.9511 119.377 61.12C119.678 61.2886 119.942 61.5147 120.155 61.7854C120.367 62.0561 120.525 62.3662 120.617 62.6978C120.71 63.0293 120.737 63.3759 120.696 63.7178C120.655 64.0596 120.546 64.3899 120.377 64.69L118.137 68.57C117.913 68.9754 117.584 69.3134 117.185 69.549C116.786 69.7846 116.331 69.9093 115.868 69.9101Z" fill="#670BC1"/>
<path id="Vector_33" d="M99.5591 98.1701C99.1023 98.171 98.6536 98.0501 98.259 97.82C97.9588 97.6514 97.6947 97.4253 97.4819 97.1546C97.2692 96.8838 97.1119 96.5739 97.019 96.2423C96.9262 95.9108 96.8995 95.5642 96.9407 95.2223C96.9818 94.8805 97.0901 94.55 97.259 94.25L99.3691 90.59C99.5377 90.2898 99.7637 90.0258 100.034 89.813C100.305 89.6002 100.615 89.4429 100.947 89.35C101.278 89.2571 101.625 89.2306 101.967 89.2717C102.309 89.3129 102.639 89.421 102.939 89.59C103.239 89.7586 103.503 89.9848 103.716 90.2555C103.929 90.5262 104.086 90.8362 104.179 91.1677C104.272 91.4993 104.298 91.8459 104.257 92.1878C104.216 92.5296 104.108 92.86 103.939 93.1601L101.829 96.83C101.601 97.2326 101.272 97.5684 100.873 97.8036C100.475 98.0388 100.022 98.1652 99.5591 98.1701Z" fill="#670BC1"/>
</g>
</svg>
