<svg width="201" height="240" viewBox="0 0 201 240" fill="none" xmlns="http://www.w3.org/2000/svg">
<g id="DOC">
<g id="Group" opacity="0.3">
<path id="Vector" opacity="0.3" d="M140.381 49.25C134.914 49.2447 129.672 47.0704 125.806 43.2046C121.94 39.3387 119.766 34.097 119.761 28.6299V1.85854e-06H27.631C24.0963 -0.00131167 20.5959 0.693646 17.3298 2.04541C14.0638 3.39718 11.0962 5.37922 8.59631 7.87818C6.09643 10.3771 4.11336 13.3441 2.76038 16.6096C1.4074 19.8751 0.710937 23.3752 0.710938 26.9099V189.13C0.710937 192.665 1.4074 196.165 2.76038 199.43C4.11336 202.696 6.09643 205.663 8.59631 208.162C11.0962 210.661 14.0638 212.643 17.3298 213.994C20.5959 215.346 24.0963 216.041 27.631 216.04H138.231C141.765 216.04 145.264 215.344 148.529 213.992C151.794 212.639 154.76 210.657 157.259 208.158C159.758 205.659 161.74 202.693 163.093 199.428C164.445 196.163 165.141 192.664 165.141 189.13V49.25H140.381Z" fill="#0072FF"/>
</g>
<path id="Vector_2" d="M165.142 49.25H140.382C134.915 49.2447 129.673 47.0704 125.807 43.2046C121.941 39.3387 119.767 34.097 119.762 28.6299V0L165.142 49.25Z" fill="#0072FF"/>
<path id="Vector_3" d="M131.312 83.73H28.072C27.0801 83.73 26.1289 83.3359 25.4275 82.6345C24.7261 81.9331 24.332 80.9819 24.332 79.99C24.3307 79.498 24.4265 79.0106 24.6139 78.5557C24.8013 78.1008 25.0765 77.6872 25.424 77.3389C25.7714 76.9905 26.1842 76.7142 26.6386 76.5256C27.093 76.3371 27.58 76.24 28.072 76.24H131.312C132.307 76.24 133.26 76.6351 133.964 77.3384C134.667 78.0416 135.062 78.9954 135.062 79.99C135.06 80.9828 134.663 81.9342 133.96 82.6353C133.257 83.3364 132.305 83.73 131.312 83.73Z" fill="#0072FF"/>
<path id="Vector_4" d="M131.312 106.1H28.072C27.0801 106.1 26.1289 105.706 25.4275 105.005C24.7261 104.303 24.332 103.352 24.332 102.36C24.3307 101.868 24.4265 101.381 24.6139 100.926C24.8013 100.471 25.0765 100.057 25.424 99.709C25.7714 99.3606 26.1842 99.0843 26.6386 98.8958C27.093 98.7072 27.58 98.6101 28.072 98.6101H131.312C132.307 98.6101 133.26 99.005 133.964 99.7083C134.667 100.412 135.062 101.366 135.062 102.36C135.06 103.353 134.663 104.304 133.96 105.005C133.257 105.706 132.305 106.1 131.312 106.1Z" fill="#0072FF"/>
<path id="Vector_5" d="M131.312 128.47H28.072C27.58 128.47 27.093 128.373 26.6386 128.184C26.1842 127.996 25.7714 127.719 25.424 127.371C25.0765 127.023 24.8013 126.609 24.6139 126.154C24.4265 125.699 24.3307 125.212 24.332 124.72C24.332 123.728 24.7261 122.777 25.4275 122.075C26.1289 121.374 27.0801 120.98 28.072 120.98H131.312C132.305 120.98 133.257 121.374 133.96 122.075C134.663 122.776 135.06 123.727 135.062 124.72C135.062 125.715 134.667 126.668 133.964 127.372C133.26 128.075 132.307 128.47 131.312 128.47Z" fill="#0072FF"/>
<path id="Vector_6" d="M90.5921 150.84H28.072C27.58 150.84 27.093 150.743 26.6386 150.554C26.1842 150.366 25.7714 150.089 25.424 149.741C25.0765 149.393 24.8013 148.979 24.6139 148.524C24.4265 148.07 24.3307 147.582 24.332 147.09C24.332 146.098 24.7261 145.147 25.4275 144.445C26.1289 143.744 27.0801 143.35 28.072 143.35H90.5921C91.584 143.35 92.5353 143.744 93.2367 144.445C93.9381 145.147 94.332 146.098 94.332 147.09C94.3334 147.582 94.2377 148.07 94.0503 148.524C93.8629 148.979 93.5877 149.393 93.2402 149.741C92.8928 150.089 92.4801 150.366 92.0257 150.554C91.5712 150.743 91.084 150.84 90.5921 150.84Z" fill="#0072FF"/>
<path id="Vector_7" d="M184.662 170.61H59.6224C50.7527 170.61 43.5625 177.8 43.5625 186.67V223.95C43.5625 232.82 50.7527 240.01 59.6224 240.01H184.662C193.532 240.01 200.722 232.82 200.722 223.95V186.67C200.722 177.8 193.532 170.61 184.662 170.61Z" fill="#0072FF"/>
<path id="Vector_8" d="M76.9324 213.38V220.65H69.4023V213.38H76.9324Z" fill="white"/>
<path id="Vector_9" d="M105.871 213.4C104.619 215.674 102.728 217.53 100.431 218.74C97.8465 220.062 94.973 220.718 92.0709 220.65H80.7109V190.58H92.0709C94.9752 190.508 97.8527 191.15 100.451 192.45C102.738 193.638 104.624 195.474 105.871 197.73C107.164 200.13 107.815 202.824 107.761 205.55C107.812 208.285 107.162 210.988 105.871 213.4ZM98.051 211.89C98.8639 211.056 99.4936 210.061 99.9 208.969C100.306 207.877 100.48 206.713 100.411 205.55C100.481 204.389 100.307 203.225 99.9006 202.135C99.4942 201.045 98.8642 200.052 98.051 199.22C96.2291 197.623 93.8495 196.81 91.431 196.96H88.001V214.14H91.4409C93.854 214.286 96.2279 213.478 98.051 211.89Z" fill="white"/>
<path id="Vector_10" d="M133.902 192.09C136.19 193.389 138.081 195.287 139.372 197.58C140.725 200.001 141.414 202.737 141.372 205.51C141.418 208.29 140.728 211.033 139.372 213.46C138.076 215.761 136.178 217.666 133.882 218.97C131.544 220.305 128.894 220.995 126.202 220.97C123.51 220.994 120.86 220.304 118.522 218.97C116.226 217.669 114.33 215.763 113.042 213.46C111.681 211.034 110.991 208.29 111.042 205.51C110.99 202.736 111.68 199.998 113.042 197.58C114.337 195.287 116.231 193.389 118.522 192.09C120.86 190.756 123.51 190.066 126.202 190.09C128.9 190.065 131.557 190.755 133.902 192.09ZM120.502 199.19C119.027 200.955 118.276 203.213 118.402 205.51C118.276 207.797 119.027 210.047 120.502 211.8C121.22 212.581 122.101 213.195 123.082 213.599C124.064 214.004 125.122 214.188 126.182 214.14C127.239 214.185 128.293 213.999 129.27 213.595C130.248 213.191 131.125 212.578 131.842 211.8C133.324 210.05 134.082 207.8 133.962 205.51C134.082 203.223 133.331 200.976 131.862 199.22C131.144 198.438 130.263 197.824 129.281 197.42C128.3 197.015 127.242 196.831 126.182 196.88C125.124 196.831 124.069 197.013 123.088 197.412C122.108 197.81 121.225 198.417 120.502 199.19Z" fill="white"/>
<path id="Vector_11" d="M168.692 193.3C171.228 195.364 172.953 198.257 173.562 201.47H165.862C165.343 200.139 164.433 198.995 163.252 198.19C162.008 197.38 160.547 196.965 159.062 197C158.082 196.969 157.107 197.163 156.214 197.569C155.321 197.975 154.533 198.581 153.912 199.34C152.52 201.121 151.81 203.342 151.912 205.6C151.81 207.849 152.52 210.06 153.912 211.83C154.538 212.581 155.328 213.18 156.22 213.58C157.113 213.981 158.085 214.172 159.062 214.14C160.548 214.18 162.009 213.764 163.252 212.95C164.426 212.159 165.336 211.034 165.862 209.72H173.562C172.943 212.923 171.22 215.808 168.692 217.87C165.972 219.947 162.612 221.008 159.192 220.87C156.498 220.927 153.838 220.257 151.492 218.93C149.297 217.654 147.516 215.772 146.362 213.51C145.123 211.029 144.505 208.283 144.562 205.51C144.506 202.737 145.123 199.992 146.362 197.51C147.516 195.248 149.297 193.366 151.492 192.09C153.838 190.763 156.498 190.093 159.192 190.15C162.629 190.059 165.99 191.173 168.692 193.3Z" fill="white"/>
</g>
</svg>
