<svg xmlns="http://www.w3.org/2000/svg" width="20" height="24" viewBox="0 0 20 24" fill="none">
    <g opacity="0.3">
        <path
            opacity="0.3"
            d="M13.9655 4.92481C13.4188 4.92428 12.8946 4.70686 12.5081 4.32029C12.1215 3.93372 11.9041 3.40957 11.9036 2.86288V1.85847e-07H2.69092C2.33747 -0.000131162 1.98744 0.0693619 1.66085 0.204533C1.33426 0.339705 1.0375 0.537901 0.787518 0.787787C0.537539 1.03767 0.33924 1.33436 0.203947 1.6609C0.0686544 1.98744 -0.000976587 2.33743 -0.000976562 2.69089V18.9123C-0.000976587 19.2657 0.0686544 19.6157 0.203947 19.9423C0.33924 20.2688 0.537539 20.5655 0.787518 20.8154C1.0375 21.0653 1.33426 21.2634 1.66085 21.3986C1.98744 21.5338 2.33747 21.6033 2.69092 21.6032H13.7505C14.4642 21.6032 15.1486 21.3197 15.6532 20.815C16.1579 20.3104 16.4414 19.6259 16.4414 18.9123V4.92481H13.9655Z"
            fill="#006AD4"
        />
    </g>
    <path
        d="M16.4411 4.92481H13.9653C13.4186 4.92428 12.8944 4.70686 12.5078 4.32029C12.1213 3.93372 11.9038 3.40957 11.9033 2.86288V0L16.4411 4.92481Z"
        fill="#006AD4"
    />
    <path
        d="M13.0589 8.37251H2.73531C2.63613 8.37251 2.54101 8.3331 2.47087 8.26296C2.40074 8.19283 2.36133 8.09771 2.36133 7.99852C2.3612 7.94932 2.37078 7.90058 2.38951 7.85509C2.40825 7.8096 2.43578 7.76825 2.47052 7.73342C2.50526 7.69858 2.54652 7.67096 2.59196 7.6521C2.6374 7.63324 2.68612 7.62353 2.73531 7.62354H13.0589C13.1584 7.62354 13.2537 7.66305 13.3241 7.73337C13.3944 7.80369 13.4339 7.89907 13.4339 7.99852C13.4336 8.0978 13.394 8.19293 13.3237 8.26304C13.2534 8.33314 13.1582 8.37251 13.0589 8.37251Z"
        fill="#006AD4"
    />
    <path
        d="M13.0589 10.6098H2.73531C2.63613 10.6098 2.54101 10.5704 2.47087 10.5003C2.40074 10.4301 2.36133 10.335 2.36133 10.2358C2.3612 10.1866 2.37078 10.1379 2.38951 10.0924C2.40825 10.0469 2.43578 10.0056 2.47052 9.97072C2.50526 9.93589 2.54652 9.90826 2.59196 9.8894C2.6374 9.87055 2.68612 9.86084 2.73531 9.86084H13.0589C13.1584 9.86084 13.2537 9.90033 13.3241 9.97065C13.3944 10.041 13.4339 10.1364 13.4339 10.2358C13.4336 10.3351 13.394 10.4302 13.3237 10.5003C13.2534 10.5704 13.1582 10.6098 13.0589 10.6098Z"
        fill="#006AD4"
    />
    <path
        d="M13.0589 12.8466H2.73531C2.68612 12.8466 2.6374 12.8369 2.59196 12.8181C2.54652 12.7992 2.50526 12.7716 2.47052 12.7367C2.43578 12.7019 2.40825 12.6606 2.38951 12.6151C2.37078 12.5696 2.3612 12.5208 2.36133 12.4716C2.36133 12.3725 2.40074 12.2773 2.47087 12.2072C2.54101 12.1371 2.63613 12.0977 2.73531 12.0977H13.0589C13.1582 12.0977 13.2534 12.137 13.3237 12.2071C13.394 12.2772 13.4336 12.3724 13.4339 12.4716C13.4339 12.5711 13.3944 12.6665 13.3241 12.7368C13.2537 12.8071 13.1584 12.8466 13.0589 12.8466Z"
        fill="#006AD4"
    />
    <path
        d="M8.98507 15.0834H2.73531C2.68612 15.0834 2.6374 15.0737 2.59196 15.0549C2.54652 15.036 2.50526 15.0084 2.47052 14.9735C2.43578 14.9387 2.40825 14.8974 2.38951 14.8519C2.37078 14.8064 2.3612 14.7577 2.36133 14.7085C2.36133 14.6093 2.40074 14.5141 2.47087 14.444C2.54101 14.3739 2.63613 14.3345 2.73531 14.3345H8.98507C9.08426 14.3345 9.17938 14.3739 9.24951 14.444C9.31965 14.5141 9.35906 14.6093 9.35906 14.7085C9.35919 14.7577 9.34961 14.8064 9.33087 14.8519C9.31214 14.8974 9.28461 14.9387 9.24987 14.9735C9.21513 15.0084 9.17386 15.036 9.12843 15.0549C9.08299 15.0737 9.03427 15.0834 8.98507 15.0834Z"
        fill="#006AD4"
    />
    <path
        d="M18.3936 17.0605H5.89012C5.00318 17.0605 4.28418 17.7795 4.28418 18.6665V22.3943C4.28418 23.2813 5.00318 24.0003 5.89012 24.0003H18.3936C19.2806 24.0003 19.9996 23.2813 19.9996 22.3943V18.6665C19.9996 17.7795 19.2806 17.0605 18.3936 17.0605Z"
        fill="#006AD4"
    />
    <path d="M6.11722 21.3374V22.0644H5.36426V21.3374H6.11722Z" fill="white" />
    <path
        d="M9.01102 21.3391C8.88554 21.5662 8.69648 21.7518 8.46704 21.873C8.20859 22.0052 7.92127 22.0709 7.63107 22.064H6.49512V19.0572H7.63107C7.92148 19.0501 8.20919 19.1143 8.46904 19.2441C8.69777 19.3629 8.88633 19.5466 9.01102 19.7721C9.14031 20.0122 9.20541 20.2815 9.20002 20.5541C9.20516 20.8276 9.14009 21.0979 9.01102 21.3391ZM8.22905 21.1881C8.31033 21.1046 8.37332 21.0052 8.41395 20.896C8.45459 20.7868 8.47199 20.6704 8.46505 20.5541C8.47204 20.438 8.45466 20.3217 8.41401 20.2126C8.37337 20.1036 8.31036 20.0043 8.22905 19.9211C8.04686 19.7614 7.80891 19.6801 7.56707 19.6951H7.22309V21.4131H7.56707C7.80871 21.4279 8.04649 21.3471 8.22905 21.1881Z"
        fill="white"
    />
    <path
        d="M11.8135 19.2084C12.0423 19.3383 12.2314 19.5281 12.3605 19.7573C12.4958 19.9994 12.5648 20.273 12.5605 20.5503C12.5655 20.8283 12.4965 21.1027 12.3605 21.3453C12.2317 21.5756 12.0421 21.7661 11.8125 21.8962C11.5787 22.0297 11.3137 22.0988 11.0445 22.0962C10.7754 22.0988 10.5103 22.0297 10.2766 21.8962C10.047 21.7661 9.85742 21.5756 9.72858 21.3453C9.59256 21.1027 9.52353 20.8283 9.52859 20.5503C9.52341 20.2729 9.59245 19.9991 9.72858 19.7573C9.85808 19.528 10.0475 19.3383 10.2766 19.2084C10.5103 19.0749 10.7754 19.0058 11.0445 19.0084C11.314 19.006 11.5793 19.075 11.8135 19.2084ZM10.4736 19.9183C10.326 20.0948 10.251 20.3206 10.2636 20.5503C10.251 20.779 10.3261 21.004 10.4736 21.1793C10.5454 21.2574 10.6335 21.3188 10.7316 21.3592C10.8297 21.3996 10.9355 21.4181 11.0415 21.4133C11.1472 21.4176 11.2526 21.399 11.3503 21.3586C11.448 21.3182 11.5358 21.257 11.6075 21.1793C11.7557 21.0043 11.8316 20.7793 11.8195 20.5503C11.8315 20.3216 11.7565 20.0969 11.6095 19.9213C11.5377 19.8432 11.4496 19.7817 11.3515 19.7413C11.2534 19.7009 11.1476 19.6824 11.0415 19.6873C10.9358 19.6825 10.8303 19.7006 10.7322 19.7405C10.6341 19.7804 10.5459 19.841 10.4736 19.9183Z"
        fill="white"
    />
    <path
        d="M15.2931 19.3292C15.5467 19.5355 15.7192 19.8249 15.7801 20.1462H15.0102C14.9582 20.013 14.8672 19.8987 14.7492 19.8182C14.6247 19.7371 14.4786 19.6957 14.3302 19.6992C14.2321 19.696 14.1347 19.7155 14.0454 19.7561C13.9561 19.7967 13.8773 19.8573 13.8152 19.9332C13.676 20.1113 13.6051 20.3333 13.6152 20.5591C13.605 20.7841 13.676 21.0052 13.8152 21.1821C13.8778 21.2573 13.9568 21.3171 14.046 21.3571C14.1352 21.3972 14.2324 21.4163 14.3302 21.4131C14.4787 21.4171 14.6249 21.3755 14.7492 21.2941C14.8666 21.215 14.9575 21.1025 15.0102 20.9711H15.7801C15.7182 21.2914 15.5459 21.5799 15.2931 21.7861C15.0211 21.9938 14.6851 22.0999 14.3432 22.0861C14.0737 22.0918 13.8078 22.0247 13.5732 21.8921C13.3537 21.7645 13.1756 21.5763 13.0602 21.3501C12.936 21.1021 12.8738 20.8275 12.8792 20.5501C12.8739 20.2728 12.936 19.9982 13.0602 19.7502C13.1756 19.524 13.3537 19.3358 13.5732 19.2082C13.8078 19.0755 14.0737 19.0085 14.3432 19.0142C14.6869 19.0051 15.023 19.1165 15.2931 19.3292Z"
        fill="white"
    />
    <path
        d="M18.0116 22.064L17.3776 21.128L16.8337 22.064H15.9997L16.9617 20.5161L15.9707 19.0571H16.8337L17.4507 19.9631L17.9816 19.0571H18.8116L17.8626 20.5711L18.8746 22.064H18.0116Z"
        fill="white"
    />
</svg>