<svg width="201" height="240" viewBox="0 0 201 240" fill="none" xmlns="http://www.w3.org/2000/svg">
<g id="DWG">
<g id="Group" opacity="0.3">
<path id="Vector" opacity="0.3" d="M139.999 49.24C134.53 49.2373 129.286 47.0644 125.418 43.1982C121.55 39.3321 119.374 34.0889 119.369 28.62V0H27.199C23.6643 -2.4406e-07 20.1642 0.696337 16.8987 2.04932C13.6332 3.4023 10.6662 5.38537 8.16724 7.88525C5.66828 10.3851 3.68636 13.3529 2.3346 16.6189C0.982831 19.8849 0.287751 23.3853 0.289064 26.92V189.13C0.299663 196.26 3.13948 203.094 8.18494 208.132C13.2304 213.17 20.0689 216 27.199 216H137.799C141.334 216 144.834 215.304 148.099 213.951C151.365 212.598 154.332 210.615 156.831 208.115C159.33 205.615 161.312 202.647 162.664 199.381C164.015 196.115 164.71 192.615 164.709 189.08V49.2L139.999 49.24Z" fill="#005FAD"/>
</g>
<path id="Vector_2" d="M164.707 49.24H139.997C134.528 49.2373 129.284 47.0644 125.416 43.1982C121.548 39.3321 119.372 34.0889 119.367 28.62V0L164.707 49.24Z" fill="#005FAD"/>
<path id="Vector_3" d="M123.781 86.3398H34.7808C33.9241 86.3398 33.1026 85.9995 32.4968 85.3938C31.8911 84.7881 31.5508 83.9665 31.5508 83.1099C31.5508 82.2532 31.8911 81.4317 32.4968 80.8259C33.1026 80.2202 33.9241 79.8799 34.7808 79.8799H123.781C124.204 79.8799 124.624 79.9635 125.015 80.126C125.407 80.2884 125.762 80.5265 126.061 80.8265C126.36 81.1266 126.597 81.4827 126.759 81.8745C126.92 82.2663 127.002 82.6862 127.001 83.1099C127.001 83.9648 126.662 84.7848 126.058 85.3903C125.455 85.9957 124.636 86.3372 123.781 86.3398Z" fill="#005FAD"/>
<path id="Vector_4" d="M184.229 170.6H59.1888C50.3191 170.6 43.1289 177.79 43.1289 186.66V223.94C43.1289 232.81 50.3191 240 59.1888 240H184.229C193.099 240 200.289 232.81 200.289 223.94V186.66C200.289 177.79 193.099 170.6 184.229 170.6Z" fill="#005FAD"/>
<path id="Vector_5" d="M70.9988 213.37V220.65H63.4688V213.37H70.9988Z" fill="white"/>
<path id="Vector_6" d="M100.001 213.39C98.7515 215.666 96.8595 217.523 94.5608 218.73C91.9787 220.06 89.1041 220.72 86.2007 220.65H74.8008V190.58H86.1608C89.0654 190.504 91.9438 191.147 94.5408 192.45C96.8278 193.633 98.7135 195.467 99.9607 197.72C101.254 200.124 101.905 202.821 101.851 205.55C101.916 208.279 101.279 210.978 100.001 213.39ZM92.1708 211.88C92.9873 211.05 93.6202 210.057 94.0284 208.967C94.4367 207.876 94.6113 206.712 94.5408 205.55C94.6114 204.386 94.4369 203.221 94.0287 202.128C93.6204 201.036 92.9875 200.042 92.1708 199.21C90.3498 197.619 87.9745 196.81 85.5608 196.96H82.1207V214.14H85.5608C87.9629 214.281 90.3236 213.469 92.1307 211.88H92.1708Z" fill="white"/>
<path id="Vector_7" d="M146.85 190.58L139.67 220.65H130.67L125.86 200.53L121.01 220.65H112.01L104.82 190.58H112.73L116.6 212.35L121.87 190.58H129.87L135.14 212.35L139.05 190.58H146.85Z" fill="white"/>
<path id="Vector_8" d="M174.071 193C176.495 194.818 178.125 197.501 178.621 200.49H170.931C170.428 199.417 169.612 198.521 168.591 197.92C167.446 197.24 166.133 196.893 164.801 196.92C163.765 196.877 162.733 197.063 161.777 197.464C160.821 197.865 159.966 198.471 159.271 199.24C157.808 200.991 157.064 203.232 157.191 205.51C157.191 208.37 157.921 210.567 159.381 212.1C160.202 212.896 161.18 213.512 162.253 213.908C163.326 214.304 164.47 214.472 165.611 214.4C167.243 214.43 168.839 213.928 170.161 212.97C171.507 211.962 172.479 210.533 172.921 208.91H163.741V203.68H179.001V210.87C178.414 212.658 177.49 214.318 176.281 215.76C174.965 217.31 173.332 218.558 171.491 219.42C169.405 220.383 167.128 220.862 164.831 220.82C162.041 220.894 159.28 220.228 156.831 218.89C154.59 217.63 152.765 215.742 151.581 213.46C150.304 210.99 149.668 208.24 149.731 205.46C149.676 202.697 150.312 199.965 151.581 197.51C152.76 195.231 154.577 193.344 156.811 192.08C159.224 190.751 161.946 190.085 164.701 190.15C168.055 190.025 171.354 191.028 174.071 193Z" fill="white"/>
<path id="Vector_9" d="M100.809 58.17V147.17C100.811 147.595 100.728 148.015 100.566 148.408C100.404 148.8 100.167 149.157 99.8663 149.457C99.5662 149.757 99.2095 149.995 98.817 150.157C98.4246 150.319 98.0039 150.401 97.5794 150.4C97.1557 150.4 96.7362 150.316 96.3449 150.154C95.9535 149.991 95.5981 149.753 95.299 149.453C94.9998 149.153 94.7628 148.797 94.6016 148.405C94.4403 148.013 94.3581 147.594 94.3594 147.17V58.17C94.3594 57.3151 94.6983 56.495 95.3019 55.8895C95.9055 55.2841 96.7244 54.9426 97.5794 54.9399C98.436 54.9399 99.2577 55.2802 99.8634 55.886C100.469 56.4917 100.809 57.3134 100.809 58.17Z" fill="#005FAD"/>
<path id="Vector_10" d="M108.098 72.3599H87.4883V92.9698H108.098V72.3599Z" fill="#005FAD"/>
</g>
</svg>
