<svg width="201" height="240" viewBox="0 0 201 240" fill="none" xmlns="http://www.w3.org/2000/svg">
<g id="EPS">
<g id="Group" opacity="0.3">
<path id="Vector" opacity="0.3" d="M140.381 49.24C134.914 49.2347 129.672 47.0606 125.806 43.1947C121.94 39.3288 119.766 34.0871 119.761 28.62V0H27.631C24.0958 0 20.5952 0.696338 17.3291 2.04919C14.063 3.40205 11.0955 5.38489 8.5957 7.88464C6.09595 10.3844 4.11299 13.3521 2.76013 16.6182C1.40728 19.8842 0.710938 23.3849 0.710938 26.92V189.13C0.710938 192.665 1.40728 196.166 2.76013 199.432C4.11299 202.698 6.09595 205.666 8.5957 208.165C11.0955 210.665 14.063 212.648 17.3291 214.001C20.5952 215.354 24.0958 216.05 27.631 216.05H138.231C141.766 216.05 145.266 215.354 148.531 214.001C151.797 212.648 154.764 210.665 157.263 208.165C159.762 205.665 161.744 202.697 163.095 199.431C164.447 196.165 165.142 192.665 165.141 189.13V49.25L140.381 49.24Z" fill="#FF9908"/>
</g>
<path id="Vector_2" d="M165.142 49.24H140.382C134.915 49.2347 129.673 47.0606 125.807 43.1947C121.941 39.3288 119.767 34.0871 119.762 28.62V0L165.142 49.24Z" fill="#FF9908"/>
<path id="Vector_3" d="M184.662 170.6H59.6224C50.7527 170.6 43.5625 177.79 43.5625 186.66V223.94C43.5625 232.81 50.7527 240 59.6224 240H184.662C193.532 240 200.722 232.81 200.722 223.94V186.66C200.722 177.79 193.532 170.6 184.662 170.6Z" fill="#FF9908"/>
<path id="Vector_4" d="M88.0027 213.37V220.65H80.4727V213.37H88.0027Z" fill="white"/>
<path id="Vector_5" d="M99.0496 196.36V202.65H109.209V208.14H99.0496V214.82H110.49V220.65H91.7695V190.58H110.49V196.36H99.0496Z" fill="white"/>
<path id="Vector_6" d="M121.889 210.1V220.65H114.609V190.58H126.389C129.969 190.58 132.693 191.463 134.559 193.23C135.505 194.161 136.245 195.28 136.729 196.516C137.213 197.751 137.431 199.075 137.369 200.4C137.401 202.149 136.966 203.875 136.109 205.4C135.244 206.895 133.947 208.094 132.389 208.84C130.518 209.732 128.461 210.164 126.389 210.1H121.889ZM129.969 200.4C129.969 197.733 128.509 196.4 125.589 196.4H121.889V204.23H125.589C128.529 204.257 129.999 202.98 129.999 200.4H129.969Z" fill="white"/>
<path id="Vector_7" d="M161.331 216.56C160.474 217.946 159.234 219.054 157.761 219.75C155.975 220.593 154.015 221.001 152.041 220.94C149.066 221.06 146.135 220.195 143.701 218.48C142.63 217.671 141.753 216.632 141.135 215.44C140.518 214.248 140.175 212.932 140.131 211.59H147.871C147.936 212.601 148.366 213.553 149.081 214.27C149.803 214.939 150.758 215.298 151.741 215.27C152.549 215.319 153.344 215.046 153.951 214.51C154.218 214.251 154.428 213.94 154.567 213.596C154.707 213.251 154.773 212.882 154.761 212.51C154.772 212.157 154.711 211.805 154.584 211.476C154.457 211.146 154.266 210.845 154.021 210.59C153.492 210.056 152.864 209.632 152.171 209.34C151.431 209.013 150.411 208.624 149.111 208.17C147.517 207.647 145.96 207.015 144.451 206.28C143.207 205.638 142.14 204.7 141.341 203.55C140.427 202.159 139.975 200.514 140.051 198.85C140.009 197.203 140.485 195.583 141.411 194.22C142.354 192.883 143.658 191.843 145.171 191.22C146.92 190.514 148.796 190.174 150.681 190.22C153.543 190.059 156.372 190.901 158.681 192.6C159.646 193.38 160.439 194.352 161.01 195.453C161.581 196.555 161.919 197.762 162.001 199H154.131C154.043 198.115 153.664 197.285 153.051 196.64C152.737 196.343 152.366 196.112 151.961 195.963C151.555 195.813 151.123 195.748 150.691 195.77C149.944 195.732 149.209 195.974 148.631 196.45C148.358 196.703 148.145 197.014 148.008 197.36C147.871 197.706 147.814 198.079 147.841 198.45C147.833 198.782 147.89 199.111 148.01 199.42C148.131 199.729 148.311 200.012 148.541 200.25C149.045 200.77 149.646 201.185 150.311 201.47C151.021 201.78 152.041 202.18 153.371 202.66C154.992 203.181 156.57 203.826 158.091 204.59C159.345 205.26 160.424 206.216 161.241 207.38C162.172 208.788 162.634 210.454 162.561 212.14C162.576 213.7 162.15 215.232 161.331 216.56Z" fill="white"/>
<path id="Vector_8" d="M123.743 127.73H121.253C121.24 117.638 117.224 107.964 110.087 100.829C102.95 93.6937 93.2747 89.6807 83.1829 89.6702C73.092 89.6808 63.4173 93.694 56.282 100.829C49.1466 107.965 45.1334 117.639 45.1228 127.73H42.6328C42.646 116.98 46.9226 106.673 54.5243 99.0715C62.126 91.4698 72.4324 87.1934 83.1829 87.1802C93.9351 87.1908 104.244 91.466 111.848 99.068C119.452 106.67 123.73 116.978 123.743 127.73Z" fill="#FF9908"/>
<path id="Vector_9" d="M140.811 87.1802H25.5508V89.6702H140.811V87.1802Z" fill="#FF9908"/>
<path id="Vector_10" d="M47.8606 123.75H39.8906V131.72H47.8606V123.75Z" fill="#FF9908"/>
<path id="Vector_11" d="M126.482 123.75H118.512V131.72H126.482V123.75Z" fill="#FF9908"/>
<path id="Vector_12" d="M87.1693 84.3101H79.1992V92.28H87.1693V84.3101Z" fill="#FF9908"/>
<path id="Vector_13" d="M25.4197 92.29C27.6233 92.29 29.4097 90.5037 29.4097 88.3C29.4097 86.0964 27.6233 84.3101 25.4197 84.3101C23.2161 84.3101 21.4297 86.0964 21.4297 88.3C21.4297 90.5037 23.2161 92.29 25.4197 92.29Z" fill="#FF9908"/>
<path id="Vector_14" d="M140.432 92.29C142.635 92.29 144.422 90.5037 144.422 88.3C144.422 86.0964 142.635 84.3101 140.432 84.3101C138.228 84.3101 136.441 86.0964 136.441 88.3C136.441 90.5037 138.228 92.29 140.432 92.29Z" fill="#FF9908"/>
</g>
</svg>
