<svg width="201" height="240" viewBox="0 0 201 240" fill="none" xmlns="http://www.w3.org/2000/svg">
<g id="EXE">
<g id="Group" opacity="0.3">
<path id="Vector" opacity="0.3" d="M139.999 49.25C134.529 49.2447 129.285 47.0695 125.417 43.2018C121.55 39.3341 119.374 34.0898 119.369 28.62V0H27.199C20.062 0 13.2174 2.83511 8.17078 7.88171C3.12417 12.9283 0.289062 19.7731 0.289062 26.91V189.13C0.299661 196.26 3.13948 203.094 8.18494 208.132C13.2304 213.17 20.0689 216 27.199 216H137.799C144.936 216 151.781 213.165 156.827 208.118C161.874 203.072 164.709 196.227 164.709 189.09V49.21L139.999 49.25Z" fill="#0072FF"/>
</g>
<path id="Vector_2" d="M164.707 49.25H139.997C134.527 49.2447 129.283 47.0695 125.415 43.2018C121.548 39.3341 119.372 34.0898 119.367 28.62V0L164.707 49.25Z" fill="#0072FF"/>
<path id="Vector_3" d="M184.229 170.61H59.1888C50.3191 170.61 43.1289 177.8 43.1289 186.67V223.95C43.1289 232.82 50.3191 240.01 59.1888 240.01H184.229C193.099 240.01 200.289 232.82 200.289 223.95V186.67C200.289 177.8 193.099 170.61 184.229 170.61Z" fill="#0072FF"/>
<path id="Vector_4" d="M87.48 213.38V220.65H80V213.38H87.48Z" fill="white"/>
<path id="Vector_5" d="M98.5374 196.36V202.66H108.697V208.14H98.5374V214.82H109.997V220.65H91.2773V190.58H109.997V196.36H98.5374Z" fill="white"/>
<path id="Vector_6" d="M132.35 220.65L126.01 211.29L120.57 220.65H112.23L121.84 205.17L111.93 190.58H120.57L126.73 199.64L132.05 190.58H140.35L130.86 205.72L140.98 220.65H132.35Z" fill="white"/>
<path id="Vector_7" d="M151.059 196.36V202.66H161.229V208.14H151.059V214.82H162.499V220.65H143.789V190.58H162.499V196.36H151.059Z" fill="white"/>
<path id="Vector_8" d="M82.4993 147.71C81.3588 147.71 80.2651 147.257 79.4587 146.451C78.6523 145.644 78.1992 144.55 78.1992 143.41V136.8C78.1992 136.236 78.3105 135.677 78.5267 135.156C78.743 134.635 79.0599 134.161 79.4594 133.763C79.8588 133.364 80.3329 133.049 80.8545 132.834C81.3761 132.619 81.9351 132.509 82.4993 132.51C83.637 132.51 84.7282 132.962 85.5327 133.766C86.3372 134.571 86.7893 135.662 86.7893 136.8V143.41C86.7893 144.549 86.3376 145.641 85.5333 146.447C84.7291 147.253 83.638 147.707 82.4993 147.71Z" fill="#0072FF"/>
<path id="Vector_9" d="M82.4993 94.4199C81.3588 94.4199 80.2651 93.9668 79.4587 93.1604C78.6523 92.354 78.1992 91.2603 78.1992 90.1199V82.4299C78.1992 81.2895 78.6523 80.1957 79.4587 79.3893C80.2651 78.5829 81.3588 78.1299 82.4993 78.1299C83.638 78.1325 84.7291 78.5867 85.5333 79.3928C86.3376 80.1989 86.7893 81.2912 86.7893 82.4299V90.1199C86.7893 91.2586 86.3376 92.3507 85.5333 93.1569C84.7291 93.963 83.638 94.4173 82.4993 94.4199Z" fill="#0072FF"/>
<path id="Vector_10" d="M97.7508 143.63C96.995 143.631 96.2522 143.433 95.5974 143.055C94.9425 142.678 94.3987 142.135 94.0208 141.48L90.8207 135.92C90.2519 134.935 90.0978 133.764 90.3923 132.665C90.6867 131.566 91.4056 130.629 92.3908 130.06C92.8791 129.777 93.4185 129.593 93.9781 129.518C94.5377 129.444 95.1064 129.481 95.6517 129.627C96.197 129.772 96.7081 130.025 97.1558 130.368C97.6036 130.712 97.9791 131.141 98.2608 131.63L101.461 137.18C102.03 138.167 102.185 139.339 101.89 140.44C101.596 141.54 100.877 142.479 99.8908 143.05C99.2403 143.427 98.5025 143.627 97.7508 143.63Z" fill="#0072FF"/>
<path id="Vector_11" d="M71.1999 97.63C70.4441 97.6311 69.7013 97.4329 69.0465 97.0554C68.3916 96.678 67.8478 96.1346 67.4699 95.48L63.53 88.6701C62.9615 87.682 62.8085 86.5087 63.1048 85.408C63.4011 84.3072 64.1223 83.3692 65.1099 82.8001C66.0967 82.2308 67.2691 82.0763 68.3697 82.3706C69.4703 82.665 70.4091 83.3841 70.9799 84.37L74.91 91.1899C75.4793 92.1768 75.6337 93.3493 75.3393 94.4498C75.0449 95.5504 74.3258 96.4892 73.3399 97.0601C72.6888 97.4341 71.9508 97.6306 71.1999 97.63Z" fill="#0072FF"/>
<path id="Vector_12" d="M108.9 132.46C108.149 132.461 107.411 132.264 106.76 131.89L101.2 128.68C100.214 128.109 99.4951 127.17 99.2007 126.07C98.9064 124.969 99.0607 123.797 99.63 122.81C100.199 121.823 101.137 121.101 102.238 120.805C103.339 120.509 104.512 120.662 105.5 121.23L111.06 124.44C112.046 125.011 112.765 125.95 113.059 127.05C113.354 128.151 113.199 129.323 112.63 130.31C112.252 130.965 111.708 131.508 111.054 131.885C110.399 132.263 109.656 132.461 108.9 132.46Z" fill="#0072FF"/>
<path id="Vector_13" d="M62.8984 105.91C62.1465 105.908 61.4083 105.708 60.7583 105.33L53.9383 101.4C52.9524 100.829 52.2334 99.8903 51.939 98.7897C51.6446 97.6891 51.799 96.5168 52.3683 95.5299C52.65 95.0408 53.0256 94.612 53.4733 94.2682C53.921 93.9244 54.4321 93.6724 54.9775 93.5265C55.5228 93.3807 56.0915 93.3439 56.651 93.4183C57.2106 93.4926 57.75 93.6767 58.2383 93.9599L65.0584 97.8899C66.0423 98.4627 66.7596 99.4013 67.0538 100.501C67.3479 101.601 67.195 102.772 66.6283 103.76C66.2504 104.415 65.7066 104.958 65.0518 105.335C64.397 105.713 63.6542 105.911 62.8984 105.91Z" fill="#0072FF"/>
<path id="Vector_14" d="M112.998 117.22H106.378C105.238 117.22 104.144 116.767 103.338 115.96C102.531 115.154 102.078 114.06 102.078 112.92C102.081 111.781 102.535 110.69 103.341 109.886C104.147 109.081 105.239 108.63 106.378 108.63H112.998C114.137 108.63 115.229 109.081 116.035 109.886C116.841 110.69 117.296 111.781 117.298 112.92C117.298 114.06 116.845 115.154 116.039 115.96C115.232 116.767 114.139 117.22 112.998 117.22Z" fill="#0072FF"/>
<path id="Vector_15" d="M59.6793 117.22H51.9993C50.8588 117.22 49.7651 116.767 48.9587 115.96C48.1523 115.154 47.6992 114.06 47.6992 112.92C47.7019 111.781 48.1562 110.69 48.9623 109.886C49.7684 109.082 50.8606 108.63 51.9993 108.63H59.6693C60.2335 108.629 60.7924 108.739 61.3141 108.954C61.8357 109.169 62.3098 109.484 62.7092 109.883C63.1087 110.281 63.4255 110.755 63.6417 111.276C63.8579 111.797 63.9692 112.356 63.9692 112.92C63.9706 113.484 63.8606 114.043 63.6456 114.565C63.4306 115.086 63.1148 115.56 62.7163 115.96C62.3178 116.359 61.8444 116.676 61.3232 116.892C60.8021 117.109 60.2435 117.22 59.6793 117.22Z" fill="#0072FF"/>
<path id="Vector_16" d="M102.877 105.45C102.122 105.451 101.381 105.254 100.726 104.879C100.072 104.503 99.5271 103.962 99.1472 103.31C98.5787 102.322 98.4257 101.149 98.722 100.048C99.0183 98.9474 99.7395 98.0093 100.727 97.4401L106.727 93.9601C107.714 93.3908 108.886 93.2364 109.987 93.5308C111.087 93.8252 112.026 94.5443 112.597 95.5302C113.166 96.517 113.321 97.6894 113.027 98.79C112.732 99.8905 112.013 100.829 111.027 101.4L105.027 104.88C104.373 105.257 103.632 105.453 102.877 105.45Z" fill="#0072FF"/>
<path id="Vector_17" d="M56.0883 132.46C55.3337 132.461 54.5923 132.263 53.939 131.886C53.2857 131.508 52.7438 130.965 52.3683 130.31C51.799 129.323 51.6446 128.151 51.939 127.05C52.2334 125.95 52.9524 125.011 53.9383 124.44L60.2984 120.77C61.2858 120.203 62.4573 120.05 63.557 120.345C64.6568 120.639 65.5956 121.356 66.1684 122.34C66.7368 123.328 66.8897 124.501 66.5934 125.602C66.2971 126.703 65.5759 127.641 64.5883 128.21L58.2383 131.88C57.5867 132.263 56.844 132.463 56.0883 132.46Z" fill="#0072FF"/>
<path id="Vector_18" d="M82.9977 141.11H82.3077C77.3928 140.995 72.5991 139.562 68.4277 136.96C64.3054 134.404 60.9261 130.811 58.6277 126.54C56.4794 122.518 55.353 118.03 55.3477 113.47C55.3477 113.24 55.3477 113.01 55.3477 112.78C55.4659 108.081 56.7808 103.49 59.1677 99.4401C61.5515 95.396 64.9236 92.024 68.9677 89.6402C73.034 87.2514 77.6428 85.9399 82.3577 85.8301H82.9877C87.553 85.8253 92.0479 86.9559 96.0676 89.1201C100.335 91.4106 103.926 94.7835 106.478 98.9002C109.083 103.092 110.513 107.906 110.618 112.84C110.618 113.01 110.618 113.24 110.618 113.47C110.619 118.244 109.382 122.937 107.028 127.09C104.567 131.449 100.964 135.055 96.6077 137.52C92.457 139.872 87.7682 141.108 82.9977 141.11ZM82.8877 94.4102H82.6177C79.3507 94.4811 76.1561 95.3865 73.3376 97.0402C70.5508 98.6837 68.2253 101.006 66.5776 103.79C64.9464 106.59 64.0583 109.76 63.9977 113C63.9977 113.18 63.9977 113.31 63.9977 113.44C63.9956 116.581 64.7721 119.673 66.2577 122.44C67.8401 125.392 70.1715 127.875 73.0177 129.64C75.9053 131.432 79.2204 132.416 82.6177 132.49H83.0577C86.3488 132.494 89.5844 131.643 92.4476 130.02C95.4543 128.318 97.9402 125.829 99.6377 122.82C101.259 119.96 102.11 116.728 102.108 113.44V113.06C102.034 109.643 101.046 106.307 99.2477 103.4C97.4883 100.562 95.0117 98.2368 92.0676 96.6602C89.2535 95.1574 86.1078 94.3838 82.9177 94.4102H82.8877Z" fill="#0072FF"/>
<path id="Vector_19" d="M94.0586 97.1801C93.3074 97.183 92.5689 96.9863 91.9186 96.61C91.4295 96.3283 91.0007 95.9529 90.6569 95.5052C90.3131 95.0574 90.0611 94.5462 89.9152 94.0009C89.7693 93.4556 89.7326 92.8869 89.8069 92.3273C89.8813 91.7677 90.0653 91.2283 90.3486 90.74L94.0186 84.37C94.3003 83.8809 94.6757 83.4521 95.1235 83.1083C95.5712 82.7645 96.0824 82.5125 96.6277 82.3666C97.173 82.2208 97.7417 82.184 98.3013 82.2583C98.8609 82.3327 99.4003 82.5169 99.8886 82.8001C100.378 83.0818 100.807 83.4572 101.15 83.9049C101.494 84.3527 101.746 84.8639 101.892 85.4092C102.038 85.9545 102.075 86.5232 102 87.0828C101.926 87.6424 101.742 88.1818 101.459 88.6701L97.7886 95.0301C97.4107 95.6846 96.8669 96.2281 96.2121 96.6055C95.5572 96.983 94.8145 97.1812 94.0586 97.1801Z" fill="#0072FF"/>
<path id="Vector_20" d="M67.2499 143.63C66.4979 143.629 65.7594 143.429 65.1099 143.05C64.1223 142.481 63.4011 141.543 63.1048 140.442C62.8085 139.341 62.9615 138.168 63.53 137.18L67.01 131.18C67.5808 130.194 68.5196 129.475 69.6202 129.181C70.7208 128.886 71.8931 129.041 72.88 129.61C73.8659 130.181 74.585 131.12 74.8793 132.22C75.1737 133.321 75.0192 134.493 74.4499 135.48L70.9799 141.48C70.602 142.135 70.0582 142.678 69.4034 143.055C68.7485 143.433 68.0058 143.631 67.2499 143.63Z" fill="#0072FF"/>
</g>
</svg>
