<svg width="201" height="240" viewBox="0 0 201 240" fill="none" xmlns="http://www.w3.org/2000/svg">
<g id="FLV">
<g id="Group" opacity="0.3">
<path id="Vector" opacity="0.3" d="M140.381 49.24C134.914 49.2347 129.672 47.0606 125.806 43.1947C121.94 39.3288 119.766 34.0871 119.761 28.62V1.85821e-06H27.631C24.0963 -0.00131167 20.5959 0.693768 17.3298 2.04553C14.0638 3.3973 11.0962 5.37928 8.59631 7.87824C6.09643 10.3772 4.11336 13.3442 2.76038 16.6097C1.4074 19.8752 0.710937 23.3753 0.710938 26.91V189.13C0.721538 196.262 3.56273 203.098 8.61035 208.136C13.658 213.174 20.4992 216.003 27.631 216H138.231C141.765 216 145.264 215.304 148.529 213.952C151.794 212.599 154.76 210.617 157.259 208.118C159.758 205.619 161.74 202.653 163.093 199.388C164.445 196.123 165.141 192.624 165.141 189.09V49.24H140.381Z" fill="#FF3E4C"/>
</g>
<path id="Vector_2" d="M165.142 49.24H140.382C134.915 49.2347 129.673 47.0606 125.807 43.1947C121.941 39.3288 119.767 34.0871 119.762 28.62V0L165.142 49.24Z" fill="#FF3E4C"/>
<path id="Vector_3" d="M184.662 170.6H59.6224C50.7527 170.6 43.5625 177.79 43.5625 186.66V223.94C43.5625 232.81 50.7527 240 59.6224 240H184.662C193.532 240 200.722 232.81 200.722 223.94V186.66C200.722 177.79 193.532 170.6 184.662 170.6Z" fill="#FF3E4C"/>
<path id="Vector_4" d="M88.0903 213.37V220.64H80.5703V213.37H88.0903Z" fill="white"/>
<path id="Vector_5" d="M111.493 190.57V196.36H99.1528V203H108.683V208.53H99.1528V220.69H91.8828V190.62L111.493 190.57Z" fill="white"/>
<path id="Vector_6" d="M122.499 215.07H132.199V220.64H115.199V190.57H122.469L122.499 215.07Z" fill="white"/>
<path id="Vector_7" d="M141.171 190.57L148.531 213.2L155.891 190.57H163.671L153.211 220.64H143.811L133.391 190.57H141.171Z" fill="white"/>
<path id="Vector_8" d="M120.161 131.91V84.1999C120.161 83.9686 120.141 83.7377 120.101 83.5099C120.097 83.4433 120.097 83.3766 120.101 83.3099C120.101 83.1499 120.011 82.9999 119.961 82.8499L119.871 82.65C119.802 82.5057 119.725 82.3654 119.641 82.2299C119.613 82.1731 119.58 82.1194 119.541 82.0699C119.418 81.889 119.281 81.7184 119.131 81.5599L119.051 81.4999C118.919 81.3668 118.775 81.2463 118.621 81.1399L118.451 81.03C118.321 80.95 118.181 80.8799 118.041 80.8099L117.841 80.7199C117.681 80.6595 117.517 80.6094 117.351 80.5699H117.191C116.964 80.521 116.733 80.4975 116.501 80.4999H49.1007C48.1749 80.5847 47.3142 81.012 46.6871 81.6983C46.06 82.3846 45.7118 83.2803 45.7107 84.21C45.7058 84.2665 45.7058 84.3234 45.7107 84.3799V132.06C45.6865 132.674 45.8815 133.276 46.2607 133.76C46.5895 134.313 47.0563 134.772 47.6154 135.091C48.1746 135.41 48.8069 135.579 49.4506 135.58H116.451C117.425 135.57 118.356 135.181 119.049 134.496C119.741 133.811 120.14 132.884 120.161 131.91ZM49.6707 89.4799V82.2399H55.5607V89.4799H49.6707ZM59.6107 89.4799V82.2399H65.5007V89.4799H59.6107ZM69.5507 89.4799V82.2399H75.4406V89.4799H69.5507ZM79.4907 89.4799V82.2399H85.3807V89.4799H79.4907ZM89.4307 89.4799V82.2399H95.3206V89.4799H89.4307ZM99.3607 89.4799V82.2399H105.251V89.4799H99.3607ZM109.301 89.4799V82.2399H115.191V89.4799H109.301ZM48.3007 124.59V91.4399H117.521V124.59H48.3007ZM49.6507 133.78V126.54H55.5407V133.78H49.6507ZM59.5907 133.78V126.54H65.4807V133.78H59.5907ZM69.5307 133.78V126.54H75.4207V133.78H69.5307ZM79.4707 133.78V126.54H85.3607V133.78H79.4707ZM89.4107 133.78V126.54H95.3007V133.78H89.4107ZM99.3407 133.78V126.54H105.231V133.78H99.3407ZM109.281 133.78V126.54H115.171V133.78H109.281Z" fill="#FF3E4C"/>
<path id="Vector_9" d="M90.9404 105.56L81.3705 100.03C80.8751 99.744 80.3133 99.5934 79.7413 99.5933C79.1694 99.5931 78.6074 99.7434 78.1119 100.029C77.6165 100.315 77.2048 100.726 76.9185 101.221C76.6321 101.716 76.481 102.278 76.4805 102.85V113.91C76.481 114.482 76.6321 115.044 76.9185 115.539C77.2048 116.034 77.6165 116.445 78.1119 116.731C78.6074 117.017 79.1694 117.167 79.7413 117.167C80.3133 117.167 80.8751 117.016 81.3705 116.73L90.9404 111.2C91.4345 110.913 91.8447 110.502 92.1298 110.007C92.4148 109.512 92.5649 108.951 92.5649 108.38C92.5649 107.809 92.4148 107.248 92.1298 106.753C91.8447 106.258 91.4345 105.847 90.9404 105.56Z" fill="#FF3E4C"/>
</g>
</svg>
