<svg width="200" height="240" viewBox="0 0 200 240" fill="none" xmlns="http://www.w3.org/2000/svg">
<g id="HTML">
<g id="Group" opacity="0.3">
<path id="Vector" opacity="0.3" d="M139.67 49.24C134.203 49.2347 128.961 47.0606 125.095 43.1947C121.229 39.3288 119.055 34.0871 119.05 28.62V0H26.9099C19.7747 -4.92665e-07 12.9316 2.83379 7.88525 7.87823C2.83894 12.9227 0.00265152 19.7648 0 26.9V189.12C0.0079507 196.252 2.84659 203.089 7.89233 208.129C12.9381 213.169 19.7781 216 26.9099 216H137.51C141.045 216.001 144.545 215.306 147.811 213.954C151.077 212.603 154.045 210.621 156.545 208.122C159.045 205.623 161.028 202.656 162.381 199.39C163.734 196.125 164.43 192.625 164.43 189.09V49.24H139.67Z" fill="#016E2D"/>
</g>
<path id="Vector_2" d="M164.431 49.24H139.671C134.204 49.2347 128.962 47.0606 125.096 43.1947C121.23 39.3288 119.056 34.0871 119.051 28.62V0L164.431 49.24Z" fill="#016E2D"/>
<path id="Vector_3" d="M183.94 170.6H58.8997C50.03 170.6 42.8398 177.79 42.8398 186.66V223.94C42.8398 232.81 50.03 240 58.8997 240H183.94C192.809 240 200 232.81 200 223.94V186.66C200 177.79 192.809 170.6 183.94 170.6Z" fill="#016E2D"/>
<path id="Vector_4" d="M67.9988 213.37V220.64H60.4688V213.37H67.9988Z" fill="white"/>
<path id="Vector_5" d="M97.8181 190.57V220.64H90.498V208.09H79.0981V220.64H71.8281V190.57H79.0981V202.22H90.498V190.57H97.8181Z" fill="white"/>
<path id="Vector_6" d="M124.442 190.57V196.35H116.282V220.64H109.002V196.35H100.922V190.57H124.442Z" fill="white"/>
<path id="Vector_7" d="M161.321 190.78V220.64H154.001V202L147.541 220.67H141.241L134.741 201.96V220.67H127.461V190.81H136.351L144.481 211.61L152.431 190.81L161.321 190.78Z" fill="white"/>
<path id="Vector_8" d="M173.609 215.07H183.309V220.64H166.309V190.57H173.589L173.609 215.07Z" fill="white"/>
<path id="Vector_9" d="M41.6413 114.19C41.6303 113.759 41.7642 113.336 42.0214 112.99C42.3247 112.6 42.6896 112.262 43.1015 111.99C43.7244 111.665 44.3693 111.385 45.0314 111.15L46.9613 110.35L54.6813 107.1C55.7546 106.6 57.7546 105.767 60.6813 104.6L64.3515 103.1L65.6713 102.63L65.9013 102.53C65.9638 102.516 66.0289 102.516 66.0914 102.53C66.2392 102.464 66.3994 102.429 66.5614 102.43C66.8711 102.414 67.1807 102.46 67.4726 102.564C67.7644 102.669 68.0326 102.831 68.2614 103.04C68.4522 103.224 68.6044 103.445 68.7091 103.689C68.8139 103.932 68.8691 104.195 68.8715 104.46V107C68.8625 107.473 68.7126 107.932 68.4413 108.32C68.1692 108.757 67.7567 109.088 67.2714 109.26L51.5014 115.71L67.2714 122.16C67.7396 122.351 68.1448 122.67 68.4413 123.08C68.7231 123.451 68.8744 123.904 68.8715 124.37V126.91C68.8653 127.451 68.6461 127.969 68.2614 128.35C68.0365 128.566 67.7694 128.734 67.4769 128.842C67.1845 128.95 66.8729 128.997 66.5614 128.98C66.4006 128.979 66.2413 128.949 66.0914 128.89L65.6713 128.75L64.3515 128.28L60.6813 126.77L54.6813 124.28L46.9613 121.03L45.0314 120.23C44.4014 119.98 43.7615 119.7 43.1015 119.38C42.6907 119.189 42.3385 118.892 42.0817 118.519C41.8249 118.147 41.6726 117.712 41.6413 117.26V114.19Z" fill="#016E2D"/>
<path id="Vector_10" d="M73.2202 131.7C72.5968 131.722 71.9876 131.511 71.5103 131.11C71.2978 130.945 71.1254 130.735 71.0059 130.494C70.8864 130.253 70.8229 129.989 70.8203 129.72C70.8203 129.34 71.9502 126.72 74.2102 121.72L77.5103 114.47L78.2102 112.96L83.5303 101.15L85.4102 97.06L85.7903 96.12C85.936 95.773 86.11 95.4385 86.3103 95.12C86.5742 94.6869 86.9484 94.3318 87.3948 94.0911C87.8411 93.8504 88.3435 93.7326 88.8503 93.75H91.2002C91.8266 93.7286 92.4388 93.9386 92.9202 94.34C93.1308 94.5055 93.3014 94.7165 93.4192 94.9572C93.5369 95.1979 93.5989 95.462 93.6003 95.73C92.7998 98.0618 91.858 100.343 90.7803 102.56L90.2603 103.69L86.2603 112.44L80.9402 124.25L79.0603 128.35L78.6802 129.29C78.5457 129.666 78.3749 130.027 78.1702 130.37C77.8868 130.796 77.5016 131.145 77.0493 131.384C76.597 131.623 76.092 131.746 75.5803 131.74L73.2202 131.7Z" fill="#016E2D"/>
<path id="Vector_11" d="M97.9281 129C97.6104 129.02 97.2919 128.974 96.9925 128.866C96.6932 128.758 96.4194 128.589 96.1881 128.37C95.9949 128.183 95.8415 127.959 95.7367 127.712C95.6319 127.465 95.578 127.199 95.5782 126.93V124.39C95.5737 123.929 95.7135 123.478 95.9781 123.1C96.2773 122.68 96.6952 122.36 97.1781 122.18L112.988 115.73L97.1781 109.28C96.6966 109.067 96.2869 108.72 95.9982 108.28C95.7325 107.898 95.5864 107.445 95.5782 106.98V104.4C95.5785 104.132 95.6345 103.868 95.743 103.623C95.8515 103.379 96.01 103.16 96.2081 102.98C96.6799 102.56 97.2971 102.341 97.9281 102.37C98.0776 102.366 98.2258 102.401 98.3583 102.47C98.4443 102.455 98.5323 102.455 98.6183 102.47L98.8282 102.57C98.7582 102.57 99.1883 102.69 100.098 103.04L103.818 104.54C103.625 104.453 105.625 105.287 109.818 107.04C112.105 107.98 114.725 109.093 117.678 110.38C117.868 110.44 118.118 110.54 118.438 110.66L119.518 111.09C120.152 111.316 120.764 111.597 121.348 111.93C121.77 112.12 122.13 112.423 122.388 112.807C122.646 113.19 122.791 113.638 122.808 114.1V117.2C122.804 117.626 122.664 118.039 122.408 118.38C122.131 118.77 121.769 119.092 121.348 119.32C120.788 119.6 120.108 119.9 119.348 120.22L117.348 121.02L99.9281 128.31C99.4281 128.56 99.1282 128.72 99.0382 128.78L98.8483 128.92L97.9281 129Z" fill="#016E2D"/>
</g>
</svg>
