<svg width="201" height="240" viewBox="0 0 201 240" fill="none" xmlns="http://www.w3.org/2000/svg">
<g id="ISO">
<g id="Group" opacity="0.3">
<path id="Vector" opacity="0.3" d="M140.381 49.25C134.913 49.2421 129.671 47.0657 125.806 43.1982C121.94 39.3308 119.766 34.0881 119.761 28.62V1.85821e-06H27.631C24.0963 -0.00131167 20.5959 0.693768 17.3298 2.04553C14.0638 3.3973 11.0962 5.37922 8.59631 7.87818C6.09643 10.3771 4.11336 13.3441 2.76038 16.6096C1.4074 19.8751 0.710937 23.3753 0.710938 26.91V189.13C0.710937 192.665 1.4074 196.165 2.76038 199.43C4.11336 202.696 6.09643 205.663 8.59631 208.162C11.0962 210.661 14.0638 212.643 17.3298 213.995C20.5959 215.346 24.0963 216.041 27.631 216.04H138.231C141.765 216.04 145.264 215.344 148.529 213.992C151.794 212.639 154.76 210.657 157.259 208.158C159.758 205.659 161.74 202.693 163.093 199.428C164.445 196.163 165.141 192.664 165.141 189.13V49.25H140.381Z" fill="#0072FF"/>
</g>
<path id="Vector_2" d="M165.142 49.25H140.382C134.914 49.2421 129.672 47.0657 125.806 43.1982C121.941 39.3308 119.767 34.0881 119.762 28.62V0L165.142 49.25Z" fill="#0072FF"/>
<path id="Vector_3" d="M184.662 170.61H59.6224C50.7527 170.61 43.5625 177.8 43.5625 186.67V223.95C43.5625 232.82 50.7527 240.01 59.6224 240.01H184.662C193.532 240.01 200.722 232.82 200.722 223.95V186.67C200.722 177.8 193.532 170.61 184.662 170.61Z" fill="#0072FF"/>
<path id="Vector_4" d="M89.6511 213.38V220.65H82.1211V213.38H89.6511Z" fill="white"/>
<path id="Vector_5" d="M100.7 190.58V220.65H93.4297V190.58H100.7Z" fill="white"/>
<path id="Vector_6" d="M126.123 216.57C125.256 217.951 124.014 219.058 122.543 219.76C120.755 220.598 118.796 221.006 116.823 220.95C113.849 221.068 110.921 220.199 108.493 218.48C107.415 217.676 106.534 216.638 105.914 215.445C105.294 214.252 104.951 212.934 104.913 211.59H112.663C112.711 212.604 113.144 213.563 113.873 214.27C114.593 214.941 115.549 215.301 116.533 215.27C117.342 215.312 118.135 215.036 118.743 214.5C119.009 214.241 119.219 213.93 119.359 213.585C119.498 213.241 119.564 212.871 119.553 212.5C119.563 212.147 119.502 211.796 119.373 211.468C119.244 211.14 119.05 210.841 118.803 210.59C118.273 210.054 117.645 209.626 116.953 209.33C116.213 209.01 115.193 208.62 113.893 208.16C112.299 207.635 110.742 207.003 109.233 206.27C107.994 205.628 106.93 204.694 106.133 203.55C105.211 202.161 104.756 200.515 104.833 198.85C104.79 197.199 105.266 195.577 106.193 194.21C107.142 192.875 108.449 191.836 109.963 191.21C111.708 190.504 113.58 190.163 115.463 190.21C118.325 190.05 121.153 190.891 123.463 192.59C124.444 193.39 125.248 194.385 125.823 195.513C126.398 196.641 126.732 197.876 126.803 199.14H118.933C118.842 198.254 118.458 197.423 117.843 196.78C117.529 196.482 117.158 196.251 116.752 196.102C116.346 195.952 115.914 195.887 115.483 195.91C114.735 195.872 114 196.114 113.423 196.59C113.151 196.844 112.939 197.155 112.802 197.501C112.666 197.847 112.608 198.219 112.633 198.59C112.621 199.263 112.876 199.914 113.343 200.4C113.841 200.919 114.44 201.33 115.103 201.61C115.813 201.92 116.833 202.32 118.163 202.8C119.784 203.324 121.362 203.972 122.883 204.74C124.138 205.403 125.218 206.356 126.033 207.52C126.964 208.928 127.426 210.594 127.353 212.28C127.341 213.795 126.916 215.279 126.123 216.57Z" fill="white"/>
<path id="Vector_7" d="M153.379 192.09C155.664 193.389 157.555 195.283 158.849 197.57C160.202 199.995 160.892 202.734 160.849 205.51C160.904 208.307 160.214 211.068 158.849 213.51C157.551 215.809 155.654 217.714 153.359 219.02C151.021 220.355 148.371 221.045 145.679 221.02C142.987 221.044 140.337 220.354 137.999 219.02C135.705 217.716 133.81 215.811 132.519 213.51C131.15 211.07 130.46 208.307 130.519 205.51C130.467 202.733 131.157 199.991 132.519 197.57C133.817 195.282 135.711 193.388 137.999 192.09C140.337 190.756 142.987 190.066 145.679 190.09C148.378 190.065 151.034 190.755 153.379 192.09ZM139.979 199.19C138.503 200.954 137.752 203.213 137.879 205.51C137.76 207.797 138.51 210.044 139.979 211.8C140.698 212.581 141.579 213.195 142.56 213.599C143.541 214.004 144.599 214.188 145.659 214.14C146.716 214.184 147.769 213.997 148.747 213.593C149.724 213.189 150.602 212.577 151.319 211.8C152.801 210.05 153.56 207.8 153.439 205.51C153.56 203.22 152.809 200.97 151.339 199.21C150.621 198.429 149.74 197.814 148.759 197.41C147.777 197.005 146.719 196.821 145.659 196.87C144.604 196.826 143.552 197.011 142.576 197.411C141.599 197.812 140.72 198.419 139.999 199.19H139.979Z" fill="white"/>
<path id="Vector_8" d="M79.2123 145.6C69.7844 145.589 60.7458 141.839 54.0793 135.173C47.4128 128.506 43.6629 119.468 43.6523 110.04C43.6629 100.612 47.4128 91.5735 54.0793 84.907C60.7458 78.2405 69.7844 74.4906 79.2123 74.48C88.6401 74.4906 97.6788 78.2405 104.345 84.907C111.012 91.5735 114.762 100.612 114.772 110.04C114.762 119.468 111.012 128.506 104.345 135.173C97.6788 141.839 88.6401 145.589 79.2123 145.6ZM79.2123 76.6C70.3565 76.6079 61.8658 80.1294 55.6038 86.3914C49.3418 92.6534 45.8203 101.144 45.8124 110C45.823 118.855 49.3453 127.344 55.6067 133.606C61.8681 139.867 70.3573 143.389 79.2123 143.4C88.0673 143.389 96.5566 139.867 102.818 133.606C109.079 127.344 112.602 118.855 112.612 110C112.594 101.151 109.068 92.6706 102.807 86.4172C96.5459 80.1639 88.0612 76.6479 79.2123 76.64V76.6Z" fill="#0072FF"/>
<path id="Vector_9" d="M79.261 75.3699V103.65C77.568 103.653 75.9452 104.327 74.749 105.525C73.5528 106.723 72.881 108.347 72.881 110.04C72.8814 111.152 73.1708 112.244 73.721 113.21L49.351 127.28L48.811 126.28C46.1159 121.255 44.7072 115.642 44.7109 109.94C44.7109 109.66 44.7109 109.4 44.7109 109.14C44.8331 103.233 46.476 97.457 49.481 92.3699C52.471 87.3134 56.692 83.0957 61.751 80.1099C66.8369 77.1107 72.608 75.4682 78.511 75.3398L79.261 75.3699Z" fill="#0072FF"/>
<path id="Vector_10" d="M113.862 110C113.866 115.959 112.322 121.817 109.382 127C106.297 132.463 101.782 136.981 96.3217 140.07C91.1247 143.032 85.2435 144.583 79.2617 144.57V116.42C80.9443 116.404 82.5528 115.725 83.7379 114.531C84.923 113.336 85.5891 111.723 85.5917 110.04C85.5969 108.911 85.2963 107.802 84.7217 106.83L109.232 92.6699C112.138 97.6962 113.727 103.375 113.852 109.18C113.862 109.44 113.862 109.7 113.862 110Z" fill="#0072FF"/>
<path id="Vector_11" d="M79.2115 114.4C78.0552 114.4 76.9463 113.94 76.1287 113.123C75.311 112.305 74.8516 111.196 74.8516 110.04C74.8516 108.883 75.3107 107.773 76.1281 106.953C76.9454 106.134 78.0543 105.673 79.2115 105.67C80.3688 105.673 81.4778 106.134 82.2952 106.953C83.1125 107.773 83.5715 108.883 83.5715 110.04C83.5715 111.196 83.1122 112.305 82.2946 113.123C81.4769 113.94 80.3679 114.4 79.2115 114.4ZM79.2115 107.84C78.6281 107.84 78.0686 108.072 77.656 108.484C77.2434 108.897 77.0116 109.456 77.0116 110.04C77.0142 110.623 77.2468 111.181 77.6588 111.593C78.0708 112.005 78.6289 112.237 79.2115 112.24C79.7942 112.237 80.3523 112.005 80.7643 111.593C81.1763 111.181 81.409 110.623 81.4116 110.04C81.4116 109.751 81.3547 109.465 81.2441 109.198C81.1336 108.931 80.9715 108.689 80.7672 108.484C80.5629 108.28 80.3204 108.118 80.0535 108.007C79.7866 107.897 79.5005 107.84 79.2115 107.84Z" fill="#0072FF"/>
</g>
</svg>
