<svg width="201" height="240" viewBox="0 0 201 240" fill="none" xmlns="http://www.w3.org/2000/svg">
<g id="JAVA">
<g id="Group" opacity="0.3">
<path id="Vector" opacity="0.3" d="M139.999 49.24C134.531 49.2347 129.288 47.0609 125.421 43.1953C121.553 39.3297 119.377 34.0881 119.369 28.62V0H27.199C20.062 0 13.2174 2.83514 8.17078 7.88174C3.12417 12.9283 0.289062 19.773 0.289062 26.91V189.13C0.299661 196.26 3.13948 203.094 8.18494 208.132C13.2304 213.17 20.0689 216 27.199 216H137.799C144.936 216 151.781 213.165 156.827 208.118C161.874 203.072 164.709 196.227 164.709 189.09V49.24H139.999Z" fill="#FF3E4C"/>
</g>
<path id="Vector_2" d="M164.707 49.24H139.997C134.529 49.2347 129.286 47.0609 125.419 43.1953C121.552 39.3297 119.375 34.0881 119.367 28.62V0L164.707 49.24Z" fill="#FF3E4C"/>
<path id="Vector_3" d="M184.229 170.6H59.1888C50.3191 170.6 43.1289 177.79 43.1289 186.66V223.94C43.1289 232.81 50.3191 240 59.1888 240H184.229C193.099 240 200.289 232.81 200.289 223.94V186.66C200.289 177.79 193.099 170.6 184.229 170.6Z" fill="#FF3E4C"/>
<path id="Vector_4" d="M66.9988 213.37V220.64H59.4688V213.37H66.9988Z" fill="white"/>
<path id="Vector_5" d="M89.3107 190.57V211.11C89.3107 214.26 88.4506 216.68 86.7306 218.39C85.776 219.272 84.6536 219.952 83.4303 220.39C82.207 220.828 80.9078 221.015 79.6106 220.94C78.1859 221.015 76.7606 220.807 75.4167 220.328C74.0729 219.849 72.8371 219.109 71.7806 218.15C69.8506 216.3 68.8906 213.62 68.8906 210.15H76.0806C76.0806 212.963 77.144 214.37 79.2706 214.37C81.1106 214.37 82.0306 213.29 82.0306 211.13V190.59L89.3107 190.57Z" fill="white"/>
<path id="Vector_6" d="M112.738 215.15H101.468L99.5975 220.64H91.9375L102.938 190.78H111.318L122.318 220.64H114.578L112.738 215.15ZM110.868 209.62L107.128 198.57L103.338 209.62H110.868Z" fill="white"/>
<path id="Vector_7" d="M130.78 190.57L138.13 213.2L145.49 190.57H153.28L142.81 220.64H133.41L123 190.57H130.78Z" fill="white"/>
<path id="Vector_8" d="M174.71 215.15H163.44L161.57 220.64H153.91L164.91 190.78H173.29L184.29 220.64H176.55L174.71 215.15ZM172.84 209.62L169.1 198.57L165.31 209.62H172.84Z" fill="white"/>
<path id="Vector_9" d="M67.3995 154.14H65.1895C60.0895 154.14 56.0262 152.643 52.9995 149.65C49.9728 146.657 48.4628 142.613 48.4695 137.52V121.2C48.4695 114.96 45.9862 111.84 41.0195 111.84V104.18C45.9862 104.18 48.4695 101.06 48.4695 94.8199V78.4999C48.4695 73.3999 49.9795 69.3532 52.9995 66.3599C56.0195 63.3666 60.0828 61.8732 65.1895 61.8799H67.3995V69.5399H65.8895C59.8895 69.5399 56.8895 72.9299 56.8895 79.7099V96.4299C56.8162 102.43 54.4829 106.223 49.8895 107.81V108.21C54.3895 109.69 56.7229 113.383 56.8895 119.29V136.29C56.8895 143.07 59.8895 146.46 65.8895 146.46H67.3995V154.14Z" fill="#FF3E4C"/>
<path id="Vector_10" d="M97.5898 154.14V146.48H99.0999C105.1 146.48 108.1 143.09 108.1 136.31V119.31C108.233 113.397 110.567 109.703 115.1 108.23V107.83C110.527 106.217 108.193 102.423 108.1 96.4499V79.7299C108.1 72.9499 105.1 69.5599 99.0999 69.5599H97.5898V61.8999H99.8099C104.91 61.8999 108.97 63.3932 111.99 66.3799C115.01 69.3666 116.523 73.4132 116.53 78.5199V94.8399C116.53 101.08 119.013 104.2 123.98 104.2V111.86C119.013 111.86 116.53 114.98 116.53 121.22V137.54C116.53 142.64 115.017 146.683 111.99 149.67C108.963 152.657 104.903 154.153 99.8099 154.16L97.5898 154.14Z" fill="#FF3E4C"/>
<path id="Vector_11" d="M81.6691 86.1699C85.3307 86.1699 88.2991 83.2017 88.2991 79.54C88.2991 75.8784 85.3307 72.9099 81.6691 72.9099C78.0074 72.9099 75.0391 75.8784 75.0391 79.54C75.0391 83.2017 78.0074 86.1699 81.6691 86.1699Z" fill="#FF3E4C"/>
<path id="Vector_12" d="M81.6691 114.64C85.3307 114.64 88.2991 111.672 88.2991 108.01C88.2991 104.348 85.3307 101.38 81.6691 101.38C78.0074 101.38 75.0391 104.348 75.0391 108.01C75.0391 111.672 78.0074 114.64 81.6691 114.64Z" fill="#FF3E4C"/>
<path id="Vector_13" d="M81.6691 143.11C85.3307 143.11 88.2991 140.142 88.2991 136.48C88.2991 132.818 85.3307 129.85 81.6691 129.85C78.0074 129.85 75.0391 132.818 75.0391 136.48C75.0391 140.142 78.0074 143.11 81.6691 143.11Z" fill="#FF3E4C"/>
</g>
</svg>
