<svg width="201" height="240" viewBox="0 0 201 240" fill="none" xmlns="http://www.w3.org/2000/svg">
<g id="JPG">
<g id="Group" opacity="0.3">
<path id="Vector" opacity="0.3" d="M140.1 49.24C134.632 49.2373 129.389 47.0641 125.522 43.1976C121.656 39.3312 119.482 34.0879 119.48 28.62V0H27.3398C23.8051 -2.4406e-07 20.3051 0.696337 17.0396 2.04932C13.774 3.4023 10.8068 5.38537 8.30786 7.88525C5.80891 10.3851 3.82711 13.3529 2.47534 16.6189C1.12358 19.8849 0.428376 23.3853 0.429689 26.92V189.13C0.428376 192.665 1.12358 196.165 2.47534 199.431C3.82711 202.697 5.80891 205.665 8.30786 208.165C10.8068 210.665 13.774 212.648 17.0396 214.001C20.3051 215.354 23.8051 216.05 27.3398 216.05H137.94C141.474 216.05 144.974 215.354 148.24 214.001C151.506 212.648 154.472 210.665 156.971 208.165C159.47 205.665 161.452 202.697 162.804 199.431C164.156 196.165 164.851 192.665 164.85 189.13V49.25L140.1 49.24Z" fill="#016E2D"/>
</g>
<path id="Vector_2" d="M164.851 49.24H140.101C134.633 49.2373 129.389 47.0641 125.523 43.1976C121.657 39.3312 119.483 34.0879 119.48 28.62V0L164.851 49.24Z" fill="#016E2D"/>
<path id="Vector_3" d="M184.37 170.6H59.3296C50.4599 170.6 43.2695 177.79 43.2695 186.66V223.94C43.2695 232.81 50.4599 240 59.3296 240H184.37C193.239 240 200.429 232.81 200.429 223.94V186.66C200.429 177.79 193.239 170.6 184.37 170.6Z" fill="#016E2D"/>
<path id="Vector_4" d="M84.6509 213.37V220.65H77.1211V213.37H84.6509Z" fill="white"/>
<path id="Vector_5" d="M106.998 190.58V211.12C106.998 214.273 106.141 216.697 104.428 218.39C103.472 219.272 102.348 219.952 101.123 220.39C99.8976 220.828 98.5969 221.015 97.2981 220.94C95.8756 221.016 94.4521 220.81 93.1099 220.333C91.7676 219.856 90.5332 219.117 89.478 218.16C87.5514 216.3 86.5848 213.633 86.5781 210.16H93.7681C93.7681 212.97 94.838 214.37 96.958 214.37C98.808 214.37 99.728 213.29 99.728 211.14V190.6L106.998 190.58Z" fill="white"/>
<path id="Vector_6" d="M119.059 210.1V220.65H111.789V190.58H123.569C127.136 190.58 129.856 191.463 131.729 193.23C132.677 194.159 133.418 195.278 133.902 196.514C134.386 197.75 134.603 199.074 134.539 200.4C134.566 202.147 134.135 203.871 133.289 205.4C132.418 206.891 131.123 208.088 129.569 208.84C127.697 209.729 125.641 210.161 123.569 210.1H119.059ZM127.139 200.4C127.139 197.733 125.679 196.4 122.759 196.4H119.059V204.23H122.759C125.679 204.257 127.139 202.98 127.139 200.4Z" fill="white"/>
<path id="Vector_7" d="M161.51 193C163.931 194.821 165.56 197.502 166.06 200.49H158.36C157.839 199.444 157.017 198.577 156 198C154.855 197.32 153.542 196.973 152.21 197C151.176 196.958 150.145 197.144 149.191 197.545C148.237 197.946 147.383 198.552 146.69 199.32C145.223 201.069 144.476 203.311 144.6 205.59C144.6 208.45 145.33 210.647 146.79 212.18C147.611 212.976 148.589 213.592 149.662 213.988C150.735 214.384 151.879 214.552 153.02 214.48C154.652 214.51 156.249 214.008 157.57 213.05C158.919 212.043 159.894 210.614 160.34 208.99H151.15V203.76H166.42V210.95C165.837 212.74 164.913 214.4 163.7 215.84C162.386 217.392 160.752 218.64 158.91 219.5C156.827 220.462 154.554 220.941 152.26 220.9C149.47 220.973 146.71 220.307 144.26 218.97C142.019 217.71 140.194 215.823 139.01 213.54C137.738 211.069 137.102 208.319 137.16 205.54C137.11 202.778 137.746 200.046 139.01 197.59C140.192 195.313 142.009 193.427 144.24 192.16C146.654 190.833 149.376 190.167 152.13 190.23C155.478 190.084 158.779 191.059 161.51 193Z" fill="white"/>
<path id="Vector_8" d="M104.73 146.41H60.5601C56.236 146.405 52.0905 144.685 49.033 141.627C45.9754 138.57 44.2553 134.424 44.25 130.1V85.9302C44.2553 81.6061 45.9754 77.4606 49.033 74.4031C52.0905 71.3455 56.236 69.6254 60.5601 69.6201H104.73C109.053 69.6254 113.197 71.3458 116.253 74.4037C119.309 77.4615 121.027 81.607 121.03 85.9302V130.1C121.027 134.423 119.309 138.569 116.253 141.627C113.197 144.684 109.053 146.405 104.73 146.41ZM60.5601 76.8301C58.1474 76.8327 55.8342 77.7924 54.1282 79.4984C52.4222 81.2044 51.4626 83.5175 51.46 85.9302V130.1C51.4626 132.513 52.4222 134.826 54.1282 136.532C55.8342 138.238 58.1474 139.197 60.5601 139.2H104.73C107.142 139.197 109.454 138.238 111.158 136.531C112.863 134.825 113.82 132.512 113.82 130.1V85.9302C113.82 83.5184 112.863 81.2053 111.158 79.499C109.454 77.7927 107.142 76.8327 104.73 76.8301H60.5601Z" fill="#016E2D"/>
<path id="Vector_9" d="M117.429 121.7V130.1C117.427 133.467 116.088 136.696 113.707 139.077C111.325 141.458 108.097 142.797 104.729 142.8H60.5593C57.1911 142.8 53.9608 141.462 51.5791 139.08C49.1974 136.698 47.8594 133.468 47.8594 130.1V116C54.9294 114.48 65.6993 114 78.7693 119.22L86.8694 111.5L92.3892 125.5C92.3892 125.5 93.8692 120.35 98.6492 121.08C103.429 121.81 111.169 124.4 114.479 122.19C115.371 121.675 116.419 121.501 117.429 121.7Z" fill="#016E2D"/>
<path id="Vector_10" d="M101.961 94.9498C104.672 94.9498 106.871 92.7516 106.871 90.0399C106.871 87.3282 104.672 85.1299 101.961 85.1299C99.249 85.1299 97.0508 87.3282 97.0508 90.0399C97.0508 92.7516 99.249 94.9498 101.961 94.9498Z" fill="#016E2D"/>
</g>
</svg>
