<svg width="201" height="240" viewBox="0 0 201 240" fill="none" xmlns="http://www.w3.org/2000/svg">
<g id="MID">
<g id="Group" opacity="0.3">
<path id="Vector" opacity="0.3" d="M139.811 49.24C134.344 49.2347 129.102 47.0606 125.236 43.1947C121.37 39.3288 119.196 34.0871 119.191 28.62V1.85821e-06H27.0607C23.526 -0.00131167 20.0255 0.693768 16.7595 2.04553C13.4935 3.3973 10.5258 5.37928 8.02588 7.87824C5.526 10.3772 3.54292 13.3442 2.18994 16.6097C0.836962 19.8752 0.140625 23.3753 0.140625 26.91V189.13C0.151225 196.262 2.99242 203.098 8.04004 208.136C13.0877 213.174 19.9289 216.003 27.0607 216H137.661C144.798 216 151.642 213.165 156.689 208.118C161.735 203.072 164.571 196.227 164.571 189.09V49.24H139.811Z" fill="#005FAD"/>
</g>
<path id="Vector_2" d="M164.571 49.24H139.812C134.344 49.2347 129.103 47.0606 125.237 43.1947C121.371 39.3288 119.197 34.0871 119.191 28.62V0L164.571 49.24Z" fill="#005FAD"/>
<path id="Vector_3" d="M184.092 170.6H59.0522C50.1825 170.6 42.9922 177.79 42.9922 186.66V223.94C42.9922 232.81 50.1825 240 59.0522 240H184.092C192.962 240 200.152 232.81 200.152 223.94V186.66C200.152 177.79 192.962 170.6 184.092 170.6Z" fill="#005FAD"/>
<path id="Vector_4" d="M83.48 213.37V220.64H76V213.37H83.48Z" fill="white"/>
<path id="Vector_5" d="M121.079 190.78V220.64H113.799V202L107.339 220.67H100.999L94.4988 201.96V220.67H87.2188V190.81H96.1088L104.239 211.61L112.239 190.81L121.079 190.78Z" fill="white"/>
<path id="Vector_6" d="M133.372 190.57V220.64H126.102V190.57H133.372Z" fill="white"/>
<path id="Vector_7" d="M163.541 213.39C162.289 215.664 160.397 217.52 158.101 218.73C155.516 220.053 152.643 220.71 149.741 220.64H138.391V190.57H149.741C152.645 190.492 155.524 191.134 158.121 192.44C160.411 193.624 162.297 195.462 163.541 197.72C164.843 200.117 165.497 202.813 165.441 205.54C165.495 208.277 164.84 210.981 163.541 213.39ZM155.721 211.88C156.533 211.046 157.163 210.051 157.57 208.959C157.976 207.867 158.15 206.703 158.081 205.54C158.149 204.377 157.975 203.213 157.569 202.121C157.163 201.03 156.533 200.035 155.721 199.2C153.895 197.61 151.517 196.802 149.101 196.95H145.661V214.13H149.101C151.517 214.278 153.895 213.47 155.721 211.88Z" fill="white"/>
<path id="Vector_8" d="M120.37 131.92H109.421V87.6601C109.421 86.1775 108.832 84.7557 107.783 83.7074C106.735 82.659 105.313 82.0701 103.83 82.0701H75.8304C74.347 82.0701 72.9242 82.6587 71.8743 83.7068C70.8244 84.7548 70.2331 86.1766 70.2305 87.6601V131.92H59.2305V83.9201C59.2331 80.5191 60.586 77.2583 62.9918 74.8544C65.3976 72.4504 68.6596 71.1001 72.0605 71.1001H107.47C110.871 71.1001 114.131 72.4508 116.536 74.855C118.94 77.2592 120.291 80.52 120.291 83.9201L120.37 131.92Z" fill="#005FAD"/>
<path id="Vector_9" d="M107.39 144.9C114.559 144.9 120.37 139.089 120.37 131.92C120.37 124.751 114.559 118.94 107.39 118.94C100.222 118.94 94.4102 124.751 94.4102 131.92C94.4102 139.089 100.222 144.9 107.39 144.9Z" fill="#005FAD"/>
<path id="Vector_10" d="M57.3198 144.9C64.4885 144.9 70.2998 139.089 70.2998 131.92C70.2998 124.751 64.4885 118.94 57.3198 118.94C50.1512 118.94 44.3398 124.751 44.3398 131.92C44.3398 139.089 50.1512 144.9 57.3198 144.9Z" fill="#005FAD"/>
</g>
</svg>
