<svg width="201" height="240" viewBox="0 0 201 240" fill="none" xmlns="http://www.w3.org/2000/svg">
<g id="MP3">
<g id="Group" opacity="0.3">
<path id="Vector" opacity="0.3" d="M140.24 49.24C134.773 49.2347 129.531 47.0606 125.666 43.1947C121.8 39.3288 119.626 34.0871 119.62 28.62V0H27.4803C20.3433 0 13.4987 2.83514 8.45209 7.88174C3.40548 12.9283 0.570312 19.773 0.570312 26.91V189.13C0.580911 196.26 3.42073 203.094 8.46619 208.132C13.5116 213.17 20.3502 216 27.4803 216H138.09C145.222 216 152.062 213.169 157.108 208.129C162.154 203.089 164.992 196.252 165 189.12V49.24H140.24Z" fill="#FF3E4C"/>
</g>
<path id="Vector_2" d="M165.001 49.24H140.241C134.774 49.2347 129.532 47.0606 125.666 43.1947C121.801 39.3288 119.626 34.0871 119.621 28.62V0L165.001 49.24Z" fill="#FF3E4C"/>
<path id="Vector_3" d="M184.51 170.6H59.4702C50.6005 170.6 43.4102 177.79 43.4102 186.66V223.94C43.4102 232.81 50.6005 240 59.4702 240H184.51C193.38 240 200.57 232.81 200.57 223.94V186.66C200.57 177.79 193.38 170.6 184.51 170.6Z" fill="#FF3E4C"/>
<path id="Vector_4" d="M79.2292 213.37V220.64H71.6992V213.37H79.2292Z" fill="white"/>
<path id="Vector_5" d="M116.83 190.78V220.64H109.56V202L103.09 220.67H96.8L90.29 201.96V220.67H83V190.81H91.89L100.01 211.61L108.01 190.81L116.83 190.78Z" fill="white"/>
<path id="Vector_6" d="M129.122 210.09V220.64H121.852V190.57H133.632C137.202 190.57 139.932 191.46 141.802 193.23C142.747 194.158 143.485 195.276 143.968 196.51C144.451 197.744 144.666 199.067 144.602 200.39C144.637 202.138 144.206 203.864 143.352 205.39C142.479 206.881 141.184 208.082 139.632 208.84C137.757 209.721 135.702 210.149 133.632 210.09H129.122ZM137.202 200.39C137.202 197.763 135.742 196.447 132.822 196.44H129.122V204.27H132.822C135.742 204.27 137.202 202.977 137.202 200.39Z" fill="white"/>
<path id="Vector_7" d="M163.91 190.34C165.323 190.982 166.516 192.025 167.34 193.34C168.126 194.628 168.532 196.112 168.51 197.62C168.589 199.324 168.053 200.999 167 202.34C166.04 203.502 164.709 204.297 163.23 204.59V204.81C167.123 206.05 169.067 208.473 169.06 212.08C169.089 213.696 168.677 215.29 167.87 216.69C167.051 218.061 165.843 219.157 164.4 219.84C162.691 220.632 160.823 221.019 158.94 220.97C155.48 220.97 152.73 220.12 150.71 218.42C148.69 216.72 147.58 214.12 147.41 210.63H154.51C154.502 211.777 154.894 212.892 155.62 213.78C156.004 214.182 156.472 214.493 156.991 214.692C157.51 214.891 158.066 214.972 158.62 214.93C159.076 214.955 159.532 214.884 159.959 214.722C160.386 214.56 160.775 214.311 161.1 213.99C161.408 213.669 161.649 213.29 161.807 212.874C161.965 212.458 162.037 212.015 162.02 211.57C162.02 209.097 160.233 207.863 156.66 207.87H155.3V201.96H156.62C159.82 202.007 161.42 200.857 161.42 198.51C161.45 198.081 161.391 197.65 161.249 197.244C161.106 196.839 160.882 196.466 160.59 196.15C160.295 195.867 159.944 195.647 159.561 195.505C159.177 195.362 158.769 195.299 158.36 195.32C157.907 195.293 157.454 195.369 157.035 195.542C156.616 195.715 156.242 195.981 155.94 196.32C155.311 197.116 154.96 198.096 154.94 199.11H147.83C147.813 197.751 148.07 196.402 148.585 195.145C149.101 193.887 149.864 192.746 150.83 191.79C152.67 190.09 155.25 189.24 158.57 189.24C160.41 189.201 162.235 189.577 163.91 190.34Z" fill="white"/>
<path id="Vector_8" d="M120.802 131.92H109.852V87.6601C109.852 86.1775 109.263 84.7557 108.215 83.7074C107.166 82.659 105.744 82.0701 104.262 82.0701H76.2619C75.5278 82.0701 74.8009 82.2147 74.1227 82.4956C73.4445 82.7765 72.8282 83.1883 72.3091 83.7074C71.7901 84.2264 71.3783 84.8427 71.0974 85.5209C70.8165 86.1991 70.6719 86.926 70.6719 87.6601V131.92H59.6719V83.9201C59.6719 82.2357 60.0039 80.5678 60.6487 79.0118C61.2936 77.4557 62.2388 76.042 63.4303 74.8514C64.6218 73.6609 66.0363 72.7168 67.5928 72.0731C69.1494 71.4294 70.8175 71.0988 72.5019 71.1001H108.002C111.402 71.1001 114.663 72.4508 117.067 74.855C119.471 77.2592 120.822 80.52 120.822 83.9201L120.802 131.92Z" fill="#FF3E4C"/>
<path id="Vector_9" d="M107.82 144.9C114.988 144.9 120.8 139.089 120.8 131.92C120.8 124.751 114.988 118.94 107.82 118.94C100.651 118.94 94.8398 124.751 94.8398 131.92C94.8398 139.089 100.651 144.9 107.82 144.9Z" fill="#FF3E4C"/>
<path id="Vector_10" d="M57.7495 144.9C64.9182 144.9 70.7296 139.089 70.7296 131.92C70.7296 124.751 64.9182 118.94 57.7495 118.94C50.5809 118.94 44.7695 124.751 44.7695 131.92C44.7695 139.089 50.5809 144.9 57.7495 144.9Z" fill="#FF3E4C"/>
</g>
</svg>
