<svg width="200" height="240" viewBox="0 0 200 240" fill="none" xmlns="http://www.w3.org/2000/svg">
<g id="MP4">
<g id="Group" opacity="0.3">
<path id="Vector" opacity="0.3" d="M139.67 49.24C134.203 49.2347 128.961 47.0606 125.095 43.1947C121.229 39.3288 119.055 34.0871 119.05 28.62V0H26.9099C19.7747 -4.92665e-07 12.9316 2.83379 7.88525 7.87823C2.83894 12.9227 0.00265152 19.7648 0 26.9V189.12C0.0079507 196.252 2.84659 203.089 7.89233 208.129C12.9381 213.169 19.7781 216 26.9099 216H137.51C141.045 216.001 144.545 215.306 147.811 213.954C151.077 212.603 154.045 210.621 156.545 208.122C159.045 205.623 161.028 202.656 162.381 199.39C163.734 196.125 164.43 192.625 164.43 189.09V49.24H139.67Z" fill="#670BC1"/>
</g>
<path id="Vector_2" d="M164.431 49.24H139.671C134.204 49.2347 128.962 47.0606 125.096 43.1947C121.23 39.3288 119.056 34.0871 119.051 28.62V0L164.431 49.24Z" fill="#670BC1"/>
<path id="Vector_3" d="M183.94 170.6H58.8997C50.03 170.6 42.8398 177.79 42.8398 186.66V223.94C42.8398 232.81 50.03 240 58.8997 240H183.94C192.809 240 200 232.81 200 223.94V186.66C200 177.79 192.809 170.6 183.94 170.6Z" fill="#670BC1"/>
<path id="Vector_4" d="M78.5886 213.37V220.64H71.0586V213.37H78.5886Z" fill="white"/>
<path id="Vector_5" d="M116.189 190.79V220.64H108.919V202L102.449 220.67H96.1589L89.6489 201.96V220.67H82.3789V190.82H91.269L99.3889 211.61L107.389 190.82L116.189 190.79Z" fill="white"/>
<path id="Vector_6" d="M128.481 210.1V220.64H121.211V190.57H133.001C136.571 190.57 139.301 191.46 141.171 193.23C142.117 194.16 142.856 195.28 143.339 196.515C143.821 197.751 144.037 199.075 143.971 200.4C144.005 202.148 143.574 203.874 142.721 205.4C141.847 206.889 140.553 208.085 139.001 208.84C137.129 209.729 135.072 210.161 133.001 210.1H128.481ZM136.561 200.4C136.561 197.733 135.101 196.4 132.181 196.4H128.481V204.23H132.181C135.101 204.257 136.561 202.98 136.561 200.4Z" fill="white"/>
<path id="Vector_7" d="M146.898 215.11V209L160.638 190.16H168.458V208.75H172.079V215.08H168.458V220.61H161.099V215.08L146.898 215.11ZM161.698 198.61L154.299 208.78H161.698V198.61Z" fill="white"/>
<path id="Vector_8" d="M119.439 131.91V84.2001C119.436 83.9684 119.413 83.7375 119.369 83.5101C119.358 83.4421 119.341 83.3751 119.319 83.3101C119.283 83.1537 119.236 83 119.179 82.85C119.153 82.7816 119.123 82.7148 119.089 82.6501C119.027 82.5041 118.954 82.3635 118.869 82.23L118.769 82.0701C118.643 81.8889 118.502 81.7184 118.349 81.5601L118.279 81.5001C118.142 81.3718 117.999 81.2516 117.849 81.1401L117.669 81.0301L117.269 80.8101L117.059 80.72C116.902 80.6595 116.742 80.6095 116.579 80.5701H116.419C116.192 80.522 115.96 80.4986 115.729 80.5001H48.3687C47.4429 80.5848 46.582 81.0122 45.9549 81.6984C45.3278 82.3847 44.9797 83.2805 44.9786 84.2101C44.9786 84.2701 44.9786 84.3201 44.9786 84.3801V132.08C44.9544 132.694 45.1494 133.297 45.5286 133.78C45.8567 134.334 46.3233 134.793 46.8826 135.112C47.4419 135.432 48.0746 135.6 48.7186 135.6H115.719C116.698 135.595 117.637 135.205 118.333 134.515C119.028 133.825 119.425 132.89 119.439 131.91ZM48.9986 89.48V82.2401H54.8885V89.48H48.9986ZM58.9385 89.48V82.2401H64.8287V89.48H58.9385ZM68.8785 89.48V82.2401H74.7686V89.48H68.8785ZM78.8186 89.48V82.2401H84.7085V89.48H78.8186ZM88.7586 89.48V82.2401H94.6485V89.48H88.7586ZM98.6985 89.48V82.2401H104.589V89.48H98.6985ZM108.638 89.48V82.2401H114.529V89.48H108.638ZM47.6385 124.59V91.4401H116.869V124.59H47.6385ZM48.9886 133.78V126.54H54.8785V133.78H48.9886ZM58.9285 133.78V126.54H64.8186V133.78H58.9285ZM68.8687 133.78V126.54H74.7586V133.78H68.8687ZM78.8086 133.78V126.54H84.6985V133.78H78.8086ZM88.7486 133.78V126.54H94.6385V133.78H88.7486ZM98.6885 133.78V126.54H104.579V133.78H98.6885ZM108.628 133.78V126.54H114.519V133.78H108.628Z" fill="#670BC1"/>
<path id="Vector_9" d="M90.2195 105.56L80.6494 100.03C80.1543 99.7466 79.5937 99.598 79.0232 99.5991C78.4527 99.6002 77.8924 99.7511 77.3984 100.037C76.9045 100.322 76.4941 100.732 76.2083 101.226C75.9224 101.72 75.7711 102.28 75.7695 102.85V113.91C75.7711 114.481 75.9224 115.041 76.2083 115.534C76.4941 116.028 76.9045 116.438 77.3984 116.724C77.8924 117.009 78.4527 117.16 79.0232 117.161C79.5937 117.162 80.1543 117.014 80.6494 116.73L90.2195 111.2C90.7135 110.914 91.1236 110.502 91.4087 110.007C91.6938 109.512 91.844 108.951 91.844 108.38C91.844 107.809 91.6938 107.248 91.4087 106.753C91.1236 106.258 90.7135 105.847 90.2195 105.56Z" fill="#670BC1"/>
</g>
</svg>
