<svg width="201" height="240" viewBox="0 0 201 240" fill="none" xmlns="http://www.w3.org/2000/svg">
<g id="MPEG">
<g id="Group" opacity="0.3">
<path id="Vector" opacity="0.3" d="M140.529 49.24C135.061 49.2347 129.818 47.0609 125.951 43.1953C122.083 39.3297 119.907 34.0881 119.899 28.62V0H27.7693C20.6323 0 13.7876 2.83517 8.74097 7.88177C3.69436 12.9284 0.859375 19.773 0.859375 26.91V189.13C0.869973 196.26 3.70967 203.094 8.75513 208.132C13.8006 213.17 20.6392 216 27.7693 216H138.369C145.506 216 152.351 213.165 157.397 208.118C162.444 203.072 165.279 196.227 165.279 189.09V49.24H140.529Z" fill="#016E2D"/>
</g>
<path id="Vector_2" d="M165.279 49.24H140.529C135.061 49.2347 129.818 47.0609 125.95 43.1953C122.083 39.3297 119.906 34.0881 119.898 28.62V0L165.279 49.24Z" fill="#016E2D"/>
<path id="Vector_3" d="M184.799 170.6H59.7593C50.8896 170.6 43.6992 177.79 43.6992 186.66V223.94C43.6992 232.81 50.8896 240 59.7593 240H184.799C193.669 240 200.859 232.81 200.859 223.94V186.66C200.859 177.79 193.669 170.6 184.799 170.6Z" fill="#016E2D"/>
<path id="Vector_4" d="M65.9207 213.37V220.64H58.3906V213.37H65.9207Z" fill="white"/>
<path id="Vector_5" d="M103.519 190.79V220.64H96.2393V202L89.7793 220.67H83.4792L76.9792 201.96V220.67H69.6992V190.82H78.5894L86.7192 211.61L94.7192 190.82L103.519 190.79Z" fill="white"/>
<path id="Vector_6" d="M115.809 210.1V220.64H108.539V190.57H120.319C123.886 190.57 126.606 191.457 128.479 193.23C129.429 194.158 130.17 195.277 130.655 196.513C131.139 197.749 131.355 199.074 131.289 200.4C131.316 202.147 130.885 203.871 130.039 205.4C129.165 206.889 127.871 208.085 126.319 208.84C124.447 209.729 122.391 210.161 120.319 210.1H115.809ZM123.889 200.4C123.889 197.733 122.429 196.4 119.509 196.4H115.809V204.23H119.509C122.429 204.257 123.889 202.98 123.889 200.4Z" fill="white"/>
<path id="Vector_7" d="M142.139 196.36V202.65H152.299V208.14H142.139V214.82H153.579V220.64H134.859V190.57H153.579V196.36H142.139Z" fill="white"/>
<path id="Vector_8" d="M181.098 193C183.521 194.819 185.151 197.501 185.648 200.49H177.998C177.493 199.415 176.678 198.517 175.658 197.91C174.513 197.229 173.2 196.883 171.868 196.91C170.833 196.869 169.802 197.054 168.847 197.453C167.892 197.852 167.035 198.455 166.338 199.22C164.881 200.978 164.139 203.22 164.258 205.5C164.258 208.36 164.988 210.557 166.448 212.09C167.269 212.886 168.247 213.502 169.32 213.898C170.393 214.294 171.536 214.462 172.678 214.39C174.309 214.42 175.906 213.918 177.228 212.96C178.559 211.978 179.532 210.587 179.998 209H170.808V203.77H185.998V211C185.41 212.788 184.487 214.448 183.278 215.89C181.962 217.439 180.328 218.688 178.488 219.55C176.405 220.512 174.132 220.991 171.838 220.95C169.047 221.02 166.287 220.351 163.838 219.01C161.597 217.754 159.772 215.87 158.588 213.59C157.325 211.133 156.689 208.402 156.738 205.64C156.682 202.861 157.318 200.112 158.588 197.64C159.773 195.368 161.589 193.486 163.818 192.22C166.232 190.893 168.954 190.227 171.708 190.29C175.052 190.124 178.356 191.078 181.098 193Z" fill="white"/>
<path id="Vector_9" d="M120.298 131.91V84.2001C120.296 83.9685 120.272 83.7375 120.228 83.5101C120.234 83.4436 120.234 83.3767 120.228 83.3101C120.228 83.1501 120.138 83.0001 120.088 82.8501L119.998 82.6501C119.934 82.5039 119.857 82.3633 119.768 82.2301L119.678 82.0701C119.549 81.8913 119.409 81.721 119.258 81.5601L119.188 81.5001C119.052 81.3719 118.908 81.2517 118.758 81.1401L118.578 81.0301C118.448 80.9501 118.308 80.8801 118.168 80.8101L117.968 80.7201C117.808 80.6597 117.645 80.6096 117.478 80.5701H117.318C117.095 80.5216 116.867 80.4981 116.638 80.5001H49.2782C48.3525 80.5849 47.4917 81.0122 46.8647 81.6985C46.2376 82.3848 45.8892 83.2805 45.8881 84.2101C45.8881 84.2701 45.8881 84.3201 45.8881 84.3801V132.06C45.8683 132.673 46.0628 133.275 46.4381 133.76C46.7686 134.314 47.2371 134.773 47.798 135.092C48.3589 135.411 48.9928 135.579 49.6381 135.58H116.638C117.604 135.56 118.525 135.166 119.207 134.482C119.889 133.798 120.28 132.876 120.298 131.91ZM49.8083 89.4801V82.2401H55.6982V89.4801H49.8083ZM59.7482 89.4801V82.2401H65.6381V89.4801H59.7482ZM69.6881 89.4801V82.2401H75.5783V89.4801H69.6881ZM79.6281 89.4801V82.2401H85.5182V89.4801H79.6281ZM89.5683 89.4801V82.2401H95.4582V89.4801H89.5683ZM99.5082 89.4801V82.2401H105.398V89.4801H99.5082ZM109.448 89.4801V82.2401H115.338V89.4801H109.448ZM48.4482 124.59V91.4401H117.668V124.59H48.4482ZM49.7983 133.78V126.54H55.6881V133.78H49.7983ZM59.7382 133.78V126.54H65.6281V133.78H59.7382ZM69.6781 133.78V126.54H75.5683V133.78H69.6781ZM79.6183 133.78V126.54H85.5082V133.78H79.6183ZM89.5583 133.78V126.54H95.4482V133.78H89.5583ZM99.4982 133.78V126.54H105.388V133.78H99.4982ZM109.438 133.78V126.54H115.328V133.78H109.438Z" fill="#016E2D"/>
<path id="Vector_10" d="M91.0811 105.56L81.511 100.03C81.0156 99.744 80.4538 99.5934 79.8818 99.5933C79.3099 99.5931 78.7479 99.7434 78.2524 100.029C77.757 100.315 77.3452 100.726 77.0588 101.221C76.7725 101.716 76.6217 102.278 76.6211 102.85V113.91C76.6217 114.482 76.7725 115.044 77.0588 115.539C77.3452 116.034 77.757 116.445 78.2524 116.731C78.7479 117.017 79.3099 117.167 79.8818 117.167C80.4538 117.167 81.0156 117.016 81.511 116.73L91.0811 111.2C91.5751 110.913 91.9852 110.502 92.2703 110.007C92.5553 109.512 92.7053 108.951 92.7053 108.38C92.7053 107.809 92.5553 107.248 92.2703 106.753C91.9852 106.258 91.5751 105.847 91.0811 105.56Z" fill="#016E2D"/>
</g>
</svg>
