<svg xmlns="http://www.w3.org/2000/svg" width="20" height="24" viewBox="0 0 20 24" fill="none">
    <g opacity="0.3">
        <path
            opacity="0.3"
            d="M13.9664 4.9248C13.4197 4.92427 12.8956 4.70685 12.509 4.32028C12.1224 3.93371 11.905 3.40956 11.9045 2.86287V0H2.69089C1.97722 0 1.29278 0.283511 0.788145 0.788151C0.283505 1.29279 0 1.97721 0 2.69088V18.9122C0.00105979 19.6252 0.28503 20.3086 0.789555 20.8124C1.29408 21.3161 1.97791 21.5991 2.69089 21.5991H13.7514C14.4644 21.5991 15.1482 21.3161 15.6528 20.8124C16.1573 20.3086 16.4413 19.6252 16.4423 18.9122V4.9248H13.9664Z"
            fill="#FF3E4C"
        />
    </g>
    <path
        d="M16.4421 4.9248H13.9662C13.4195 4.92427 12.8954 4.70685 12.5088 4.32028C12.1222 3.93371 11.9048 3.40956 11.9043 2.86287V0L16.4421 4.9248Z"
        fill="#FF3E4C"
    />
    <path
        d="M13.0599 15.0834H2.73631C2.63686 15.0834 2.54148 15.0439 2.47116 14.9736C2.40083 14.9033 2.36133 14.8079 2.36133 14.7085C2.36159 14.6092 2.40122 14.514 2.47151 14.4439C2.5418 14.3738 2.63703 14.3345 2.73631 14.3345H13.0599C13.1591 14.3345 13.2542 14.3739 13.3243 14.444C13.3945 14.5141 13.4339 14.6093 13.4339 14.7085C13.434 14.7577 13.4244 14.8064 13.4057 14.8519C13.387 14.8974 13.3594 14.9387 13.3247 14.9735C13.2899 15.0084 13.2487 15.036 13.2032 15.0549C13.1578 15.0737 13.1091 15.0834 13.0599 15.0834Z"
        fill="#FF3E4C"
    />
    <path
        d="M13.0599 10.8593H2.73631C2.63703 10.8593 2.5418 10.8199 2.47151 10.7498C2.40122 10.6797 2.36159 10.5846 2.36133 10.4853C2.36133 10.3859 2.40083 10.2905 2.47116 10.2202C2.54148 10.1498 2.63686 10.1104 2.73631 10.1104H13.0599C13.1091 10.1104 13.1578 10.1201 13.2032 10.1389C13.2487 10.1578 13.2899 10.1854 13.3247 10.2202C13.3594 10.2551 13.387 10.2964 13.4057 10.3419C13.4244 10.3874 13.434 10.4361 13.4339 10.4853C13.4339 10.5845 13.3945 10.6796 13.3243 10.7498C13.2542 10.8199 13.1591 10.8593 13.0599 10.8593Z"
        fill="#FF3E4C"
    />
    <path
        d="M13.0599 12.9716H2.73631C2.63686 12.9716 2.54148 12.9321 2.47116 12.8618C2.40083 12.7915 2.36133 12.6961 2.36133 12.5966C2.36159 12.4974 2.40122 12.4022 2.47151 12.3321C2.5418 12.262 2.63703 12.2227 2.73631 12.2227H13.0599C13.1591 12.2227 13.2542 12.2621 13.3243 12.3322C13.3945 12.4023 13.4339 12.4975 13.4339 12.5966C13.434 12.6458 13.4244 12.6946 13.4057 12.7401C13.387 12.7856 13.3594 12.8269 13.3247 12.8617C13.2899 12.8966 13.2487 12.9242 13.2032 12.9431C13.1578 12.9619 13.1091 12.9716 13.0599 12.9716Z"
        fill="#FF3E4C"
    />
    <path
        d="M8.98805 8.7475H2.73631C2.63703 8.7475 2.5418 8.70814 2.47151 8.63803C2.40122 8.56793 2.36159 8.4728 2.36133 8.37352C2.36133 8.27407 2.40083 8.17869 2.47116 8.10837C2.54148 8.03805 2.63686 7.99854 2.73631 7.99854H8.98805C9.08733 7.9988 9.18246 8.03842 9.25256 8.10871C9.32267 8.17901 9.36204 8.27424 9.36204 8.37352C9.36177 8.47263 9.32229 8.56759 9.25221 8.63767C9.18213 8.70775 9.08716 8.74724 8.98805 8.7475Z"
        fill="#FF3E4C"
    />
    <path
        d="M8.98805 6.63569H2.73631C2.63703 6.63569 2.5418 6.5963 2.47151 6.52619C2.40122 6.45609 2.36159 6.36098 2.36133 6.2617C2.36133 6.16225 2.40083 6.06685 2.47116 5.99653C2.54148 5.92621 2.63686 5.88672 2.73631 5.88672H8.98805C9.08733 5.88698 9.18246 5.9266 9.25256 5.99689C9.32267 6.06719 9.36204 6.16242 9.36204 6.2617C9.36177 6.36081 9.32229 6.45577 9.25221 6.52585C9.18213 6.59593 9.08716 6.63542 8.98805 6.63569Z"
        fill="#FF3E4C"
    />
    <path
        d="M18.3936 17.0601H5.89011C5.00318 17.0601 4.28418 17.7791 4.28418 18.666V22.3938C4.28418 23.2808 5.00318 23.9998 5.89011 23.9998H18.3936C19.2805 23.9998 19.9995 23.2808 19.9995 22.3938V18.666C19.9995 17.7791 19.2805 17.0601 18.3936 17.0601Z"
        fill="#FF3E4C"
    />
    <path d="M8.38576 21.3369V22.0639H7.63379V21.3369H8.38576Z" fill="white" />
    <path
        d="M9.49162 21.009V22.064H8.76465V19.0571H9.9426C10.2996 19.0571 10.5726 19.1461 10.7596 19.3231C10.8542 19.4161 10.9281 19.528 10.9763 19.6516C11.0246 19.7752 11.0461 19.9076 11.0396 20.0401C11.0432 20.2149 11 20.3875 10.9146 20.5401C10.8273 20.6892 10.6979 20.8092 10.5426 20.8851C10.3553 20.9736 10.1497 21.0164 9.9426 21.0101L9.49162 21.009ZM10.2996 20.0401C10.2996 19.7734 10.1536 19.6401 9.86161 19.6401H9.49162V20.4231H9.86161C10.1536 20.4257 10.2996 20.2981 10.2996 20.0401Z"
        fill="white"
    />
    <path
        d="M13.9124 21.3391C13.7872 21.5665 13.598 21.7521 13.3684 21.8731C13.11 22.0054 12.8226 22.071 12.5324 22.0641H11.3975V19.0572H12.5324C12.8228 19.0499 13.1106 19.1141 13.3704 19.2442C13.5994 19.3625 13.788 19.5463 13.9124 19.7722C14.0425 20.0119 14.1079 20.2814 14.1023 20.5541C14.1078 20.8278 14.0423 21.0982 13.9124 21.3391ZM13.1304 21.1881C13.2117 21.1047 13.2747 21.0052 13.3153 20.896C13.3559 20.7868 13.3733 20.6704 13.3664 20.5541C13.3734 20.438 13.356 20.3217 13.3153 20.2127C13.2747 20.1037 13.2117 20.0044 13.1304 19.9212C12.9485 19.7616 12.7109 19.6803 12.4694 19.6952H12.1244V21.4131H12.4694C12.7107 21.4278 12.9481 21.3469 13.1304 21.1881Z"
        fill="white"
    />
    <path
        d="M16.4756 19.0571V19.6361H15.2426V20.2951H16.1946V20.848H15.2426V22.064H14.5146V19.0571H16.4756Z"
        fill="white"
    />
    <path
        d="M12.8767 5.88672H11.1088C10.8006 5.88672 10.5508 6.13653 10.5508 6.4447V8.21262C10.5508 8.52078 10.8006 8.7706 11.1088 8.7706H12.8767C13.1848 8.7706 13.4347 8.52078 13.4347 8.21262V6.4447C13.4347 6.13653 13.1848 5.88672 12.8767 5.88672Z"
        fill="#FF3E4C"
    />
</svg>