<svg width="200" height="240" viewBox="0 0 200 240" fill="none" xmlns="http://www.w3.org/2000/svg">
<g id="PS">
<g id="Group" opacity="0.3">
<path id="Vector" opacity="0.3" d="M139.67 49.24C134.203 49.2347 128.961 47.0606 125.095 43.1947C121.229 39.3288 119.055 34.0871 119.05 28.62V0H26.91C19.773 0 12.9284 2.83511 7.88176 7.88171C2.83516 12.9283 0 19.7731 0 26.91V189.12C0.0079507 196.252 2.84661 203.089 7.89235 208.129C12.9381 213.169 19.7782 216 26.91 216H137.51C141.045 216 144.546 215.304 147.812 213.951C151.078 212.598 154.046 210.615 156.545 208.115C159.045 205.616 161.028 202.648 162.381 199.382C163.734 196.116 164.43 192.615 164.43 189.08V49.2L139.67 49.24Z" fill="#005FAD"/>
</g>
<path id="Vector_2" d="M164.431 49.24H139.671C134.204 49.2347 128.962 47.0606 125.096 43.1947C121.23 39.3288 119.056 34.0871 119.051 28.62V0L164.431 49.24Z" fill="#005FAD"/>
<path id="Vector_3" d="M183.94 170.6H58.8998C50.0302 170.6 42.8398 177.79 42.8398 186.66V223.94C42.8398 232.81 50.0302 240 58.8998 240H183.94C192.81 240 200 232.81 200 223.94V186.66C200 177.79 192.81 170.6 183.94 170.6Z" fill="#005FAD"/>
<path id="Vector_4" d="M98.1198 213.37V220.65H90.5898V213.37H98.1198Z" fill="white"/>
<path id="Vector_5" d="M109.178 210.1V220.65H101.898V190.58H113.688C117.255 190.58 119.975 191.463 121.848 193.23C122.794 194.161 123.534 195.28 124.018 196.516C124.502 197.751 124.72 199.075 124.658 200.4C124.69 202.149 124.255 203.875 123.398 205.4C122.533 206.895 121.236 208.094 119.678 208.84C117.807 209.732 115.75 210.164 113.678 210.1H109.178ZM117.258 200.4C117.258 197.733 115.798 196.4 112.878 196.4H109.178V204.23H112.878C115.798 204.257 117.258 202.98 117.258 200.4Z" fill="white"/>
<path id="Vector_6" d="M148.63 216.56C147.769 217.946 146.526 219.054 145.05 219.75C143.264 220.593 141.304 221.001 139.33 220.94C136.358 221.062 133.429 220.197 131 218.48C129.924 217.675 129.043 216.637 128.423 215.444C127.803 214.251 127.461 212.934 127.42 211.59H135.16C135.224 212.603 135.658 213.557 136.38 214.27C137.097 214.94 138.05 215.299 139.03 215.27C139.841 215.317 140.638 215.045 141.25 214.51C141.514 214.249 141.721 213.937 141.858 213.593C141.996 213.249 142.061 212.881 142.05 212.51C142.063 212.157 142.004 211.804 141.877 211.474C141.749 211.144 141.557 210.844 141.31 210.59C140.781 210.056 140.153 209.632 139.46 209.34C138.72 209.013 137.7 208.623 136.4 208.17C134.806 207.647 133.249 207.015 131.74 206.28C130.496 205.637 129.429 204.7 128.63 203.55C127.716 202.159 127.264 200.514 127.34 198.85C127.298 197.202 127.774 195.583 128.7 194.22C129.646 192.885 130.949 191.845 132.46 191.22C134.209 190.514 136.085 190.174 137.97 190.22C140.832 190.062 143.66 190.903 145.97 192.6C146.952 193.399 147.755 194.395 148.328 195.523C148.902 196.651 149.233 197.886 149.3 199.15H141.44C141.343 198.266 140.96 197.438 140.35 196.79C140.036 196.493 139.665 196.262 139.26 196.113C138.854 195.963 138.422 195.898 137.99 195.92C137.243 195.882 136.508 196.124 135.93 196.6C135.657 196.853 135.444 197.164 135.307 197.51C135.17 197.856 135.113 198.229 135.14 198.6C135.132 198.932 135.189 199.261 135.309 199.57C135.43 199.879 135.61 200.161 135.84 200.4C136.344 200.92 136.945 201.335 137.61 201.62C138.32 201.93 139.34 202.33 140.67 202.81C142.291 203.331 143.869 203.976 145.39 204.74C146.645 205.41 147.724 206.366 148.54 207.53C149.471 208.938 149.933 210.604 149.86 212.29C149.843 213.798 149.418 215.274 148.63 216.56Z" fill="white"/>
<path id="Vector_7" d="M50.0606 130.81C50.0606 130.81 43.5406 116.98 51.9706 103.48C51.9706 103.48 54.4606 110.74 56.5106 110.26C56.5106 110.26 53.9006 99.8502 55.8206 96.7702C55.8206 96.7702 64.1406 84.8502 73.3306 78.4002C73.3306 78.4002 73.6206 85.4901 75.7806 86.0701C75.7806 86.0701 75.4406 81.6901 78.4906 75.0701C78.4906 75.0701 93.2906 63.6701 117.991 64.7101C117.991 64.7101 108.241 79.8002 102.761 89.9902C99.8654 95.4882 96.6809 100.829 93.2206 105.99C93.2206 105.99 85.9606 110.24 81.2206 109.84C81.2206 109.84 85.2206 112.98 89.5606 111.42C89.5606 111.42 78.5106 131.42 57.0706 133.95C57.0706 133.95 53.0706 142.18 52.2706 149.38C52.2706 149.38 48.2706 151.8 46.3906 151.38C46.3906 151.38 56.7606 111.54 92.1106 82.6901C92.1606 82.6901 71.7806 88.0802 50.0606 130.81Z" fill="#005FAD"/>
</g>
</svg>
