<svg width="201" height="240" viewBox="0 0 201 240" fill="none" xmlns="http://www.w3.org/2000/svg">
<g id="PSD">
<g id="Group" opacity="0.3">
<path id="Vector" opacity="0.3" d="M140.1 49.25C134.631 49.2447 129.388 47.0692 125.521 43.2012C121.655 39.3332 119.482 34.0889 119.48 28.62V0H27.3398C20.2029 0 13.3581 2.83511 8.31152 7.88171C3.26492 12.9283 0.429687 19.7731 0.429688 26.91V189.13C0.429688 196.267 3.26492 203.112 8.31152 208.158C13.3581 213.205 20.2029 216.04 27.3398 216.04H137.94C145.077 216.04 151.921 213.205 156.968 208.158C162.015 203.112 164.85 196.267 164.85 189.13V49.25H140.1Z" fill="#005FAD"/>
</g>
<path id="Vector_2" d="M164.851 49.25H140.101C134.632 49.2447 129.388 47.0692 125.522 43.2012C121.656 39.3332 119.483 34.0889 119.48 28.62V0L164.851 49.25Z" fill="#005FAD"/>
<path id="Vector_3" d="M184.37 170.61H59.3296C50.4599 170.61 43.2695 177.8 43.2695 186.67V223.95C43.2695 232.82 50.4599 240.01 59.3296 240.01H184.37C193.239 240.01 200.429 232.82 200.429 223.95V186.67C200.429 177.8 193.239 170.61 184.37 170.61Z" fill="#005FAD"/>
<path id="Vector_4" d="M84.1199 213.38V220.65H76.5898V213.38H84.1199Z" fill="white"/>
<path id="Vector_5" d="M95.1785 210.1V220.65H87.8984V190.58H99.6885C103.258 190.58 105.979 191.46 107.849 193.24C108.795 194.168 109.535 195.286 110.019 196.52C110.504 197.754 110.721 199.076 110.658 200.4C110.686 202.147 110.255 203.871 109.408 205.4C108.534 206.894 107.236 208.095 105.678 208.85C103.805 209.733 101.749 210.161 99.6785 210.1H95.1785ZM103.259 200.4C103.259 197.767 101.798 196.433 98.8784 196.4H95.1785V204.22H98.8784C101.798 204.253 103.259 202.98 103.259 200.4Z" fill="white"/>
<path id="Vector_6" d="M134.63 216.57C133.763 217.951 132.522 219.058 131.05 219.76C129.263 220.598 127.304 221.006 125.33 220.95C122.357 221.068 119.429 220.199 117 218.48C115.923 217.676 115.041 216.638 114.421 215.445C113.801 214.252 113.459 212.934 113.42 211.59H121.17C121.219 212.604 121.651 213.563 122.38 214.27C123.1 214.941 124.056 215.301 125.04 215.27C125.849 215.312 126.642 215.036 127.25 214.5C127.517 214.241 127.727 213.93 127.866 213.585C128.006 213.241 128.072 212.871 128.06 212.5C128.071 212.147 128.01 211.796 127.881 211.468C127.752 211.14 127.558 210.841 127.31 210.59C126.779 210.056 126.151 209.629 125.46 209.33C124.72 209.01 123.7 208.62 122.4 208.16C120.806 207.635 119.25 207.003 117.74 206.27C116.502 205.628 115.438 204.694 114.64 203.55C113.719 202.161 113.264 200.515 113.34 198.85C113.298 197.199 113.774 195.577 114.7 194.21C115.648 192.878 116.951 191.839 118.46 191.21C120.21 190.505 122.085 190.165 123.97 190.21C126.832 190.05 129.661 190.891 131.97 192.59C132.951 193.39 133.755 194.385 134.33 195.513C134.905 196.641 135.239 197.876 135.31 199.14H127.44C127.35 198.254 126.966 197.423 126.35 196.78C126.036 196.483 125.665 196.252 125.26 196.102C124.854 195.953 124.422 195.887 123.99 195.91C123.243 195.872 122.508 196.114 121.93 196.59C121.657 196.843 121.444 197.154 121.307 197.5C121.17 197.846 121.113 198.219 121.14 198.59C121.129 199.261 121.38 199.911 121.84 200.4C122.344 200.917 122.946 201.328 123.61 201.61C124.32 201.92 125.34 202.32 126.67 202.8C128.291 203.324 129.869 203.972 131.39 204.74C132.646 205.403 133.726 206.356 134.54 207.52C135.471 208.928 135.933 210.594 135.86 212.28C135.849 213.795 135.423 215.279 134.63 216.57Z" fill="white"/>
<path id="Vector_7" d="M165 213.4C163.746 215.674 161.851 217.527 159.55 218.73C156.972 220.061 154.1 220.721 151.2 220.65H139.84V190.58H151.2C154.101 190.503 156.977 191.146 159.57 192.45C161.86 193.633 163.749 195.467 165 197.72C166.293 200.124 166.944 202.821 166.89 205.55C166.941 208.285 166.29 210.988 165 213.4ZM157.17 211.89C157.984 211.057 158.615 210.062 159.021 208.97C159.428 207.878 159.601 206.713 159.53 205.55C159.601 204.387 159.428 203.222 159.021 202.13C158.615 201.038 157.984 200.043 157.17 199.21C155.348 197.619 152.973 196.811 150.56 196.96H147.11V214.14H150.56C152.987 214.3 155.378 213.49 157.21 211.89H157.17Z" fill="white"/>
<path id="Vector_8" d="M50.4802 130.81C50.4802 130.81 43.9701 116.98 52.4001 103.48C52.4001 103.48 54.8902 110.74 56.9402 110.27C56.9402 110.27 54.3302 99.8602 56.2502 96.7802C56.2502 96.7802 64.5702 84.8502 73.7502 78.4002C73.7502 78.4002 74.0502 85.4901 76.2102 86.0701C76.2102 86.0701 75.8702 81.6901 78.9202 75.0701C78.9202 75.0701 93.7202 63.6701 118.42 64.7101C118.42 64.7101 108.67 79.8102 103.19 89.9902C100.293 95.487 97.1084 100.828 93.6501 105.99C93.6501 105.99 86.3901 110.23 81.6501 109.83C81.6501 109.83 85.6502 112.97 89.9902 111.42C89.9902 111.42 78.9402 131.42 57.5002 133.94C57.5002 133.94 53.5002 142.17 52.7002 149.38C52.7002 149.38 48.7003 151.8 46.8203 151.38C46.8203 151.38 57.1903 111.55 92.5403 82.6901C92.5903 82.6901 72.2102 88.0802 50.4802 130.81Z" fill="#005FAD"/>
</g>
</svg>
