<svg width="201" height="240" viewBox="0 0 201 240" fill="none" xmlns="http://www.w3.org/2000/svg">
<g id="PUB">
<g id="Group" opacity="0.3">
<path id="Vector" opacity="0.3" d="M139.999 49.25C134.531 49.2447 129.288 47.0709 125.421 43.2053C121.553 39.3398 119.377 34.0979 119.369 28.6299V0H27.199C20.062 0 13.2174 2.83523 8.17078 7.88184C3.12417 12.9284 0.289062 19.7729 0.289062 26.9099V189.13C0.299661 196.26 3.13948 203.094 8.18494 208.132C13.2304 213.17 20.0689 216 27.199 216H137.799C144.936 216 151.781 213.165 156.827 208.118C161.874 203.072 164.709 196.227 164.709 189.09V49.21L139.999 49.25Z" fill="#FF3E4C"/>
</g>
<path id="Vector_2" d="M164.707 49.25H139.997C134.529 49.2447 129.286 47.0709 125.419 43.2053C121.552 39.3398 119.375 34.0979 119.367 28.6299V0L164.707 49.25Z" fill="#FF3E4C"/>
<path id="Vector_3" d="M184.229 170.61H59.1888C50.3191 170.61 43.1289 177.8 43.1289 186.67V223.95C43.1289 232.82 50.3191 240.01 59.1888 240.01H184.229C193.099 240.01 200.289 232.82 200.289 223.95V186.67C200.289 177.8 193.099 170.61 184.229 170.61Z" fill="#FF3E4C"/>
<path id="Vector_4" d="M89.3307 210.1V220.65H82.0508V190.58H93.8407C97.414 190.58 100.134 191.467 102.001 193.24C102.948 194.169 103.688 195.289 104.173 196.524C104.657 197.76 104.875 199.084 104.811 200.41C104.844 202.159 104.409 203.885 103.551 205.41C102.683 206.906 101.387 208.107 99.8307 208.86C97.9589 209.749 95.9017 210.178 93.8307 210.11L89.3307 210.1ZM97.4108 200.41C97.4108 197.743 95.9508 196.41 93.0308 196.41H89.3307V204.24H93.0308C95.9508 204.267 97.4108 202.99 97.4108 200.41Z" fill="white"/>
<path id="Vector_5" d="M115.441 190.58V207.93C115.331 209.561 115.806 211.178 116.781 212.49C117.269 213.027 117.873 213.447 118.546 213.719C119.22 213.991 119.946 214.108 120.671 214.06C121.397 214.108 122.125 213.992 122.8 213.72C123.475 213.449 124.08 213.028 124.571 212.49C125.546 211.178 126.021 209.561 125.911 207.93V190.58H133.181V207.93C133.265 210.424 132.693 212.897 131.521 215.1C130.477 216.976 128.901 218.5 126.991 219.48C124.977 220.484 122.751 220.989 120.501 220.95C118.287 220.996 116.097 220.498 114.121 219.5C112.26 218.522 110.747 216.992 109.791 215.12C108.675 212.892 108.132 210.421 108.211 207.93V190.58H115.441Z" fill="white"/>
<path id="Vector_6" d="M160.379 207.81C161.432 209.122 161.994 210.759 161.969 212.44C162.022 213.569 161.819 214.696 161.374 215.735C160.928 216.774 160.253 217.699 159.399 218.44C157.679 219.887 155.22 220.61 152.02 220.61H138.02V190.54H151.669C154.729 190.54 157.096 191.207 158.77 192.54C159.609 193.224 160.275 194.097 160.711 195.088C161.147 196.079 161.342 197.159 161.28 198.24C161.338 199.871 160.829 201.472 159.84 202.77C158.885 203.969 157.546 204.802 156.05 205.13C157.759 205.496 159.289 206.443 160.379 207.81ZM145.3 202.87H150.06C152.59 202.87 153.85 201.8 153.85 199.64C153.85 197.48 152.559 196.41 149.979 196.41H145.3V202.87ZM154.53 211.42C154.551 210.946 154.468 210.473 154.284 210.036C154.101 209.598 153.823 209.207 153.469 208.89C152.611 208.237 151.546 207.914 150.469 207.98H145.32V214.74H150.51C153.183 214.74 154.523 213.633 154.53 211.42Z" fill="white"/>
<path id="Vector_7" d="M71.2985 83.73H27.6384C26.6465 83.73 25.6952 83.3359 24.9938 82.6345C24.2924 81.9331 23.8985 80.9819 23.8985 79.99C23.8971 79.498 23.9928 79.0106 24.1802 78.5557C24.3676 78.1008 24.6428 77.6872 24.9902 77.3389C25.3377 76.9905 25.7504 76.7142 26.2048 76.5256C26.6593 76.3371 27.1465 76.24 27.6384 76.24H71.2985C72.2861 76.2532 73.2285 76.6554 73.9213 77.3594C74.614 78.0634 75.0011 79.0123 74.9984 80C74.9933 80.9825 74.6027 81.9238 73.9108 82.6213C73.2189 83.3189 72.2809 83.7169 71.2985 83.73Z" fill="#FF3E4C"/>
<path id="Vector_8" d="M71.2985 106.1H27.6384C26.6465 106.1 25.6952 105.706 24.9938 105.005C24.2924 104.303 23.8985 103.352 23.8985 102.36C23.8971 101.868 23.9928 101.381 24.1802 100.926C24.3676 100.471 24.6428 100.057 24.9902 99.709C25.3377 99.3606 25.7504 99.0843 26.2048 98.8958C26.6593 98.7072 27.1465 98.6101 27.6384 98.6101H71.2985C72.2913 98.6128 73.2425 99.0089 73.9436 99.7119C74.6447 100.415 75.0385 101.367 75.0385 102.36C75.0358 103.351 74.6409 104.301 73.9401 105.002C73.2393 105.703 72.2896 106.097 71.2985 106.1Z" fill="#FF3E4C"/>
<path id="Vector_9" d="M71.2985 128.47H27.6384C27.1465 128.47 26.6593 128.373 26.2048 128.184C25.7504 127.996 25.3377 127.719 24.9902 127.371C24.6428 127.023 24.3676 126.609 24.1802 126.154C23.9928 125.699 23.8971 125.212 23.8985 124.72C23.8985 123.728 24.2924 122.777 24.9938 122.075C25.6952 121.374 26.6465 120.98 27.6384 120.98H71.2985C72.2896 120.983 73.2393 121.378 73.9401 122.078C74.6409 122.779 75.0358 123.729 75.0385 124.72C75.0385 125.713 74.6447 126.665 73.9436 127.368C73.2425 128.071 72.2913 128.467 71.2985 128.47Z" fill="#FF3E4C"/>
<path id="Vector_10" d="M71.2985 150.84H27.6384C27.1465 150.84 26.6593 150.743 26.2048 150.554C25.7504 150.366 25.3377 150.089 24.9902 149.741C24.6428 149.393 24.3676 148.979 24.1802 148.524C23.9928 148.07 23.8971 147.582 23.8985 147.09C23.8985 146.098 24.2924 145.147 24.9938 144.445C25.6952 143.744 26.6465 143.35 27.6384 143.35H71.2985C72.2896 143.353 73.2393 143.747 73.9401 144.448C74.6409 145.149 75.0358 146.099 75.0385 147.09C75.0385 148.083 74.6447 149.035 73.9436 149.738C73.2425 150.441 72.2913 150.837 71.2985 150.84Z" fill="#FF3E4C"/>
<path id="Vector_11" d="M130.878 83.73H88.3181C87.3262 83.73 86.375 83.3359 85.6736 82.6345C84.9722 81.9331 84.5781 80.9819 84.5781 79.99C84.5768 79.498 84.6726 79.0106 84.86 78.5557C85.0474 78.1008 85.3226 77.6872 85.6701 77.3389C86.0175 76.9905 86.4302 76.7142 86.8847 76.5256C87.3391 76.3371 87.8261 76.24 88.3181 76.24H130.878C131.873 76.24 132.827 76.6351 133.53 77.3384C134.233 78.0416 134.628 78.9954 134.628 79.99C134.625 80.9828 134.229 81.9342 133.526 82.6353C132.823 83.3364 131.871 83.73 130.878 83.73Z" fill="#FF3E4C"/>
<path id="Vector_12" d="M130.878 106.1H88.3181C87.3262 106.1 86.375 105.706 85.6736 105.005C84.9722 104.303 84.5781 103.352 84.5781 102.36C84.5768 101.868 84.6726 101.381 84.86 100.926C85.0474 100.471 85.3226 100.057 85.6701 99.709C86.0175 99.3606 86.4302 99.0843 86.8847 98.8958C87.3391 98.7072 87.8261 98.6101 88.3181 98.6101H130.878C131.873 98.6101 132.827 99.005 133.53 99.7083C134.233 100.412 134.628 101.366 134.628 102.36C134.625 103.353 134.229 104.304 133.526 105.005C132.823 105.706 131.871 106.1 130.878 106.1Z" fill="#FF3E4C"/>
<path id="Vector_13" d="M130.878 128.47H88.3181C87.8261 128.47 87.3391 128.373 86.8847 128.184C86.4302 127.996 86.0175 127.719 85.6701 127.371C85.3226 127.023 85.0474 126.609 84.86 126.154C84.6726 125.699 84.5768 125.212 84.5781 124.72C84.5781 123.728 84.9722 122.777 85.6736 122.075C86.375 121.374 87.3262 120.98 88.3181 120.98H130.878C131.871 120.98 132.823 121.374 133.526 122.075C134.229 122.776 134.625 123.727 134.628 124.72C134.628 125.715 134.233 126.668 133.53 127.372C132.827 128.075 131.873 128.47 130.878 128.47Z" fill="#FF3E4C"/>
<path id="Vector_14" d="M130.878 150.84H88.3181C87.8261 150.84 87.3391 150.743 86.8847 150.554C86.4302 150.366 86.0175 150.089 85.6701 149.741C85.3226 149.393 85.0474 148.979 84.86 148.524C84.6726 148.07 84.5768 147.582 84.5781 147.09C84.5781 146.098 84.9722 145.147 85.6736 144.445C86.375 143.744 87.3262 143.35 88.3181 143.35H130.878C131.871 143.35 132.823 143.744 133.526 144.445C134.229 145.146 134.625 146.097 134.628 147.09C134.628 148.085 134.233 149.038 133.53 149.742C132.827 150.445 131.873 150.84 130.878 150.84Z" fill="#FF3E4C"/>
</g>
</svg>
