<svg width="201" height="240" viewBox="0 0 201 240" fill="none" xmlns="http://www.w3.org/2000/svg">
<g id="RAR">
<g id="Group" opacity="0.3">
<path id="Vector" opacity="0.3" d="M139.811 49.25C134.343 49.2421 129.101 47.0657 125.235 43.1982C121.37 39.3308 119.196 34.0881 119.191 28.62V1.85821e-06H27.0607C23.526 -0.00131167 20.0255 0.693768 16.7595 2.04553C13.4935 3.3973 10.5258 5.37922 8.02588 7.87818C5.526 10.3771 3.54292 13.3441 2.18994 16.6096C0.836962 19.8751 0.140625 23.3753 0.140625 26.91V189.13C0.140625 192.665 0.836962 196.165 2.18994 199.43C3.54292 202.696 5.526 205.663 8.02588 208.162C10.5258 210.661 13.4935 212.643 16.7595 213.995C20.0255 215.346 23.526 216.041 27.0607 216.04H137.661C144.798 216.04 151.642 213.205 156.689 208.158C161.735 203.112 164.571 196.267 164.571 189.13V49.25H139.811Z" fill="#670BC1"/>
</g>
<path id="Vector_2" d="M164.571 49.25H139.812C134.343 49.2421 129.102 47.0657 125.236 43.1982C121.371 39.3308 119.197 34.0881 119.191 28.62V0L164.571 49.25Z" fill="#670BC1"/>
<path id="Vector_3" d="M184.092 170.61H59.0522C50.1825 170.61 42.9922 177.8 42.9922 186.67V223.95C42.9922 232.82 50.1825 240.01 59.0522 240.01H184.092C192.962 240.01 200.152 232.82 200.152 223.95V186.67C200.152 177.8 192.962 170.61 184.092 170.61Z" fill="#670BC1"/>
<path id="Vector_4" d="M82.0496 213.38V220.65H74.5195V213.38H82.0496Z" fill="white"/>
<path id="Vector_5" d="M101.28 220.65L94.7699 209.29H93.1099V220.65H85.8398V190.58H98.2599C100.328 190.523 102.381 190.944 104.26 191.81C105.802 192.543 107.09 193.72 107.96 195.19C108.797 196.693 109.221 198.39 109.19 200.11C109.248 202.12 108.609 204.088 107.38 205.68C106.041 207.297 104.188 208.405 102.13 208.82L109.28 220.65H101.28ZM93.1099 204.32H97.6199C98.7719 204.407 99.9135 204.049 100.81 203.32C101.165 202.944 101.438 202.498 101.61 202.011C101.782 201.524 101.85 201.005 101.81 200.49C101.843 199.978 101.772 199.465 101.6 198.982C101.428 198.499 101.159 198.056 100.81 197.68C99.9257 196.943 98.7869 196.584 97.6399 196.68H93.1299L93.1099 204.32Z" fill="white"/>
<path id="Vector_6" d="M131.519 215.16H120.249L118.369 220.65H110.719L121.719 190.79H130.089L141.089 220.65H133.349L131.519 215.16ZM129.649 209.63L125.899 198.57L122.119 209.63H129.649Z" fill="white"/>
<path id="Vector_7" d="M159.381 220.65L152.871 209.29H151.211V220.65H143.941V190.58H156.361C158.429 190.523 160.483 190.944 162.361 191.81C163.904 192.543 165.192 193.72 166.062 195.19C166.899 196.693 167.323 198.39 167.292 200.11C167.35 202.12 166.71 204.088 165.481 205.68C164.142 207.297 162.289 208.405 160.231 208.82L167.381 220.65H159.381ZM151.211 204.32H155.721C156.873 204.405 158.014 204.047 158.911 203.32C159.267 202.944 159.539 202.498 159.711 202.011C159.884 201.524 159.952 201.005 159.911 200.49C159.945 199.978 159.873 199.465 159.701 198.982C159.529 198.499 159.261 198.056 158.911 197.68C158.027 196.943 156.888 196.584 155.741 196.68H151.231L151.211 204.32Z" fill="white"/>
<path id="Vector_8" d="M95.1116 150.84H32.5916C31.5987 150.837 30.6475 150.441 29.9464 149.738C29.2453 149.035 28.8516 148.083 28.8516 147.09C28.8516 146.098 29.2456 145.147 29.947 144.446C30.6484 143.744 31.5996 143.35 32.5916 143.35H95.1116C95.6036 143.349 96.091 143.445 96.5459 143.632C97.0008 143.819 97.4142 144.095 97.7626 144.442C98.1109 144.789 98.3874 145.202 98.5759 145.657C98.7645 146.111 98.8616 146.598 98.8616 147.09C98.8616 148.085 98.4664 149.039 97.7632 149.742C97.0599 150.445 96.1061 150.84 95.1116 150.84Z" fill="#670BC1"/>
<path id="Vector_9" d="M95.1116 128.75H32.5916C31.5987 128.747 30.6475 128.351 29.9464 127.648C29.2453 126.945 28.8516 125.993 28.8516 125C28.8542 124.009 29.2491 123.059 29.95 122.358C30.6508 121.657 31.6005 121.263 32.5916 121.26H95.1116C96.1044 121.26 97.0568 121.654 97.7598 122.355C98.4627 123.056 98.8589 124.007 98.8616 125C98.8616 125.995 98.4664 126.948 97.7632 127.652C97.0599 128.355 96.1061 128.75 95.1116 128.75Z" fill="#670BC1"/>
<path id="Vector_10" d="M95.1116 106.66H32.5916C31.5996 106.66 30.6484 106.266 29.947 105.564C29.2456 104.863 28.8516 103.912 28.8516 102.92C28.8516 101.927 29.2453 100.975 29.9464 100.272C30.6475 99.5688 31.5987 99.1726 32.5916 99.1699H95.1116C96.1061 99.1699 97.0599 99.5649 97.7632 100.268C98.4664 100.971 98.8616 101.925 98.8616 102.92C98.8616 103.412 98.7645 103.899 98.5759 104.353C98.3874 104.808 98.1109 105.221 97.7626 105.568C97.4142 105.915 97.0008 106.191 96.5459 106.378C96.091 106.565 95.6036 106.661 95.1116 106.66Z" fill="#670BC1"/>
<path id="Vector_11" d="M95.1116 84.5698H32.5916C31.5996 84.5698 30.6484 84.1759 29.947 83.4745C29.2456 82.7731 28.8516 81.8218 28.8516 80.8298C28.8516 79.8379 29.2456 78.8867 29.947 78.1853C30.6484 77.4839 31.5996 77.0899 32.5916 77.0899H95.1116C95.6036 77.0885 96.091 77.1844 96.5459 77.3717C97.0008 77.5591 97.4142 77.8344 97.7626 78.1818C98.1109 78.5292 98.3874 78.942 98.5759 79.3964C98.7645 79.8508 98.8616 80.3379 98.8616 80.8298C98.8616 81.3218 98.7645 81.809 98.5759 82.2634C98.3874 82.7179 98.1109 83.1306 97.7626 83.478C97.4142 83.8255 97.0008 84.1007 96.5459 84.2881C96.091 84.4755 95.6036 84.5712 95.1116 84.5698Z" fill="#670BC1"/>
<path id="Vector_12" d="M123.151 152.52C119.786 152.517 116.56 151.18 114.181 148.8C111.801 146.421 110.464 143.195 110.461 139.83V127.14H135.831V139.83C135.828 143.193 134.492 146.418 132.115 148.797C129.738 151.176 126.514 152.515 123.151 152.52ZM116.951 133.63V139.83C116.954 141.474 117.608 143.049 118.77 144.211C119.932 145.373 121.507 146.028 123.151 146.03C124.795 146.028 126.37 145.373 127.532 144.211C128.694 143.049 129.348 141.474 129.351 139.83V133.63H116.951Z" fill="#670BC1"/>
<path id="Vector_13" d="M110.46 127.15H123.18V114.43H110.46V127.15Z" fill="#670BC1"/>
<path id="Vector_14" d="M123.139 114.44H135.859V101.72H123.139V114.44Z" fill="#670BC1"/>
<path id="Vector_15" d="M110.46 101.73H123.18V89.01H110.46V101.73Z" fill="#670BC1"/>
<path id="Vector_16" d="M123.139 89.02H135.859V76.3H123.139V89.02Z" fill="#670BC1"/>
</g>
</svg>
