<svg width="200" height="240" viewBox="0 0 200 240" fill="none" xmlns="http://www.w3.org/2000/svg">
<g id="RAW">
<g id="Group" opacity="0.3">
<path id="Vector" opacity="0.3" d="M139.67 49.24C134.203 49.2347 128.961 47.0606 125.095 43.1947C121.229 39.3288 119.055 34.0871 119.05 28.62V0H26.91C19.7748 -4.92665e-07 12.9316 2.83379 7.88528 7.87823C2.83897 12.9227 0.00265152 19.7648 0 26.9V189.12C0.0079507 196.252 2.84661 203.089 7.89235 208.129C12.9381 213.169 19.7782 216 26.91 216H137.51C141.045 216.001 144.545 215.306 147.811 213.954C151.077 212.603 154.045 210.621 156.545 208.122C159.045 205.623 161.028 202.656 162.381 199.39C163.734 196.125 164.43 192.625 164.43 189.09V49.24H139.67Z" fill="#FF3E4C"/>
</g>
<path id="Vector_2" d="M164.431 49.24H139.671C134.204 49.2347 128.962 47.0606 125.096 43.1947C121.23 39.3288 119.056 34.0871 119.051 28.62V0L164.431 49.24Z" fill="#FF3E4C"/>
<path id="Vector_3" d="M183.94 170.6H58.8998C50.0302 170.6 42.8398 177.79 42.8398 186.66V223.94C42.8398 232.81 50.0302 240 58.8998 240H183.94C192.81 240 200 232.81 200 223.94V186.66C200 177.79 192.81 170.6 183.94 170.6Z" fill="#FF3E4C"/>
<path id="Vector_4" d="M72.6997 213.37V220.64H65.1797V213.37H72.6997Z" fill="white"/>
<path id="Vector_5" d="M91.9283 220.64L85.4183 209.29H83.7583V220.64H76.4883V190.57H88.9083C90.9774 190.512 93.0317 190.936 94.9083 191.81C96.4526 192.54 97.7417 193.718 98.6083 195.19C99.4456 196.689 99.8701 198.383 99.8383 200.1C99.8947 202.108 99.2592 204.075 98.0383 205.67C96.692 207.285 94.8376 208.395 92.7783 208.82L99.9983 220.64H91.9283ZM83.7583 204.31H88.2683C89.4203 204.397 90.5618 204.039 91.4583 203.31C91.8137 202.936 92.0864 202.492 92.2587 202.006C92.431 201.521 92.499 201.004 92.4583 200.49C92.4921 199.978 92.4208 199.465 92.2488 198.982C92.0769 198.498 91.8078 198.055 91.4583 197.68C90.5751 196.941 89.4356 196.582 88.2883 196.68H83.7783L83.7583 204.31Z" fill="white"/>
<path id="Vector_6" d="M122.17 215.16H110.9L109 220.64H101.34L112.34 190.79H120.72L131.72 220.64H124L122.17 215.16ZM120.3 209.63L116.56 198.57L112.77 209.63H120.3Z" fill="white"/>
<path id="Vector_7" d="M175.46 190.57L168.28 220.64H159.28L154.47 200.53L149.62 220.64H140.62L133.43 190.57H141.34L145.21 212.35L150.48 190.57H158.48L163.75 212.35L167.66 190.57H175.46Z" fill="white"/>
<path id="Vector_8" d="M65.3393 123.66H41.0593C39.16 118.658 38.1907 113.351 38.1993 108C38.192 102.653 39.1612 97.3492 41.0593 92.3501C41.8152 90.3707 42.7142 88.4489 43.7493 86.6001L47.0993 92.3501L56.2893 108.12L60.2893 115.06L65.3393 123.66Z" fill="#FF3E4C"/>
<path id="Vector_9" d="M116.318 135.84C109.576 144.108 100.058 149.645 89.5381 151.42C87.3197 151.788 85.0767 151.989 82.8281 152.02L86.3681 146.02L95.3681 130.66L99.4482 123.66L104.448 115.1L109.348 123.66L113.348 130.66L116.318 135.84Z" fill="#FF3E4C"/>
<path id="Vector_10" d="M126.23 108C126.239 113.348 125.266 118.653 123.36 123.65C122.604 125.639 121.705 127.571 120.67 129.43L117.37 123.65L108.51 108.18L104.51 101.18L99.4297 92.3101H123.33C125.251 97.3178 126.234 102.636 126.23 108Z" fill="#FF3E4C"/>
<path id="Vector_11" d="M120 85.41H77.3203L82.4103 76.53L86.4103 69.53L89.2603 64.53C100.057 66.2715 109.816 71.9765 116.63 80.53C117.863 82.0787 118.989 83.709 120 85.41Z" fill="#FF3E4C"/>
<path id="Vector_12" d="M81.5719 64L78.4019 69.53L69.3119 85.41L65.3119 92.41L60.3119 101.22L55.1719 92.41L51.1719 85.41L48.1719 80.23C55.0514 71.7602 64.8361 66.1531 75.6219 64.5C77.5918 64.2002 79.5796 64.0331 81.5719 64Z" fill="#FF3E4C"/>
<path id="Vector_13" d="M87.3214 130.62L82.3214 139.08L78.3214 145.96L75.1114 151.46C64.6075 149.742 55.0825 144.274 48.3014 136.07C46.8818 134.351 45.5916 132.53 44.4414 130.62H87.3214Z" fill="#FF3E4C"/>
</g>
</svg>
