<svg width="201" height="240" viewBox="0 0 201 240" fill="none" xmlns="http://www.w3.org/2000/svg">
<g id="RSS">
<g id="Group" opacity="0.3">
<path id="Vector" opacity="0.3" d="M140.529 49.24C135.061 49.2347 129.818 47.0609 125.951 43.1953C122.083 39.3297 119.907 34.0881 119.899 28.62V0H27.7693C20.6323 0 13.7876 2.83514 8.74097 7.88174C3.69436 12.9283 0.859375 19.773 0.859375 26.91V189.13C0.869973 196.26 3.70967 203.094 8.75513 208.132C13.8006 213.17 20.6392 216 27.7693 216H138.369C145.506 216 152.351 213.165 157.397 208.118C162.444 203.072 165.279 196.227 165.279 189.09V49.24H140.529Z" fill="#FF9908"/>
</g>
<path id="Vector_2" d="M165.279 49.24H140.529C135.061 49.2347 129.818 47.0609 125.95 43.1953C122.083 39.3297 119.906 34.0881 119.898 28.62V0L165.279 49.24Z" fill="#FF9908"/>
<path id="Vector_3" d="M184.799 170.6H59.7593C50.8896 170.6 43.6992 177.79 43.6992 186.66V223.94C43.6992 232.81 50.8896 240 59.7593 240H184.799C193.669 240 200.859 232.81 200.859 223.94V186.66C200.859 177.79 193.669 170.6 184.799 170.6Z" fill="#FF9908"/>
<path id="Vector_4" d="M86.7605 213.37V220.64H79.2305V213.37H86.7605Z" fill="white"/>
<path id="Vector_5" d="M105.999 220.64L99.4885 209.28H97.8286V220.64H90.5586V190.57H102.999C105.067 190.512 107.12 190.933 108.999 191.8C110.541 192.533 111.829 193.71 112.698 195.18C113.536 196.683 113.96 198.38 113.928 200.1C113.985 202.108 113.349 204.075 112.128 205.67C110.782 207.285 108.928 208.395 106.869 208.82L114.019 220.64H105.999ZM97.8286 204.31H102.339C103.491 204.396 104.632 204.039 105.529 203.31C105.884 202.934 106.156 202.488 106.328 202.001C106.501 201.513 106.569 200.995 106.529 200.48C106.564 199.969 106.493 199.457 106.321 198.975C106.149 198.493 105.879 198.052 105.529 197.68C105.092 197.312 104.588 197.034 104.043 196.863C103.499 196.691 102.927 196.629 102.359 196.68H97.8486L97.8286 204.31Z" fill="white"/>
<path id="Vector_6" d="M137.998 216.56C137.131 217.941 135.889 219.048 134.417 219.75C132.63 220.588 130.671 220.996 128.698 220.94C125.724 221.063 122.794 220.194 120.368 218.47C119.29 217.666 118.409 216.628 117.789 215.435C117.169 214.242 116.826 212.924 116.788 211.58H124.528C124.586 212.594 125.021 213.55 125.748 214.26C126.464 214.93 127.417 215.289 128.397 215.26C129.21 215.304 130.007 215.027 130.618 214.49C130.881 214.229 131.088 213.917 131.226 213.573C131.363 213.229 131.429 212.86 131.417 212.49C131.429 212.138 131.369 211.788 131.242 211.46C131.115 211.132 130.923 210.832 130.677 210.58C130.146 210.046 129.519 209.619 128.828 209.32C128.088 209 127.068 208.61 125.768 208.15C124.174 207.625 122.617 206.993 121.108 206.26C119.869 205.618 118.805 204.684 118.008 203.54C117.086 202.151 116.631 200.505 116.708 198.84C116.665 197.189 117.141 195.567 118.068 194.2C119.016 192.868 120.318 191.829 121.828 191.2C123.577 190.494 125.452 190.154 127.338 190.2C130.199 190.045 133.026 190.886 135.338 192.58C136.318 193.381 137.121 194.376 137.696 195.504C138.271 196.632 138.605 197.866 138.677 199.13H130.808C130.71 198.246 130.327 197.418 129.718 196.77C129.404 196.473 129.033 196.242 128.627 196.093C128.221 195.943 127.789 195.878 127.358 195.9C126.61 195.862 125.875 196.104 125.298 196.58C125.025 196.833 124.812 197.144 124.676 197.49C124.539 197.836 124.481 198.209 124.508 198.58C124.496 199.251 124.748 199.901 125.208 200.39C125.711 200.907 126.313 201.318 126.978 201.6C127.688 201.91 128.708 202.31 130.038 202.79C131.659 203.314 133.237 203.962 134.758 204.73C136.012 205.395 137.091 206.348 137.907 207.51C138.841 208.921 139.303 210.59 139.228 212.28C139.21 213.791 138.785 215.27 137.998 216.56Z" fill="white"/>
<path id="Vector_7" d="M163.628 216.56C162.762 217.939 161.525 219.045 160.058 219.75C158.27 220.588 156.311 220.996 154.338 220.94C151.361 221.063 148.427 220.194 145.998 218.47C144.923 217.664 144.044 216.625 143.426 215.432C142.808 214.24 142.467 212.923 142.428 211.58H150.168C150.223 212.593 150.654 213.549 151.378 214.26C152.099 214.929 153.054 215.289 154.038 215.26C154.847 215.304 155.641 215.027 156.248 214.49C156.514 214.231 156.724 213.92 156.864 213.575C157.003 213.231 157.069 212.861 157.058 212.49C157.067 212.138 157.006 211.789 156.879 211.461C156.752 211.133 156.561 210.834 156.318 210.58C155.786 210.048 155.158 209.62 154.468 209.32C153.728 209 152.708 208.61 151.398 208.15C149.806 207.627 148.253 206.995 146.748 206.26C145.506 205.618 144.439 204.685 143.638 203.54C142.724 202.148 142.273 200.503 142.348 198.84C142.306 197.189 142.781 195.567 143.708 194.2C144.653 192.866 145.957 191.826 147.468 191.2C149.217 190.494 151.092 190.154 152.978 190.2C155.839 190.044 158.667 190.885 160.978 192.58C161.96 193.379 162.764 194.374 163.34 195.502C163.915 196.63 164.248 197.866 164.318 199.13H156.448C156.36 198.245 155.98 197.415 155.368 196.77C155.054 196.473 154.683 196.242 154.277 196.093C153.871 195.943 153.44 195.877 153.008 195.9C152.26 195.862 151.525 196.104 150.948 196.58C150.675 196.833 150.462 197.144 150.326 197.49C150.189 197.836 150.132 198.209 150.158 198.58C150.142 199.252 150.394 199.903 150.858 200.39C151.362 200.907 151.963 201.318 152.628 201.6C153.328 201.91 154.348 202.31 155.688 202.79C157.309 203.314 158.887 203.962 160.408 204.73C161.662 205.395 162.742 206.348 163.558 207.51C164.491 208.92 164.953 210.59 164.878 212.28C164.858 213.794 164.426 215.274 163.628 216.56Z" fill="white"/>
<path id="Vector_8" d="M58.7188 139.61C62.7228 139.61 65.9688 136.364 65.9688 132.36C65.9688 128.356 62.7228 125.11 58.7188 125.11C54.7147 125.11 51.4688 128.356 51.4688 132.36C51.4688 136.364 54.7147 139.61 58.7188 139.61Z" fill="#FF9908"/>
<path id="Vector_9" d="M51.4688 97V106.45C60.2627 106.461 68.6936 109.959 74.9119 116.177C81.1302 122.395 84.6281 130.826 84.6387 139.62H94.0889C94.0756 128.321 89.581 117.488 81.5911 109.498C73.6011 101.508 62.7682 97.0132 51.4688 97Z" fill="#FF9908"/>
<path id="Vector_10" d="M114.669 139.61H105.219C105.203 125.359 99.5349 111.697 89.4583 101.62C79.3816 91.5438 65.7193 85.8758 51.4688 85.8599V76.4099C68.2247 76.4284 84.2892 83.0929 96.1375 94.9412C107.986 106.79 114.65 122.854 114.669 139.61Z" fill="#FF9908"/>
</g>
</svg>
