<svg width="200" height="240" viewBox="0 0 200 240" fill="none" xmlns="http://www.w3.org/2000/svg">
<g id="TIFF">
<g id="Group" opacity="0.3">
<path id="Vector" opacity="0.3" d="M139.67 49.24C134.203 49.2347 128.961 47.0606 125.095 43.1947C121.229 39.3288 119.055 34.0871 119.05 28.62V0H26.9099C23.3752 -2.4406e-07 19.8751 0.696337 16.6096 2.04932C13.3441 3.4023 10.3771 5.38537 7.87818 7.88525C5.37922 10.3851 3.39718 13.3529 2.04541 16.6189C0.693646 19.8849 -0.00131167 23.3853 1.85854e-06 26.92V189.13C-0.00131167 192.665 0.693646 196.165 2.04541 199.431C3.39718 202.697 5.37922 205.665 7.87818 208.165C10.3771 210.665 13.3441 212.648 16.6096 214.001C19.8751 215.354 23.3752 216.05 26.9099 216.05H137.51C144.65 216.05 151.497 213.214 156.545 208.165C161.594 203.117 164.43 196.27 164.43 189.13V49.25L139.67 49.24Z" fill="#670BC1"/>
</g>
<path id="Vector_2" d="M164.431 49.24H139.671C134.204 49.2347 128.962 47.0606 125.096 43.1947C121.23 39.3288 119.056 34.0871 119.051 28.62V0L164.431 49.24Z" fill="#670BC1"/>
<path id="Vector_3" d="M183.94 170.6H58.8997C50.03 170.6 42.8398 177.79 42.8398 186.66V223.94C42.8398 232.81 50.03 240 58.8997 240H183.94C192.809 240 200 232.81 200 223.94V186.66C200 177.79 192.809 170.6 183.94 170.6Z" fill="#670BC1"/>
<path id="Vector_4" d="M83.6313 213.37V220.65H76.1016V213.37H83.6313Z" fill="white"/>
<path id="Vector_5" d="M109.001 190.58V196.36H100.842V220.65H93.5215V196.36H85.4414V190.58H109.001Z" fill="white"/>
<path id="Vector_6" d="M119.358 190.58V220.65H112.078V190.58H119.358Z" fill="white"/>
<path id="Vector_7" d="M143.999 190.58V196.36H131.668V202.95H141.198V208.48H131.668V220.65H124.398V190.58H143.999Z" fill="white"/>
<path id="Vector_8" d="M167.331 190.58V196.36H155V202.95H164.531V208.48H155V220.65H147.73V190.58H167.331Z" fill="white"/>
<path id="Vector_9" d="M104.31 146.41H60.1301C55.8061 146.405 51.6608 144.685 48.6033 141.627C45.5457 138.57 43.8256 134.424 43.8203 130.1V85.9302C43.8256 81.6061 45.5457 77.4606 48.6033 74.4031C51.6608 71.3455 55.8061 69.6254 60.1301 69.6201H104.31C108.632 69.6281 112.774 71.3497 115.827 74.4072C118.881 77.4648 120.598 81.6088 120.6 85.9302V130.1C120.598 134.422 118.881 138.565 115.827 141.623C112.774 144.681 108.632 146.402 104.31 146.41ZM60.1301 76.8301C57.7175 76.8327 55.4045 77.7924 53.6985 79.4984C51.9925 81.2044 51.0329 83.5175 51.0303 85.9302V130.1C51.0329 132.513 51.9925 134.826 53.6985 136.532C55.4045 138.238 57.7175 139.197 60.1301 139.2H104.31C106.721 139.195 109.032 138.234 110.736 136.528C112.439 134.823 113.398 132.511 113.4 130.1V85.9302C113.398 83.5192 112.439 81.2077 110.736 79.502C109.032 77.7962 106.721 76.8354 104.31 76.8301H60.1301Z" fill="#670BC1"/>
<path id="Vector_10" d="M117 121.7V130.1C117 133.466 115.663 136.695 113.283 139.077C110.904 141.458 107.676 142.797 104.31 142.8H60.1296C56.7614 142.8 53.5311 141.462 51.1494 139.08C48.7677 136.698 47.4297 133.468 47.4297 130.1V116C54.4997 114.48 65.2699 114 78.3499 119.22L86.4397 111.5L91.9597 125.5C91.9597 125.5 93.4397 120.35 98.2197 121.08C103 121.81 110.74 124.4 114.05 122.19C114.942 121.675 115.99 121.501 117 121.7Z" fill="#670BC1"/>
<path id="Vector_11" d="M101.539 94.9498C104.251 94.9498 106.449 92.7516 106.449 90.0399C106.449 87.3282 104.251 85.1299 101.539 85.1299C98.8273 85.1299 96.6289 87.3282 96.6289 90.0399C96.6289 92.7516 98.8273 94.9498 101.539 94.9498Z" fill="#670BC1"/>
</g>
</svg>
