<svg width="201" height="240" viewBox="0 0 201 240" fill="none" xmlns="http://www.w3.org/2000/svg">
<g id="TXT">
<g id="Group" opacity="0.3">
<path id="Vector" opacity="0.3" d="M140.529 49.25C135.061 49.2447 129.818 47.0709 125.951 43.2053C122.083 39.3398 119.907 34.0979 119.899 28.6299V0H27.7693C20.6323 0 13.7876 2.83523 8.74097 7.88184C3.69436 12.9284 0.859375 19.7729 0.859375 26.9099V189.13C0.859375 196.267 3.69436 203.112 8.74097 208.158C13.7876 213.205 20.6323 216.04 27.7693 216.04H138.369C145.506 216.04 152.351 213.205 157.397 208.158C162.444 203.112 165.279 196.267 165.279 189.13V49.25H140.529Z" fill="#0072FF"/>
</g>
<path id="Vector_2" d="M165.279 49.25H140.529C135.061 49.2447 129.818 47.0709 125.95 43.2053C122.083 39.3398 119.906 34.0979 119.898 28.6299V0L165.279 49.25Z" fill="#0072FF"/>
<path id="Vector_3" d="M131.459 83.73H28.2087C27.2176 83.7273 26.268 83.3324 25.5671 82.6316C24.8663 81.9308 24.4714 80.9811 24.4688 79.99C24.4687 78.9972 24.8624 78.0448 25.5635 77.3418C26.2646 76.6388 27.2159 76.2426 28.2087 76.24H131.459C132.452 76.2426 133.403 76.6388 134.104 77.3418C134.805 78.0448 135.199 78.9972 135.199 79.99C135.196 80.9811 134.801 81.9308 134.1 82.6316C133.4 83.3324 132.45 83.7273 131.459 83.73Z" fill="#0072FF"/>
<path id="Vector_4" d="M131.459 106.1H28.2087C27.2176 106.097 26.268 105.703 25.5671 105.002C24.8663 104.301 24.4714 103.351 24.4688 102.36C24.4687 101.367 24.8624 100.415 25.5635 99.7119C26.2646 99.0089 27.2159 98.6128 28.2087 98.6101H131.459C132.452 98.6128 133.403 99.0089 134.104 99.7119C134.805 100.415 135.199 101.367 135.199 102.36C135.196 103.351 134.801 104.301 134.1 105.002C133.4 105.703 132.45 106.097 131.459 106.1Z" fill="#0072FF"/>
<path id="Vector_5" d="M131.459 128.47H28.2087C27.2159 128.467 26.2646 128.071 25.5635 127.368C24.8624 126.665 24.4687 125.713 24.4688 124.72C24.4714 123.729 24.8663 122.779 25.5671 122.078C26.268 121.378 27.2176 120.983 28.2087 120.98H131.459C132.45 120.983 133.4 121.378 134.1 122.078C134.801 122.779 135.196 123.729 135.199 124.72C135.199 125.713 134.805 126.665 134.104 127.368C133.403 128.071 132.452 128.467 131.459 128.47Z" fill="#0072FF"/>
<path id="Vector_6" d="M131.459 150.83H28.2087C27.2168 150.83 26.2656 150.436 25.5642 149.735C24.8628 149.033 24.4688 148.082 24.4688 147.09C24.4687 146.097 24.8624 145.145 25.5635 144.442C26.2646 143.739 27.2159 143.343 28.2087 143.34H131.459C132.452 143.343 133.403 143.739 134.104 144.442C134.805 145.145 135.199 146.097 135.199 147.09C135.199 148.082 134.805 149.033 134.103 149.735C133.402 150.436 132.451 150.83 131.459 150.83Z" fill="#0072FF"/>
<path id="Vector_7" d="M184.799 170.61H59.7593C50.8896 170.61 43.6992 177.8 43.6992 186.67V223.95C43.6992 232.82 50.8896 240.01 59.7593 240.01H184.799C193.669 240.01 200.859 232.82 200.859 223.95V186.67C200.859 177.8 193.669 170.61 184.799 170.61Z" fill="#0072FF"/>
<path id="Vector_8" d="M86.4207 213.38V220.65H78.8906V213.38H86.4207Z" fill="white"/>
<path id="Vector_9" d="M111.808 190.58V196.37H103.638V220.65H96.3284V196.37H88.2383V190.58H111.808Z" fill="white"/>
<path id="Vector_10" d="M133.119 220.65L126.779 211.29L121.329 220.65H112.999L122.609 205.17L112.699 190.58H121.329L127.499 199.64L132.819 190.58H141.109L131.629 205.72L141.749 220.65H133.119Z" fill="white"/>
<path id="Vector_11" d="M166.157 190.58V196.37H157.998V220.65H150.677V196.37H142.598V190.58H166.157Z" fill="white"/>
</g>
</svg>
