<svg width="201" height="240" viewBox="0 0 201 240" fill="none" xmlns="http://www.w3.org/2000/svg">
<g id="WAV">
<g id="Group" opacity="0.3">
<path id="Vector" opacity="0.3" d="M140.381 49.24C134.914 49.2347 129.672 47.0606 125.806 43.1947C121.94 39.3288 119.766 34.0871 119.761 28.62V1.85821e-06H27.631C24.0963 -0.00131167 20.5959 0.693768 17.3298 2.04553C14.0638 3.3973 11.0962 5.37928 8.59631 7.87824C6.09643 10.3772 4.11336 13.3442 2.76038 16.6097C1.4074 19.8752 0.710937 23.3753 0.710938 26.91V189.13C0.721538 196.262 3.56273 203.098 8.61035 208.136C13.658 213.174 20.4992 216.003 27.631 216H138.231C141.765 216 145.264 215.304 148.529 213.952C151.794 212.599 154.76 210.617 157.259 208.118C159.758 205.619 161.74 202.653 163.093 199.388C164.445 196.123 165.141 192.624 165.141 189.09V49.24H140.381Z" fill="#016E2D"/>
</g>
<path id="Vector_2" d="M165.142 49.24H140.382C134.915 49.2347 129.673 47.0606 125.807 43.1947C121.941 39.3288 119.767 34.0871 119.762 28.62V0L165.142 49.24Z" fill="#016E2D"/>
<path id="Vector_3" d="M184.662 170.6H59.6224C50.7527 170.6 43.5625 177.79 43.5625 186.66V223.94C43.5625 232.81 50.7527 240 59.6224 240H184.662C193.532 240 200.722 232.81 200.722 223.94V186.66C200.722 177.79 193.532 170.6 184.662 170.6Z" fill="#016E2D"/>
<path id="Vector_4" d="M72.0613 213.37V220.64H64.5312V213.37H72.0613Z" fill="white"/>
<path id="Vector_5" d="M116.721 190.57L109.531 220.64H100.531L95.7314 200.52L90.8815 220.64H81.8815L74.6914 190.57H82.6014L86.4714 212.35L91.7515 190.57H99.7515L105.031 212.35L108.941 190.57H116.721Z" fill="white"/>
<path id="Vector_6" d="M139.183 215.15H127.903L126.033 220.64H118.383L129.383 190.78H137.763L148.763 220.64H141.023L139.183 215.15ZM137.303 209.62L133.563 198.57L129.783 209.62H137.303Z" fill="white"/>
<path id="Vector_7" d="M157.21 190.57L164.57 213.2L171.93 190.57H179.71L169.25 220.64H159.85L149.43 190.57H157.21Z" fill="white"/>
<path id="Vector_8" d="M120.942 131.92H109.942V87.6601C109.942 86.1775 109.354 84.7557 108.305 83.7074C107.257 82.659 105.835 82.0701 104.352 82.0701H76.3524C74.8699 82.0701 73.448 82.659 72.3997 83.7074C71.3513 84.7557 70.7625 86.1775 70.7625 87.6601V131.92H59.8125V83.9201C59.8125 80.52 61.1632 77.2592 63.5674 74.855C65.9716 72.4508 69.2324 71.1001 72.6324 71.1001H108.042C111.443 71.1001 114.703 72.4508 117.108 74.855C119.512 77.2592 120.862 80.52 120.862 83.9201L120.942 131.92Z" fill="#016E2D"/>
<path id="Vector_9" d="M107.96 144.9C115.129 144.9 120.94 139.089 120.94 131.92C120.94 124.751 115.129 118.94 107.96 118.94C100.792 118.94 94.9805 124.751 94.9805 131.92C94.9805 139.089 100.792 144.9 107.96 144.9Z" fill="#016E2D"/>
<path id="Vector_10" d="M57.9019 144.9C65.0705 144.9 70.8818 139.089 70.8818 131.92C70.8818 124.751 65.0705 118.94 57.9019 118.94C50.7332 118.94 44.9219 124.751 44.9219 131.92C44.9219 139.089 50.7332 144.9 57.9019 144.9Z" fill="#016E2D"/>
</g>
</svg>
