<svg width="200" height="240" viewBox="0 0 200 240" fill="none" xmlns="http://www.w3.org/2000/svg">
<g id="WMA">
<g id="Group" opacity="0.3">
<path id="Vector" opacity="0.3" d="M139.67 49.24C134.203 49.2347 128.961 47.0606 125.095 43.1947C121.229 39.3288 119.055 34.0871 119.05 28.62V0H26.91C19.7748 -4.92664e-07 12.9316 2.83379 7.88528 7.87823C2.83897 12.9227 0.00265152 19.7648 0 26.9V189.12C0.0079507 196.252 2.84661 203.089 7.89235 208.129C12.9381 213.169 19.7782 216 26.91 216H137.51C141.045 216.001 144.545 215.306 147.811 213.954C151.077 212.603 154.045 210.621 156.545 208.122C159.045 205.623 161.028 202.656 162.381 199.39C163.734 196.125 164.43 192.625 164.43 189.09V49.24H139.67Z" fill="#FF9908"/>
</g>
<path id="Vector_2" d="M164.431 49.24H139.671C134.204 49.2347 128.962 47.0606 125.096 43.1947C121.23 39.3288 119.056 34.0871 119.051 28.62V0L164.431 49.24Z" fill="#FF9908"/>
<path id="Vector_3" d="M183.94 170.6H58.8998C50.0302 170.6 42.8398 177.79 42.8398 186.66V223.94C42.8398 232.81 50.0302 240 58.8998 240H183.94C192.81 240 200 232.81 200 223.94V186.66C200 177.79 192.81 170.6 183.94 170.6Z" fill="#FF9908"/>
<path id="Vector_4" d="M66.9987 213.37V220.64H59.4688V213.37H66.9987Z" fill="white"/>
<path id="Vector_5" d="M111.659 190.57L104.469 220.64H95.4689L90.6689 200.52L85.8189 220.64H76.8189L69.6289 190.57H77.5389L81.4089 212.35L86.6889 190.57H94.6889L99.9689 212.35L103.879 190.57H111.659Z" fill="white"/>
<path id="Vector_6" d="M149.299 190.78V220.64H141.999V202L135.529 220.67H129.239L122.729 201.96V220.67H115.449V190.81H124.339L132.469 211.61L140.419 190.81L149.299 190.78Z" fill="white"/>
<path id="Vector_7" d="M172.998 215.15H161.678L159.798 220.64H152.148L163.148 190.78H171.528L182.528 220.64H174.788L172.998 215.15ZM171.128 209.62L167.378 198.57L163.598 209.62H171.128Z" fill="white"/>
<path id="Vector_8" d="M117.65 131.92H106.7V87.6601C106.7 86.1775 106.111 84.7557 105.062 83.7074C104.014 82.659 102.592 82.0701 101.11 82.0701H73.1095C71.627 82.0701 70.2052 82.659 69.1568 83.7074C68.1085 84.7557 67.5195 86.1775 67.5195 87.6601V131.92H56.5195V83.9201C56.5222 80.5191 57.8751 77.2583 60.2809 74.8544C62.6867 72.4504 65.9486 71.1001 69.3495 71.1001H104.76C108.16 71.1001 111.42 72.4508 113.825 74.855C116.229 77.2592 117.58 80.52 117.58 83.9201L117.65 131.92Z" fill="#FF9908"/>
<path id="Vector_9" d="M104.671 144.9C111.84 144.9 117.651 139.089 117.651 131.92C117.651 124.751 111.84 118.94 104.671 118.94C97.5027 118.94 91.6914 124.751 91.6914 131.92C91.6914 139.089 97.5027 144.9 104.671 144.9Z" fill="#FF9908"/>
<path id="Vector_10" d="M54.6011 144.9C61.7697 144.9 67.5811 139.089 67.5811 131.92C67.5811 124.751 61.7697 118.94 54.6011 118.94C47.4324 118.94 41.6211 124.751 41.6211 131.92C41.6211 139.089 47.4324 144.9 54.6011 144.9Z" fill="#FF9908"/>
</g>
</svg>
