<svg width="201" height="240" viewBox="0 0 201 240" fill="none" xmlns="http://www.w3.org/2000/svg">
<g id="XML">
<g id="Group" opacity="0.3">
<path id="Vector" opacity="0.3" d="M140.1 49.24C134.633 49.2347 129.391 47.0606 125.525 43.1947C121.659 39.3288 119.485 34.0871 119.48 28.62V0H27.3398C20.2029 0 13.3581 2.83514 8.31152 7.88174C3.26492 12.9283 0.429687 19.773 0.429688 26.91V189.13C0.440286 196.26 3.28023 203.094 8.32568 208.132C13.3711 213.17 20.2098 216 27.3398 216H137.94C145.077 216 151.921 213.165 156.968 208.118C162.015 203.072 164.85 196.227 164.85 189.09V49.24H140.1Z" fill="#670BC1"/>
</g>
<path id="Vector_2" d="M164.851 49.24H140.101C134.633 49.2347 129.392 47.0606 125.526 43.1947C121.66 39.3288 119.486 34.0871 119.48 28.62V0L164.851 49.24Z" fill="#670BC1"/>
<path id="Vector_3" d="M184.37 170.6H59.3296C50.4599 170.6 43.2695 177.79 43.2695 186.66V223.94C43.2695 232.81 50.4599 240 59.3296 240H184.37C193.239 240 200.429 232.81 200.429 223.94V186.66C200.429 177.79 193.239 170.6 184.37 170.6Z" fill="#670BC1"/>
<path id="Vector_4" d="M81.2683 213.37V220.64H73.7383V213.37H81.2683Z" fill="white"/>
<path id="Vector_5" d="M103.301 220.64L96.9607 211.28L91.5208 220.64H83.1807L92.8008 205.16L82.8906 190.57H91.5208L97.6907 199.63L103.001 190.57H111.301L101.811 205.71L111.941 220.64H103.301Z" fill="white"/>
<path id="Vector_6" d="M148.558 190.78V220.64H141.278V202L134.818 220.67H128.518L122.018 201.96V220.67H114.738V190.81H123.628L131.758 211.61L139.708 190.81L148.558 190.78Z" fill="white"/>
<path id="Vector_7" d="M160.851 215.07H170.551V220.64H153.551V190.57H160.831L160.851 215.07Z" fill="white"/>
<path id="Vector_8" d="M40.9385 114.19C40.9246 113.76 41.055 113.338 41.3086 112.99C41.612 112.6 41.9766 112.263 42.3885 111.99C43.0123 111.667 43.6572 111.387 44.3186 111.15L46.2486 110.35L53.9685 107.1C55.0419 106.6 57.0419 105.767 59.9685 104.6L63.6385 103.1L64.9585 102.63L65.1885 102.53C65.2511 102.517 65.3158 102.517 65.3784 102.53C65.5265 102.465 65.6868 102.431 65.8487 102.43C66.1584 102.413 66.4683 102.458 66.7603 102.563C67.0523 102.668 67.3204 102.83 67.5486 103.04C67.7422 103.222 67.8961 103.442 68.001 103.687C68.1059 103.931 68.1595 104.194 68.1585 104.46V107C68.1489 107.471 68.0031 107.93 67.7386 108.32C67.4604 108.756 67.0453 109.086 66.5586 109.26L50.7886 115.71L66.5586 122.16C67.0281 122.354 67.436 122.672 67.7386 123.08C68.0135 123.454 68.1607 123.906 68.1585 124.37V126.91C68.1587 127.179 68.1048 127.445 68 127.692C67.8952 127.94 67.7418 128.163 67.5486 128.35C67.3241 128.567 67.057 128.735 66.7644 128.843C66.4719 128.951 66.1602 128.998 65.8487 128.98C65.6879 128.978 65.5285 128.948 65.3784 128.89L64.9585 128.75L63.6385 128.28L59.9986 126.8L53.9986 124.31L46.2786 121.06L44.3487 120.26C43.7287 120.01 43.0785 119.73 42.4185 119.41C42.0089 119.219 41.6582 118.922 41.4031 118.549C41.148 118.176 40.998 117.741 40.9685 117.29L40.9385 114.19Z" fill="#670BC1"/>
<path id="Vector_9" d="M88.0503 131.7C87.5498 131.712 87.055 131.592 86.616 131.351C86.1769 131.111 85.8093 130.759 85.5503 130.33C85.3355 130.022 85.1639 129.685 85.0403 129.33L84.7102 128.44L77.5103 112.53L76.9902 111.35C76.3902 110.07 75.2303 107.53 73.5103 103.73C71.2769 98.8968 70.1602 96.2467 70.1602 95.7801C70.1604 95.4989 70.2247 95.2214 70.3477 94.9685C70.4706 94.7156 70.6494 94.494 70.8704 94.3201C71.3693 93.8983 72.0072 93.6772 72.6602 93.7001H75.0002C75.4933 93.6916 75.9798 93.8139 76.4102 94.0545C76.8405 94.2952 77.1993 94.6456 77.4502 95.0701L77.9702 96.0701L78.3003 96.9601L80.1802 101.1L85.5002 112.87L86.2002 114.37L89.5002 121.62C90.7653 124.221 91.8805 126.892 92.8403 129.62C92.8385 129.9 92.7738 130.175 92.6509 130.426C92.528 130.677 92.3498 130.897 92.1301 131.07C91.6317 131.493 90.9934 131.714 90.3403 131.69L88.0503 131.7Z" fill="#670BC1"/>
<path id="Vector_10" d="M96.7587 129C96.4394 129.021 96.1191 128.976 95.818 128.867C95.5169 128.759 95.2415 128.59 95.0087 128.37C94.624 127.989 94.4047 127.472 94.3986 126.93V124.39C94.394 123.929 94.5341 123.478 94.7987 123.1C95.0979 122.68 95.5158 122.36 95.9987 122.18L111.819 115.73L95.9987 109.29C95.5183 109.08 95.1112 108.732 94.8288 108.29C94.5562 107.911 94.406 107.457 94.3986 106.99V104.41C94.3952 104.146 94.4469 103.885 94.5502 103.642C94.6535 103.399 94.8063 103.181 94.9987 103C95.4688 102.577 96.0872 102.358 96.7187 102.39C96.8648 102.388 97.0092 102.422 97.1386 102.49C97.2246 102.475 97.3126 102.475 97.3986 102.49L97.6088 102.59C97.5488 102.59 97.9686 102.71 98.8786 103.06L102.599 104.56C102.405 104.473 104.405 105.307 108.599 107.06C110.885 108 113.505 109.113 116.459 110.4L117.209 110.68L118.289 111.11C118.925 111.336 119.541 111.617 120.129 111.95C120.549 112.142 120.907 112.446 121.165 112.829C121.423 113.212 121.569 113.659 121.589 114.12V117.22C121.58 117.645 121.44 118.057 121.189 118.4C120.909 118.788 120.547 119.109 120.129 119.34C119.559 119.62 118.889 119.92 118.129 120.24L116.129 121.04L98.7087 128.33C98.2087 128.58 97.9088 128.74 97.8188 128.8L97.6286 128.94L96.7587 129Z" fill="#670BC1"/>
</g>
</svg>
