<svg width="201" height="240" viewBox="0 0 201 240" fill="none" xmlns="http://www.w3.org/2000/svg">
<g id="XSL">
<g id="Group" opacity="0.3">
<path id="Vector" opacity="0.3" d="M140.1 49.25C134.633 49.2447 129.391 47.0704 125.525 43.2046C121.659 39.3387 119.485 34.097 119.48 28.6299V0H27.3398C20.2029 0 13.3581 2.83523 8.31152 7.88184C3.26492 12.9284 0.429687 19.7729 0.429688 26.9099V189.13C0.429688 196.267 3.26492 203.112 8.31152 208.158C13.3581 213.205 20.2029 216.04 27.3398 216.04H137.94C145.077 216.04 151.921 213.205 156.968 208.158C162.015 203.112 164.85 196.267 164.85 189.13V49.25H140.1Z" fill="#016E2D"/>
</g>
<path id="Vector_2" d="M164.851 49.25H140.101C134.633 49.2447 129.392 47.0704 125.526 43.2046C121.66 39.3387 119.486 34.097 119.48 28.6299V0L164.851 49.25Z" fill="#016E2D"/>
<path id="Vector_3" d="M184.37 170.61H59.3296C50.4599 170.61 43.2695 177.8 43.2695 186.67V223.95C43.2695 232.82 50.4599 240.01 59.3296 240.01H184.37C193.239 240.01 200.429 232.82 200.429 223.95V186.67C200.429 177.8 193.239 170.61 184.37 170.61Z" fill="#016E2D"/>
<path id="Vector_4" d="M87.8582 213.38V220.65H80.3281V213.38H87.8582Z" fill="white"/>
<path id="Vector_5" d="M109.89 220.65L103.561 211.29L98.1106 220.65H89.7805L99.3904 205.17L89.4805 190.58H98.1106L104.281 199.64L109.601 190.58H117.89L108.41 205.72L118.531 220.65H109.89Z" fill="white"/>
<path id="Vector_6" d="M141.728 216.57C140.866 217.951 139.627 219.057 138.158 219.76C136.37 220.597 134.412 221.005 132.438 220.95C129.461 221.075 126.527 220.206 124.098 218.48C123.024 217.673 122.145 216.635 121.527 215.443C120.909 214.25 120.567 212.933 120.528 211.59H128.268C128.324 212.603 128.755 213.559 129.478 214.27C130.198 214.941 131.154 215.301 132.138 215.27C132.539 215.293 132.941 215.238 133.32 215.105C133.699 214.973 134.049 214.767 134.348 214.5C134.615 214.241 134.825 213.93 134.964 213.585C135.104 213.241 135.17 212.871 135.158 212.5C135.168 212.147 135.107 211.797 134.978 211.468C134.849 211.14 134.655 210.842 134.408 210.59C133.879 210.054 133.251 209.626 132.558 209.33C131.832 209.01 130.812 208.62 129.498 208.16C127.905 207.634 126.348 207.003 124.838 206.27C123.598 205.631 122.533 204.697 121.738 203.55C120.816 202.162 120.36 200.515 120.438 198.85C120.402 197.2 120.877 195.579 121.798 194.21C122.744 192.872 124.052 191.831 125.568 191.21C127.316 190.499 129.192 190.159 131.078 190.21C133.942 190.052 136.771 190.897 139.078 192.6C140.061 193.399 140.865 194.394 141.44 195.522C142.015 196.65 142.348 197.886 142.418 199.15H134.548C134.461 198.265 134.081 197.435 133.468 196.79C133.156 196.49 132.785 196.258 132.379 196.106C131.973 195.955 131.541 195.888 131.108 195.91C130.359 195.876 129.622 196.118 129.038 196.59C128.769 196.845 128.559 197.157 128.425 197.503C128.29 197.848 128.233 198.22 128.258 198.59C128.243 199.262 128.495 199.913 128.958 200.4C129.456 200.919 130.055 201.332 130.718 201.61C131.428 201.92 132.448 202.32 133.778 202.8C135.401 203.329 136.982 203.977 138.508 204.74C139.755 205.412 140.83 206.364 141.648 207.52C142.581 208.93 143.044 210.6 142.968 212.29C142.955 213.803 142.526 215.284 141.728 216.57Z" fill="white"/>
<path id="Vector_7" d="M154.26 215.08H164V220.65H147V190.58H154.28L154.26 215.08Z" fill="white"/>
<path id="Vector_8" d="M119.321 150.84H46.0005C39.6505 150.84 34.4805 144.52 34.4805 136.74V83.55C34.4805 75.78 39.6505 69.46 46.0005 69.46H119.351C125.691 69.46 130.861 75.78 130.861 83.55V136.74C130.831 144.52 125.661 150.84 119.321 150.84ZM46.0005 76.6599C42.8905 76.6599 40.3706 79.75 40.3706 83.55V136.74C40.3706 140.54 42.8905 143.63 46.0005 143.63H119.351C122.451 143.63 124.97 140.54 124.97 136.74V83.55C124.97 79.75 122.451 76.6599 119.351 76.6599H46.0005Z" fill="#016E2D"/>
<path id="Vector_9" d="M127.888 118.81H37.3984V126.02H127.888V118.81Z" fill="#016E2D"/>
<path id="Vector_10" d="M127.888 94.0901H37.3984V101.3H127.888V94.0901Z" fill="#016E2D"/>
<path id="Vector_11" d="M104.71 73.0601H97.5V147.23H104.71V73.0601Z" fill="#016E2D"/>
<path id="Vector_12" d="M67.7803 73.0601H60.5703V147.23H67.7803V73.0601Z" fill="#016E2D"/>
</g>
</svg>
