<svg width="90" height="27" viewBox="0 0 90 27" fill="none" xmlns="http://www.w3.org/2000/svg">
<rect width="90" height="27" fill="white"/>
<path d="M18.7061 13.5937L17.1623 15.1375C16.3061 15.9937 16.3061 17.375 17.1623 18.2312C18.0186 19.0875 19.3998 19.0875 20.2561 18.2312L22.6873 15.8C24.3936 14.0937 24.3936 11.3187 22.6873 9.61245C20.9811 7.9062 18.2061 7.9062 16.4998 9.61245L13.8498 12.2625C12.3873 13.725 12.3873 16.1 13.8498 17.5687" stroke="black" stroke-width="1.5" stroke-linecap="round" stroke-linejoin="round"/>
<path d="M41.988 16.012H38.844L38.34 17.5H36.192L39.24 9.076H41.616L44.664 17.5H42.492L41.988 16.012ZM41.46 14.428L40.416 11.344L39.384 14.428H41.46ZM49.3237 15.76V17.5H48.2797C47.5357 17.5 46.9557 17.32 46.5397 16.96C46.1237 16.592 45.9157 15.996 45.9157 15.172V12.508H45.0997V10.804H45.9157V9.172H47.9677V10.804H49.3117V12.508H47.9677V15.196C47.9677 15.396 48.0157 15.54 48.1117 15.628C48.2077 15.716 48.3677 15.76 48.5917 15.76H49.3237ZM54.1987 15.76V17.5H53.1547C52.4107 17.5 51.8307 17.32 51.4147 16.96C50.9987 16.592 50.7907 15.996 50.7907 15.172V12.508H49.9747V10.804H50.7907V9.172H52.8427V10.804H54.1867V12.508H52.8427V15.196C52.8427 15.396 52.8907 15.54 52.9867 15.628C53.0827 15.716 53.2427 15.76 53.4667 15.76H54.1987ZM54.9337 14.14C54.9337 13.452 55.0617 12.848 55.3177 12.328C55.5817 11.808 55.9377 11.408 56.3857 11.128C56.8337 10.848 57.3337 10.708 57.8857 10.708C58.3577 10.708 58.7697 10.804 59.1217 10.996C59.4817 11.188 59.7577 11.44 59.9497 11.752V10.804H62.0017V17.5H59.9497V16.552C59.7497 16.864 59.4697 17.116 59.1097 17.308C58.7577 17.5 58.3457 17.596 57.8737 17.596C57.3297 17.596 56.8337 17.456 56.3857 17.176C55.9377 16.888 55.5817 16.484 55.3177 15.964C55.0617 15.436 54.9337 14.828 54.9337 14.14ZM59.9497 14.152C59.9497 13.64 59.8057 13.236 59.5177 12.94C59.2377 12.644 58.8937 12.496 58.4857 12.496C58.0777 12.496 57.7297 12.644 57.4417 12.94C57.1617 13.228 57.0217 13.628 57.0217 14.14C57.0217 14.652 57.1617 15.06 57.4417 15.364C57.7297 15.66 58.0777 15.808 58.4857 15.808C58.8937 15.808 59.2377 15.66 59.5177 15.364C59.8057 15.068 59.9497 14.664 59.9497 14.152ZM63.0782 14.152C63.0782 13.456 63.2182 12.848 63.4982 12.328C63.7862 11.808 64.1822 11.408 64.6862 11.128C65.1982 10.848 65.7822 10.708 66.4382 10.708C67.2782 10.708 67.9782 10.928 68.5382 11.368C69.1062 11.808 69.4782 12.428 69.6542 13.228H67.4702C67.2862 12.716 66.9302 12.46 66.4022 12.46C66.0262 12.46 65.7262 12.608 65.5022 12.904C65.2782 13.192 65.1662 13.608 65.1662 14.152C65.1662 14.696 65.2782 15.116 65.5022 15.412C65.7262 15.7 66.0262 15.844 66.4022 15.844C66.9302 15.844 67.2862 15.588 67.4702 15.076H69.6542C69.4782 15.86 69.1062 16.476 68.5382 16.924C67.9702 17.372 67.2702 17.596 66.4382 17.596C65.7822 17.596 65.1982 17.456 64.6862 17.176C64.1822 16.896 63.7862 16.496 63.4982 15.976C63.2182 15.456 63.0782 14.848 63.0782 14.152ZM74.8678 10.732C75.6358 10.732 76.2518 10.988 76.7158 11.5C77.1798 12.004 77.4118 12.7 77.4118 13.588V17.5H75.3718V13.864C75.3718 13.416 75.2558 13.068 75.0238 12.82C74.7918 12.572 74.4798 12.448 74.0878 12.448C73.6958 12.448 73.3838 12.572 73.1518 12.82C72.9198 13.068 72.8038 13.416 72.8038 13.864V17.5H70.7518V8.62H72.8038V11.704C73.0118 11.408 73.2958 11.172 73.6558 10.996C74.0158 10.82 74.4198 10.732 74.8678 10.732Z" fill="black"/>
</svg>
