<svg width="81" height="18" viewBox="0 0 81 18" fill="none" xmlns="http://www.w3.org/2000/svg">
<path fill-rule="evenodd" clip-rule="evenodd" d="M8.38744 3.23774L10.1718 6.7733L13.6062 7.11357C13.7732 7.12745 13.9168 7.23718 13.9741 7.39462C14.0314 7.55206 13.9919 7.72845 13.8729 7.84639L11.0464 10.6481L12.0944 14.4551C12.1381 14.62 12.0811 14.7953 11.9487 14.9029C11.8162 15.0105 11.633 15.0304 11.4805 14.9538L7.99867 13.2295L4.5216 14.9516C4.36914 15.0283 4.1859 15.0084 4.05345 14.9008C3.921 14.7932 3.86398 14.6179 3.90778 14.453L4.9557 10.6459L2.12711 7.84426C2.00813 7.72632 1.96861 7.54993 2.02589 7.39249C2.08318 7.23505 2.22681 7.12531 2.39376 7.11144L5.82817 6.77116L7.6099 3.23774C7.68461 3.0918 7.83473 3 7.99867 3C8.1626 3 8.31273 3.0918 8.38744 3.23774Z" stroke="#969BA0" stroke-width="1.5" stroke-linecap="round" stroke-linejoin="round"/>
<path d="M20.4753 8.812C20.4753 7.996 20.6633 7.264 21.0393 6.616C21.4233 5.968 21.9393 5.464 22.5873 5.104C23.2433 4.736 23.9593 4.552 24.7353 4.552C25.6233 4.552 26.4113 4.772 27.0993 5.212C27.7953 5.644 28.2993 6.26 28.6113 7.06H26.9673C26.7513 6.62 26.4513 6.292 26.0673 6.076C25.6833 5.86 25.2393 5.752 24.7353 5.752C24.1833 5.752 23.6913 5.876 23.2593 6.124C22.8273 6.372 22.4873 6.728 22.2393 7.192C21.9993 7.656 21.8793 8.196 21.8793 8.812C21.8793 9.428 21.9993 9.968 22.2393 10.432C22.4873 10.896 22.8273 11.256 23.2593 11.512C23.6913 11.76 24.1833 11.884 24.7353 11.884C25.2393 11.884 25.6833 11.776 26.0673 11.56C26.4513 11.344 26.7513 11.016 26.9673 10.576H28.6113C28.2993 11.376 27.7953 11.992 27.0993 12.424C26.4113 12.856 25.6233 13.072 24.7353 13.072C23.9513 13.072 23.2353 12.892 22.5873 12.532C21.9393 12.164 21.4233 11.656 21.0393 11.008C20.6633 10.36 20.4753 9.628 20.4753 8.812ZM33.0805 13.108C32.4565 13.108 31.8925 12.968 31.3885 12.688C30.8845 12.4 30.4885 12 30.2005 11.488C29.9125 10.968 29.7685 10.368 29.7685 9.688C29.7685 9.016 29.9165 8.42 30.2125 7.9C30.5085 7.38 30.9125 6.98 31.4245 6.7C31.9365 6.42 32.5085 6.28 33.1405 6.28C33.7725 6.28 34.3445 6.42 34.8565 6.7C35.3685 6.98 35.7725 7.38 36.0685 7.9C36.3645 8.42 36.5125 9.016 36.5125 9.688C36.5125 10.36 36.3605 10.956 36.0565 11.476C35.7525 11.996 35.3365 12.4 34.8085 12.688C34.2885 12.968 33.7125 13.108 33.0805 13.108ZM33.0805 11.92C33.4325 11.92 33.7605 11.836 34.0645 11.668C34.3765 11.5 34.6285 11.248 34.8205 10.912C35.0125 10.576 35.1085 10.168 35.1085 9.688C35.1085 9.208 35.0165 8.804 34.8325 8.476C34.6485 8.14 34.4045 7.888 34.1005 7.72C33.7965 7.552 33.4685 7.468 33.1165 7.468C32.7645 7.468 32.4365 7.552 32.1325 7.72C31.8365 7.888 31.6005 8.14 31.4245 8.476C31.2485 8.804 31.1605 9.208 31.1605 9.688C31.1605 10.4 31.3405 10.952 31.7005 11.344C32.0685 11.728 32.5285 11.92 33.0805 11.92ZM39.2328 4.12V13H37.8648V4.12H39.2328ZM42.3969 4.12V13H41.0289V4.12H42.3969ZM50.253 9.532C50.253 9.78 50.237 10.004 50.205 10.204H45.153C45.193 10.732 45.389 11.156 45.741 11.476C46.093 11.796 46.525 11.956 47.037 11.956C47.773 11.956 48.293 11.648 48.597 11.032H50.073C49.873 11.64 49.509 12.14 48.981 12.532C48.461 12.916 47.813 13.108 47.037 13.108C46.405 13.108 45.837 12.968 45.333 12.688C44.837 12.4 44.445 12 44.157 11.488C43.877 10.968 43.737 10.368 43.737 9.688C43.737 9.008 43.873 8.412 44.145 7.9C44.425 7.38 44.813 6.98 45.309 6.7C45.813 6.42 46.389 6.28 47.037 6.28C47.661 6.28 48.217 6.416 48.705 6.688C49.193 6.96 49.573 7.344 49.845 7.84C50.117 8.328 50.253 8.892 50.253 9.532ZM48.825 9.1C48.817 8.596 48.637 8.192 48.285 7.888C47.933 7.584 47.497 7.432 46.977 7.432C46.505 7.432 46.101 7.584 45.765 7.888C45.429 8.184 45.229 8.588 45.165 9.1H48.825ZM51.1432 9.688C51.1432 9.008 51.2792 8.412 51.5512 7.9C51.8312 7.38 52.2152 6.98 52.7032 6.7C53.1912 6.42 53.7512 6.28 54.3832 6.28C55.1832 6.28 55.8432 6.472 56.3632 6.856C56.8912 7.232 57.2472 7.772 57.4312 8.476H55.9552C55.8352 8.148 55.6432 7.892 55.3792 7.708C55.1152 7.524 54.7832 7.432 54.3832 7.432C53.8232 7.432 53.3752 7.632 53.0392 8.032C52.7112 8.424 52.5472 8.976 52.5472 9.688C52.5472 10.4 52.7112 10.956 53.0392 11.356C53.3752 11.756 53.8232 11.956 54.3832 11.956C55.1752 11.956 55.6992 11.608 55.9552 10.912H57.4312C57.2392 11.584 56.8792 12.12 56.3512 12.52C55.8232 12.912 55.1672 13.108 54.3832 13.108C53.7512 13.108 53.1912 12.968 52.7032 12.688C52.2152 12.4 51.8312 12 51.5512 11.488C51.2792 10.968 51.1432 10.368 51.1432 9.688ZM60.3905 7.504V11.164C60.3905 11.412 60.4465 11.592 60.5585 11.704C60.6785 11.808 60.8785 11.86 61.1585 11.86H61.9985V13H60.9185C60.3025 13 59.8305 12.856 59.5025 12.568C59.1745 12.28 59.0105 11.812 59.0105 11.164V7.504H58.2305V6.388H59.0105V4.744H60.3905V6.388H61.9985V7.504H60.3905ZM63.9554 5.512C63.7074 5.512 63.4994 5.428 63.3314 5.26C63.1634 5.092 63.0794 4.884 63.0794 4.636C63.0794 4.388 63.1634 4.18 63.3314 4.012C63.4994 3.844 63.7074 3.76 63.9554 3.76C64.1954 3.76 64.3994 3.844 64.5674 4.012C64.7354 4.18 64.8194 4.388 64.8194 4.636C64.8194 4.884 64.7354 5.092 64.5674 5.26C64.3994 5.428 64.1954 5.512 63.9554 5.512ZM64.6274 6.388V13H63.2594V6.388H64.6274ZM69.2914 13.108C68.6674 13.108 68.1034 12.968 67.5994 12.688C67.0954 12.4 66.6994 12 66.4114 11.488C66.1234 10.968 65.9794 10.368 65.9794 9.688C65.9794 9.016 66.1274 8.42 66.4234 7.9C66.7194 7.38 67.1234 6.98 67.6354 6.7C68.1474 6.42 68.7194 6.28 69.3514 6.28C69.9834 6.28 70.5554 6.42 71.0674 6.7C71.5794 6.98 71.9834 7.38 72.2794 7.9C72.5754 8.42 72.7234 9.016 72.7234 9.688C72.7234 10.36 72.5714 10.956 72.2674 11.476C71.9634 11.996 71.5474 12.4 71.0194 12.688C70.4994 12.968 69.9234 13.108 69.2914 13.108ZM69.2914 11.92C69.6434 11.92 69.9714 11.836 70.2754 11.668C70.5874 11.5 70.8394 11.248 71.0314 10.912C71.2234 10.576 71.3194 10.168 71.3194 9.688C71.3194 9.208 71.2274 8.804 71.0434 8.476C70.8594 8.14 70.6154 7.888 70.3114 7.72C70.0074 7.552 69.6794 7.468 69.3274 7.468C68.9754 7.468 68.6474 7.552 68.3434 7.72C68.0474 7.888 67.8114 8.14 67.6354 8.476C67.4594 8.804 67.3714 9.208 67.3714 9.688C67.3714 10.4 67.5514 10.952 67.9114 11.344C68.2794 11.728 68.7394 11.92 69.2914 11.92ZM77.4118 6.28C77.9318 6.28 78.3958 6.388 78.8038 6.604C79.2198 6.82 79.5438 7.14 79.7758 7.564C80.0078 7.988 80.1238 8.5 80.1238 9.1V13H78.7678V9.304C78.7678 8.712 78.6198 8.26 78.3238 7.948C78.0278 7.628 77.6238 7.468 77.1118 7.468C76.5998 7.468 76.1918 7.628 75.8878 7.948C75.5918 8.26 75.4438 8.712 75.4438 9.304V13H74.0758V6.388H75.4438V7.144C75.6678 6.872 75.9518 6.66 76.2958 6.508C76.6478 6.356 77.0198 6.28 77.4118 6.28Z" fill="#969BA0"/>
</svg>
