<svg width="59" height="18" viewBox="0 0 59 18" fill="none" xmlns="http://www.w3.org/2000/svg">
<path d="M12.4727 6.44052V13.6787C12.4727 14.2944 12.2408 14.8848 11.828 15.3201C11.4152 15.7554 10.8553 16 10.2715 16H4.73301C4.14923 16 3.58936 15.7554 3.17657 15.3201C2.76378 14.8848 2.53187 14.2944 2.53187 13.6787V6.44052C2.38983 6.4375 2.25458 6.37588 2.15514 6.26888C2.0557 6.16188 2 6.01803 2 5.86821C2 5.71839 2.0557 5.57454 2.15514 5.46754C2.25458 5.36054 2.38983 5.29892 2.53187 5.2959V5.29474H4.8981C5.00836 4.65102 5.32953 4.06861 5.80553 3.64919C6.28152 3.22977 6.88209 3 7.50237 3C8.12265 3 8.72322 3.22977 9.19922 3.64919C9.67521 4.06861 9.99638 4.65102 10.1067 5.29474H12.4727V5.29613C12.6139 5.30037 12.748 5.36252 12.8464 5.46936C12.9449 5.57621 13 5.71933 13 5.86833C13 6.01732 12.9449 6.16044 12.8464 6.26729C12.748 6.37413 12.6139 6.43628 12.4727 6.44052ZM7.50226 4.1478C7.17013 4.15054 6.84709 4.26252 6.57819 4.46812C6.30929 4.67372 6.10793 4.96269 6.00219 5.29474H9.00234C8.8966 4.96269 8.69524 4.67372 8.42634 4.46812C8.15743 4.26252 7.83439 4.15054 7.50226 4.1478V4.1478ZM11.4075 6.44168H3.597V13.4603C3.597 13.8297 3.73615 14.1839 3.98382 14.4451C4.2315 14.7063 4.56742 14.8531 4.91769 14.8531H10.0868C10.4371 14.8531 10.773 14.7063 11.0207 14.4451C11.2684 14.1839 11.4075 13.8297 11.4075 13.4603V6.44191V6.44168ZM8.74415 12.5589C8.67422 12.5589 8.60498 12.5444 8.54038 12.5162C8.47578 12.488 8.41709 12.4466 8.36764 12.3945C8.3182 12.3423 8.27898 12.2804 8.25222 12.2123C8.22546 12.1442 8.21169 12.0712 8.21169 11.9974V9.29732C8.21169 9.14836 8.2678 9.00551 8.36768 8.90018C8.46755 8.79485 8.60301 8.73568 8.74426 8.73568C8.8855 8.73568 9.02096 8.79485 9.12084 8.90018C9.22071 9.00551 9.27682 9.14836 9.27682 9.29732V11.9974C9.27688 12.1463 9.22087 12.2891 9.1211 12.3945C9.02134 12.4998 8.88598 12.5591 8.74481 12.5592L8.74415 12.5589ZM6.25906 12.5589C6.18914 12.5589 6.1199 12.5444 6.0553 12.5162C5.9907 12.488 5.932 12.4466 5.88256 12.3945C5.83311 12.3423 5.79389 12.2804 5.76714 12.2123C5.74038 12.1442 5.7266 12.0712 5.7266 11.9974V9.29732C5.7266 9.14836 5.78271 9.00551 5.88259 8.90018C5.98247 8.79485 6.11792 8.73568 6.25917 8.73568C6.40042 8.73568 6.53588 8.79485 6.63575 8.90018C6.73563 9.00551 6.79174 9.14836 6.79174 9.29732V11.9974C6.79179 12.1463 6.73578 12.2891 6.63602 12.3945C6.53625 12.4998 6.4009 12.5591 6.25972 12.5592L6.25906 12.5589Z" fill="#969BA0"/>
<path d="M23.9463 4.66C24.8343 4.66 25.6103 4.832 26.2743 5.176C26.9463 5.512 27.4623 6 27.8223 6.64C28.1903 7.272 28.3743 8.012 28.3743 8.86C28.3743 9.708 28.1903 10.444 27.8223 11.068C27.4623 11.692 26.9463 12.172 26.2743 12.508C25.6103 12.836 24.8343 13 23.9463 13H21.2223V4.66H23.9463ZM23.9463 11.884C24.9223 11.884 25.6703 11.62 26.1903 11.092C26.7103 10.564 26.9703 9.82 26.9703 8.86C26.9703 7.892 26.7103 7.136 26.1903 6.592C25.6703 6.048 24.9223 5.776 23.9463 5.776H22.5903V11.884H23.9463ZM35.7901 9.532C35.7901 9.78 35.7741 10.004 35.7421 10.204H30.6901C30.7301 10.732 30.9261 11.156 31.2781 11.476C31.6301 11.796 32.0621 11.956 32.5741 11.956C33.3101 11.956 33.8301 11.648 34.1341 11.032H35.6101C35.4101 11.64 35.0461 12.14 34.5181 12.532C33.9981 12.916 33.3501 13.108 32.5741 13.108C31.9421 13.108 31.3741 12.968 30.8701 12.688C30.3741 12.4 29.9821 12 29.6941 11.488C29.4141 10.968 29.2741 10.368 29.2741 9.688C29.2741 9.008 29.4101 8.412 29.6821 7.9C29.9621 7.38 30.3501 6.98 30.8461 6.7C31.3501 6.42 31.9261 6.28 32.5741 6.28C33.1981 6.28 33.7541 6.416 34.2421 6.688C34.7301 6.96 35.1101 7.344 35.3821 7.84C35.6541 8.328 35.7901 8.892 35.7901 9.532ZM34.3621 9.1C34.3541 8.596 34.1741 8.192 33.8221 7.888C33.4701 7.584 33.0341 7.432 32.5141 7.432C32.0421 7.432 31.6381 7.584 31.3021 7.888C30.9661 8.184 30.7661 8.588 30.7021 9.1H34.3621ZM38.5043 4.12V13H37.1363V4.12H38.5043ZM46.3604 9.532C46.3604 9.78 46.3444 10.004 46.3124 10.204H41.2604C41.3004 10.732 41.4964 11.156 41.8484 11.476C42.2004 11.796 42.6324 11.956 43.1444 11.956C43.8804 11.956 44.4004 11.648 44.7044 11.032H46.1804C45.9804 11.64 45.6164 12.14 45.0884 12.532C44.5684 12.916 43.9204 13.108 43.1444 13.108C42.5124 13.108 41.9444 12.968 41.4404 12.688C40.9444 12.4 40.5524 12 40.2644 11.488C39.9844 10.968 39.8444 10.368 39.8444 9.688C39.8444 9.008 39.9804 8.412 40.2524 7.9C40.5324 7.38 40.9204 6.98 41.4164 6.7C41.9204 6.42 42.4964 6.28 43.1444 6.28C43.7684 6.28 44.3244 6.416 44.8124 6.688C45.3004 6.96 45.6804 7.344 45.9524 7.84C46.2244 8.328 46.3604 8.892 46.3604 9.532ZM44.9324 9.1C44.9244 8.596 44.7444 8.192 44.3924 7.888C44.0404 7.584 43.6044 7.432 43.0844 7.432C42.6124 7.432 42.2084 7.584 41.8724 7.888C41.5364 8.184 41.3364 8.588 41.2724 9.1H44.9324ZM49.3026 7.504V11.164C49.3026 11.412 49.3586 11.592 49.4706 11.704C49.5906 11.808 49.7906 11.86 50.0706 11.86H50.9106V13H49.8306C49.2146 13 48.7426 12.856 48.4146 12.568C48.0866 12.28 47.9226 11.812 47.9226 11.164V7.504H47.1426V6.388H47.9226V4.744H49.3026V6.388H50.9106V7.504H49.3026ZM58.2315 9.532C58.2315 9.78 58.2155 10.004 58.1835 10.204H53.1315C53.1715 10.732 53.3675 11.156 53.7195 11.476C54.0715 11.796 54.5035 11.956 55.0155 11.956C55.7515 11.956 56.2715 11.648 56.5755 11.032H58.0515C57.8515 11.64 57.4875 12.14 56.9595 12.532C56.4395 12.916 55.7915 13.108 55.0155 13.108C54.3835 13.108 53.8155 12.968 53.3115 12.688C52.8155 12.4 52.4235 12 52.1355 11.488C51.8555 10.968 51.7155 10.368 51.7155 9.688C51.7155 9.008 51.8515 8.412 52.1235 7.9C52.4035 7.38 52.7915 6.98 53.2875 6.7C53.7915 6.42 54.3675 6.28 55.0155 6.28C55.6395 6.28 56.1955 6.416 56.6835 6.688C57.1715 6.96 57.5515 7.344 57.8235 7.84C58.0955 8.328 58.2315 8.892 58.2315 9.532ZM56.8035 9.1C56.7955 8.596 56.6155 8.192 56.2635 7.888C55.9115 7.584 55.4755 7.432 54.9555 7.432C54.4835 7.432 54.0795 7.584 53.7435 7.888C53.4075 8.184 53.2075 8.588 53.1435 9.1H56.8035Z" fill="#969BA0"/>
</svg>
