<svg width="24" height="24" viewBox="0 0 24 24" fill="none" xmlns="http://www.w3.org/2000/svg">
<path d="M16.4688 20.7187L6.625 20.7187C5.18125 20.7187 4 19.5375 4 18.0938L4 5.625C4 4.18125 5.18125 3 6.625 3L13.8766 3C14.5656 3 15.2219 3.2625 15.7469 3.75469L18.3391 6.34687C18.8312 6.83906 19.0937 7.49531 19.0937 8.21719L19.0937 18.0937C19.0937 19.5375 17.9125 20.7187 16.4688 20.7187ZM5.3125 5.625L5.3125 18.0937C5.3125 18.8156 5.90312 19.4062 6.625 19.4062L16.4687 19.4062C17.1906 19.4062 17.7812 18.8156 17.7812 18.0937L17.7812 8.57812L15.8125 8.57812C14.3687 8.57812 13.1875 7.39687 13.1875 5.95312L13.1875 4.3125L6.625 4.3125C5.90312 4.3125 5.3125 4.90312 5.3125 5.625ZM14.7953 4.70625C14.6969 4.60781 14.5984 4.54219 14.5 4.47656L14.5 5.95312C14.5 6.675 15.0906 7.26562 15.8125 7.26562L17.3547 7.26562L14.7953 4.70625Z" fill="#333333"/>
<path d="M10.6925 11.6859H9.76604V10.5838C9.76604 10.3439 9.81261 10.1202 9.90575 9.91275C9.99888 9.70533 10.1276 9.52289 10.2918 9.36545C10.456 9.208 10.6496 9.0843 10.8727 8.99433C11.0957 8.90436 11.3396 8.85938 11.6043 8.85938C11.8396 8.85938 12.0663 8.90436 12.2844 8.99433C12.5026 9.0843 12.6962 9.208 12.8653 9.36545C13.0344 9.52289 13.1692 9.70533 13.2697 9.91275C13.3702 10.1202 13.4205 10.3439 13.4205 10.5838V11.6859H12.5307V10.7937C12.5307 10.4788 12.445 10.2351 12.2734 10.0627C12.1018 9.89026 11.869 9.80404 11.5749 9.80404C11.3102 9.80404 11.0969 9.89026 10.9352 10.0627C10.7734 10.2351 10.6925 10.4788 10.6925 10.7937V11.6859ZM13.8616 11.6732C13.994 11.6732 14.108 11.722 14.2035 11.8194C14.2991 11.9169 14.3469 12.0331 14.3469 12.168V14.4922C14.3469 14.6272 14.3236 14.7534 14.2771 14.8708C14.2305 14.9883 14.1668 15.0908 14.0859 15.1782C14.005 15.2657 13.9094 15.3344 13.7991 15.3844C13.6888 15.4344 13.5675 15.4594 13.4352 15.4594H9.72192C9.58957 15.4594 9.46947 15.4344 9.36163 15.3844C9.25379 15.3344 9.16187 15.2682 9.08589 15.1857C9.00991 15.1033 8.95109 15.007 8.90942 14.8971C8.86776 14.7871 8.84692 14.6697 8.84692 14.5447V12.168C8.84692 12.0331 8.89349 11.9169 8.98663 11.8194C9.07977 11.722 9.19251 11.6732 9.32486 11.6732H9.76604H10.6925H12.5307H13.4205H13.8616Z" fill="#333333"/>
</svg>
