<svg width="15" height="15" viewBox="0 0 15 15" fill="none" xmlns="http://www.w3.org/2000/svg">
<path d="M3.37524 1.3125H11.6252C12.3127 1.3125 12.8752 1.875 12.8752 2.5625V3.9375C12.8752 4.4375 12.5627 5.0625 12.2502 5.375L9.56274 7.75C9.18774 8.0625 8.93774 8.6875 8.93774 9.1875V11.875C8.93774 12.25 8.68774 12.75 8.37524 12.9375L7.50024 13.5C6.68774 14 5.56274 13.4375 5.56274 12.4375V9.125C5.56274 8.6875 5.31274 8.125 5.06274 7.8125L2.68774 5.3125C2.37524 5 2.12524 4.4375 2.12524 4.0625V2.625C2.12524 1.875 2.68774 1.3125 3.37524 1.3125Z" stroke="#7F7F7F" stroke-miterlimit="10" stroke-linecap="round" stroke-linejoin="round"/>
<path d="M6.83125 1.3125L3.75 6.25" stroke="#7F7F7F" stroke-miterlimit="10" stroke-linecap="round" stroke-linejoin="round"/>
</svg>
