<svg width="169" height="38" viewBox="0 0 169 38" fill="none" xmlns="http://www.w3.org/2000/svg">
<rect x="0.108398" y="3.77881" width="123.711" height="31.5909" fill="#F4F8FF"/>
<rect x="0.108398" y="0.268799" width="168.041" height="37.1068" rx="5.81818" fill="#F3F7FF"/>
<path d="M45.2545 21.081H42.3445L41.8445 22.501H40.6545L43.1445 15.541H44.4645L46.9545 22.501H45.7545L45.2545 21.081ZM44.9345 20.151L43.8045 16.921L42.6645 20.151H44.9345ZM49.1771 17.801C49.3704 17.5476 49.6338 17.3343 49.9671 17.161C50.3004 16.9876 50.6771 16.901 51.0971 16.901C51.5771 16.901 52.0138 17.021 52.4071 17.261C52.8071 17.4943 53.1204 17.8243 53.3471 18.251C53.5738 18.6776 53.6871 19.1676 53.6871 19.721C53.6871 20.2743 53.5738 20.771 53.3471 21.211C53.1204 21.6443 52.8071 21.9843 52.4071 22.231C52.0138 22.471 51.5771 22.591 51.0971 22.591C50.6771 22.591 50.3038 22.5076 49.9771 22.341C49.6504 22.1676 49.3838 21.9543 49.1771 21.701V25.121H48.0371V16.991H49.1771V17.801ZM52.5271 19.721C52.5271 19.341 52.4471 19.0143 52.2871 18.741C52.1338 18.461 51.9271 18.251 51.6671 18.111C51.4138 17.9643 51.1404 17.891 50.8471 17.891C50.5604 17.891 50.2871 17.9643 50.0271 18.111C49.7738 18.2576 49.5671 18.471 49.4071 18.751C49.2538 19.031 49.1771 19.361 49.1771 19.741C49.1771 20.121 49.2538 20.4543 49.4071 20.741C49.5671 21.021 49.7738 21.2343 50.0271 21.381C50.2871 21.5276 50.5604 21.601 50.8471 21.601C51.1404 21.601 51.4138 21.5276 51.6671 21.381C51.9271 21.2276 52.1338 21.0076 52.2871 20.721C52.4471 20.4343 52.5271 20.101 52.5271 19.721ZM55.9545 17.801C56.1478 17.5476 56.4111 17.3343 56.7445 17.161C57.0778 16.9876 57.4545 16.901 57.8745 16.901C58.3545 16.901 58.7911 17.021 59.1845 17.261C59.5845 17.4943 59.8978 17.8243 60.1245 18.251C60.3511 18.6776 60.4645 19.1676 60.4645 19.721C60.4645 20.2743 60.3511 20.771 60.1245 21.211C59.8978 21.6443 59.5845 21.9843 59.1845 22.231C58.7911 22.471 58.3545 22.591 57.8745 22.591C57.4545 22.591 57.0811 22.5076 56.7545 22.341C56.4278 22.1676 56.1611 21.9543 55.9545 21.701V25.121H54.8145V16.991H55.9545V17.801ZM59.3045 19.721C59.3045 19.341 59.2245 19.0143 59.0645 18.741C58.9111 18.461 58.7045 18.251 58.4445 18.111C58.1911 17.9643 57.9178 17.891 57.6245 17.891C57.3378 17.891 57.0645 17.9643 56.8045 18.111C56.5511 18.2576 56.3445 18.471 56.1845 18.751C56.0311 19.031 55.9545 19.361 55.9545 19.741C55.9545 20.121 56.0311 20.4543 56.1845 20.741C56.3445 21.021 56.5511 21.2343 56.8045 21.381C57.0645 21.5276 57.3378 21.601 57.6245 21.601C57.9178 21.601 58.1911 21.5276 58.4445 21.381C58.7045 21.2276 58.9111 21.0076 59.0645 20.721C59.2245 20.4343 59.3045 20.101 59.3045 19.721ZM62.7318 15.101V22.501H61.5918V15.101H62.7318ZM64.8085 16.261C64.6018 16.261 64.4285 16.191 64.2885 16.051C64.1485 15.911 64.0785 15.7376 64.0785 15.531C64.0785 15.3243 64.1485 15.151 64.2885 15.011C64.4285 14.871 64.6018 14.801 64.8085 14.801C65.0085 14.801 65.1785 14.871 65.3185 15.011C65.4585 15.151 65.5285 15.3243 65.5285 15.531C65.5285 15.7376 65.4585 15.911 65.3185 16.051C65.1785 16.191 65.0085 16.261 64.8085 16.261ZM65.3685 16.991V22.501H64.2285V16.991H65.3685ZM66.4852 19.741C66.4852 19.1743 66.5986 18.6776 66.8252 18.251C67.0586 17.8176 67.3786 17.4843 67.7852 17.251C68.1919 17.0176 68.6586 16.901 69.1852 16.901C69.8519 16.901 70.4019 17.061 70.8352 17.381C71.2752 17.6943 71.5719 18.1443 71.7252 18.731H70.4952C70.3952 18.4576 70.2352 18.2443 70.0152 18.091C69.7952 17.9376 69.5186 17.861 69.1852 17.861C68.7186 17.861 68.3452 18.0276 68.0652 18.361C67.7919 18.6876 67.6552 19.1476 67.6552 19.741C67.6552 20.3343 67.7919 20.7976 68.0652 21.131C68.3452 21.4643 68.7186 21.631 69.1852 21.631C69.8452 21.631 70.2819 21.341 70.4952 20.761H71.7252C71.5652 21.321 71.2652 21.7676 70.8252 22.101C70.3852 22.4276 69.8386 22.591 69.1852 22.591C68.6586 22.591 68.1919 22.4743 67.7852 22.241C67.3786 22.001 67.0586 21.6676 66.8252 21.241C66.5986 20.8076 66.4852 20.3076 66.4852 19.741ZM72.4813 19.721C72.4813 19.1676 72.5947 18.6776 72.8213 18.251C73.0547 17.8243 73.368 17.4943 73.7613 17.261C74.1613 17.021 74.6013 16.901 75.0813 16.901C75.5147 16.901 75.8913 16.9876 76.2113 17.161C76.538 17.3276 76.798 17.5376 76.9913 17.791V16.991H78.1413V22.501H76.9913V21.681C76.798 21.941 76.5347 22.1576 76.2013 22.331C75.868 22.5043 75.488 22.591 75.0613 22.591C74.588 22.591 74.1547 22.471 73.7613 22.231C73.368 21.9843 73.0547 21.6443 72.8213 21.211C72.5947 20.771 72.4813 20.2743 72.4813 19.721ZM76.9913 19.741C76.9913 19.361 76.9113 19.031 76.7513 18.751C76.598 18.471 76.3947 18.2576 76.1413 18.111C75.888 17.9643 75.6147 17.891 75.3213 17.891C75.028 17.891 74.7547 17.9643 74.5013 18.111C74.248 18.251 74.0413 18.461 73.8813 18.741C73.728 19.0143 73.6513 19.341 73.6513 19.721C73.6513 20.101 73.728 20.4343 73.8813 20.721C74.0413 21.0076 74.248 21.2276 74.5013 21.381C74.7613 21.5276 75.0347 21.601 75.3213 21.601C75.6147 21.601 75.888 21.5276 76.1413 21.381C76.3947 21.2343 76.598 21.021 76.7513 20.741C76.9113 20.4543 76.9913 20.121 76.9913 19.741ZM80.9687 17.921V20.971C80.9687 21.1776 81.0153 21.3276 81.1087 21.421C81.2087 21.5076 81.3753 21.551 81.6087 21.551H82.3087V22.501H81.4087C80.8953 22.501 80.502 22.381 80.2287 22.141C79.9553 21.901 79.8187 21.511 79.8187 20.971V17.921H79.1687V16.991H79.8187V15.621H80.9687V16.991H82.3087V17.921H80.9687ZM83.9394 16.261C83.7327 16.261 83.5594 16.191 83.4194 16.051C83.2794 15.911 83.2094 15.7376 83.2094 15.531C83.2094 15.3243 83.2794 15.151 83.4194 15.011C83.5594 14.871 83.7327 14.801 83.9394 14.801C84.1394 14.801 84.3094 14.871 84.4494 15.011C84.5894 15.151 84.6594 15.3243 84.6594 15.531C84.6594 15.7376 84.5894 15.911 84.4494 16.051C84.3094 16.191 84.1394 16.261 83.9394 16.261ZM84.4994 16.991V22.501H83.3594V16.991H84.4994ZM88.3861 22.591C87.8661 22.591 87.3961 22.4743 86.9761 22.241C86.5561 22.001 86.2261 21.6676 85.9861 21.241C85.7461 20.8076 85.6261 20.3076 85.6261 19.741C85.6261 19.181 85.7494 18.6843 85.9961 18.251C86.2428 17.8176 86.5794 17.4843 87.0061 17.251C87.4328 17.0176 87.9094 16.901 88.4361 16.901C88.9628 16.901 89.4394 17.0176 89.8661 17.251C90.2928 17.4843 90.6294 17.8176 90.8761 18.251C91.1228 18.6843 91.2461 19.181 91.2461 19.741C91.2461 20.301 91.1194 20.7976 90.8661 21.231C90.6128 21.6643 90.2661 22.001 89.8261 22.241C89.3928 22.4743 88.9128 22.591 88.3861 22.591ZM88.3861 21.601C88.6794 21.601 88.9528 21.531 89.2061 21.391C89.4661 21.251 89.6761 21.041 89.8361 20.761C89.9961 20.481 90.0761 20.141 90.0761 19.741C90.0761 19.341 89.9994 19.0043 89.8461 18.731C89.6928 18.451 89.4894 18.241 89.2361 18.101C88.9828 17.961 88.7094 17.891 88.4161 17.891C88.1228 17.891 87.8494 17.961 87.5961 18.101C87.3494 18.241 87.1528 18.451 87.0061 18.731C86.8594 19.0043 86.7861 19.341 86.7861 19.741C86.7861 20.3343 86.9361 20.7943 87.2361 21.121C87.5428 21.441 87.9261 21.601 88.3861 21.601ZM95.153 16.901C95.5864 16.901 95.973 16.991 96.313 17.171C96.6597 17.351 96.9297 17.6176 97.123 17.971C97.3164 18.3243 97.413 18.751 97.413 19.251V22.501H96.283V19.421C96.283 18.9276 96.1597 18.551 95.913 18.291C95.6664 18.0243 95.3297 17.891 94.903 17.891C94.4764 17.891 94.1364 18.0243 93.883 18.291C93.6364 18.551 93.513 18.9276 93.513 19.421V22.501H92.373V16.991H93.513V17.621C93.6997 17.3943 93.9364 17.2176 94.223 17.091C94.5164 16.9643 94.8264 16.901 95.153 16.901ZM99.3272 22.571C99.1205 22.571 98.9472 22.501 98.8072 22.361C98.6672 22.221 98.5972 22.0476 98.5972 21.841C98.5972 21.6343 98.6672 21.461 98.8072 21.321C98.9472 21.181 99.1205 21.111 99.3272 21.111C99.5272 21.111 99.6972 21.181 99.8372 21.321C99.9772 21.461 100.047 21.6343 100.047 21.841C100.047 22.0476 99.9772 22.221 99.8372 22.361C99.6972 22.501 99.5272 22.571 99.3272 22.571ZM102.419 17.801C102.613 17.5476 102.876 17.3343 103.209 17.161C103.543 16.9876 103.919 16.901 104.339 16.901C104.819 16.901 105.256 17.021 105.649 17.261C106.049 17.4943 106.363 17.8243 106.589 18.251C106.816 18.6776 106.929 19.1676 106.929 19.721C106.929 20.2743 106.816 20.771 106.589 21.211C106.363 21.6443 106.049 21.9843 105.649 22.231C105.256 22.471 104.819 22.591 104.339 22.591C103.919 22.591 103.546 22.5076 103.219 22.341C102.893 22.1676 102.626 21.9543 102.419 21.701V25.121H101.279V16.991H102.419V17.801ZM105.769 19.721C105.769 19.341 105.689 19.0143 105.529 18.741C105.376 18.461 105.169 18.251 104.909 18.111C104.656 17.9643 104.383 17.891 104.089 17.891C103.803 17.891 103.529 17.9643 103.269 18.111C103.016 18.2576 102.809 18.471 102.649 18.751C102.496 19.031 102.419 19.361 102.419 19.741C102.419 20.121 102.496 20.4543 102.649 20.741C102.809 21.021 103.016 21.2343 103.269 21.381C103.529 21.5276 103.803 21.601 104.089 21.601C104.383 21.601 104.656 21.5276 104.909 21.381C105.169 21.2276 105.376 21.0076 105.529 20.721C105.689 20.4343 105.769 20.101 105.769 19.721ZM107.677 19.721C107.677 19.1676 107.79 18.6776 108.017 18.251C108.25 17.8243 108.563 17.4943 108.957 17.261C109.357 17.021 109.8 16.901 110.287 16.901C110.647 16.901 111 16.981 111.347 17.141C111.7 17.2943 111.98 17.501 112.187 17.761V15.101H113.337V22.501H112.187V21.671C112 21.9376 111.74 22.1576 111.407 22.331C111.08 22.5043 110.703 22.591 110.277 22.591C109.797 22.591 109.357 22.471 108.957 22.231C108.563 21.9843 108.25 21.6443 108.017 21.211C107.79 20.771 107.677 20.2743 107.677 19.721ZM112.187 19.741C112.187 19.361 112.107 19.031 111.947 18.751C111.793 18.471 111.59 18.2576 111.337 18.111C111.083 17.9643 110.81 17.891 110.517 17.891C110.223 17.891 109.95 17.9643 109.697 18.111C109.443 18.251 109.237 18.461 109.077 18.741C108.923 19.0143 108.847 19.341 108.847 19.721C108.847 20.101 108.923 20.4343 109.077 20.721C109.237 21.0076 109.443 21.2276 109.697 21.381C109.957 21.5276 110.23 21.601 110.517 21.601C110.81 21.601 111.083 21.5276 111.337 21.381C111.59 21.2343 111.793 21.021 111.947 20.741C112.107 20.4543 112.187 20.121 112.187 19.741ZM117.144 17.921H116.124V22.501H114.974V17.921H114.324V16.991H114.974V16.601C114.974 15.9676 115.141 15.5076 115.474 15.221C115.814 14.9276 116.344 14.781 117.064 14.781V15.731C116.717 15.731 116.474 15.7976 116.334 15.931C116.194 16.0576 116.124 16.281 116.124 16.601V16.991H117.144V17.921Z" fill="#6FB1FF"/>
<rect x="11.355" y="9.04395" width="22.493" height="21.0606" rx="5.81818" fill="#FF7878" fill-opacity="0.2"/>
<path d="M23.8794 12.7295L28.4802 17.1169V24.3565C28.4802 25.2049 27.7594 25.8924 26.8699 25.8924H18.5884C17.6989 25.8924 16.978 25.2043 16.978 24.3565V14.2653C16.9781 13.417 17.6989 12.7295 18.5885 12.7295H23.8794Z" fill="#E94848"/>
<path d="M21.9216 17.5562C21.7747 17.558 21.6346 17.6142 21.5317 17.7123C21.4287 17.8105 21.3714 17.9427 21.3721 18.0803C21.3721 18.4375 21.5804 18.8815 21.8002 19.2985C21.6277 19.8106 21.4334 20.3587 21.1848 20.8218C20.6756 21.012 20.2212 21.1538 19.9484 21.3638C19.8941 21.4141 19.8511 21.474 19.8219 21.5401C19.7927 21.6062 19.7779 21.677 19.7783 21.7485C19.7783 22.0357 20.0263 22.2727 20.328 22.2727C20.4032 22.2736 20.4778 22.2599 20.547 22.2323C20.6162 22.2046 20.6785 22.1638 20.7299 22.1124C20.9305 21.8832 21.1676 21.468 21.3791 21.0886C21.8654 20.9061 22.3759 20.72 22.868 20.6088C23.2271 20.8846 23.7473 21.0671 24.1747 21.0671C24.4763 21.0671 24.7243 20.8307 24.7243 20.5429C24.7248 20.4055 24.6674 20.2734 24.5645 20.1754C24.4616 20.0774 24.3215 20.0213 24.1747 20.0195C23.8316 20.0195 23.3332 20.1361 22.9524 20.2588C22.6315 19.9711 22.3622 19.637 22.1549 19.2692C22.3012 18.8407 22.4712 18.4123 22.4712 18.0803C22.4719 17.9427 22.4145 17.8105 22.3116 17.7123C22.2087 17.6142 22.0685 17.558 21.9216 17.5562ZM21.9216 17.8703C22.0449 17.8703 22.1414 17.9624 22.1414 18.0797C22.1414 18.237 22.0533 18.5272 21.951 18.8383C21.8143 18.5356 21.7018 18.2448 21.7018 18.0803C21.7018 17.9625 21.7983 17.8709 21.9216 17.8709V17.8703ZM22.0162 19.6641C22.1798 19.9125 22.3708 20.1441 22.5862 20.3551C22.2603 20.44 21.9421 20.5489 21.6277 20.6626C21.7798 20.3365 21.9011 19.9973 22.0162 19.6635V19.6641ZM24.1748 20.3341C24.2981 20.3341 24.3946 20.4257 24.3946 20.5435C24.3946 20.6608 24.2981 20.753 24.1747 20.753C23.9268 20.753 23.5754 20.6465 23.2936 20.4975C23.6169 20.4101 23.9691 20.3336 24.1747 20.3336V20.3341H24.1748ZM20.8947 21.2723C20.74 21.5356 20.5867 21.7808 20.4793 21.9041C20.4592 21.9222 20.4354 21.9362 20.4094 21.9455C20.3834 21.9547 20.3557 21.959 20.3279 21.958C20.2986 21.958 20.2697 21.9527 20.2427 21.9421C20.2158 21.9316 20.1913 21.9161 20.1709 21.8966C20.1504 21.8771 20.1343 21.8539 20.1235 21.8285C20.1127 21.8031 20.1075 21.7759 20.1081 21.7485C20.1085 21.695 20.1291 21.6433 20.1662 21.6026C20.2952 21.5075 20.5758 21.3931 20.8947 21.2723Z" fill="white"/>
<path d="M28.0598 17.1169H25.1505C24.2616 17.1169 23.459 16.3522 23.459 15.5038V12.7295L28.0598 17.1169Z" fill="white" fill-opacity="0.4"/>
<path d="M147.548 17.1746C149.798 17.3683 150.717 18.5246 150.717 21.0558V21.1371C150.717 23.9308 149.598 25.0496 146.804 25.0496H142.736C139.942 25.0496 138.823 23.9308 138.823 21.1371V21.0558C138.823 18.5433 139.729 17.3871 141.942 17.1808" stroke="#6FB1FF" stroke-linecap="round" stroke-linejoin="round"/>
<path d="M144.773 12.8621V20.9121" stroke="#6FB1FF" stroke-linecap="round" stroke-linejoin="round"/>
<path d="M146.867 19.5183L144.773 21.6121L142.68 19.5183" stroke="#6FB1FF" stroke-linecap="round" stroke-linejoin="round"/>
<rect x="0.472035" y="4.14244" width="122.984" height="30.8636" stroke="#F8FAFC" stroke-opacity="0.2" stroke-width="0.727273"/>
</svg>
