<svg width="96" height="18" viewBox="0 0 96 18" fill="none" xmlns="http://www.w3.org/2000/svg">
<path d="M16.58 2.9V17H12.66V9.22L10 17H6.72L4.04 9.16V17H0.12V2.9H4.86L8.4 12.06L11.86 2.9H16.58ZM29.5314 11.26C29.5314 11.5667 29.5114 11.8733 29.4714 12.18H22.0514C22.0914 12.7933 22.2581 13.2533 22.5514 13.56C22.8581 13.8533 23.2447 14 23.7114 14C24.3647 14 24.8314 13.7067 25.1114 13.12H29.2914C29.1181 13.8933 28.7781 14.5867 28.2714 15.2C27.7781 15.8 27.1514 16.2733 26.3914 16.62C25.6314 16.9667 24.7914 17.14 23.8714 17.14C22.7647 17.14 21.7781 16.9067 20.9114 16.44C20.0581 15.9733 19.3847 15.3067 18.8914 14.44C18.4114 13.5733 18.1714 12.5533 18.1714 11.38C18.1714 10.2067 18.4114 9.19333 18.8914 8.34C19.3714 7.47333 20.0381 6.80667 20.8914 6.34C21.7581 5.87333 22.7514 5.64 23.8714 5.64C24.9781 5.64 25.9581 5.86667 26.8114 6.32C27.6647 6.77333 28.3314 7.42667 28.8114 8.28C29.2914 9.12 29.5314 10.1133 29.5314 11.26ZM25.5314 10.28C25.5314 9.8 25.3714 9.42667 25.0514 9.16C24.7314 8.88 24.3314 8.74 23.8514 8.74C23.3714 8.74 22.9781 8.87333 22.6714 9.14C22.3647 9.39333 22.1647 9.77333 22.0714 10.28H25.5314ZM37.7556 13.66V17H36.0556C33.189 17 31.7556 15.58 31.7556 12.74V9.04H30.3756V5.78H31.7556V3.06H35.6956V5.78H37.7356V9.04H35.6956V12.8C35.6956 13.1067 35.7623 13.3267 35.8956 13.46C36.0423 13.5933 36.2823 13.66 36.6156 13.66H37.7556ZM38.9136 11.38C38.9136 10.22 39.1203 9.20667 39.5336 8.34C39.9603 7.47333 40.5336 6.80667 41.2536 6.34C41.9869 5.87333 42.8003 5.64 43.6936 5.64C44.4669 5.64 45.1336 5.79333 45.6936 6.1C46.2536 6.40667 46.6869 6.82 46.9936 7.34V5.78H50.9136V17H46.9936V15.44C46.6869 15.96 46.2469 16.3733 45.6736 16.68C45.1136 16.9867 44.4536 17.14 43.6936 17.14C42.8003 17.14 41.9869 16.9067 41.2536 16.44C40.5336 15.9733 39.9603 15.3067 39.5336 14.44C39.1203 13.56 38.9136 12.54 38.9136 11.38ZM46.9936 11.38C46.9936 10.66 46.7936 10.0933 46.3936 9.68C46.0069 9.26667 45.5269 9.06 44.9536 9.06C44.3669 9.06 43.8803 9.26667 43.4936 9.68C43.1069 10.08 42.9136 10.6467 42.9136 11.38C42.9136 12.1 43.1069 12.6733 43.4936 13.1C43.8803 13.5133 44.3669 13.72 44.9536 13.72C45.5269 13.72 46.0069 13.5133 46.3936 13.1C46.7936 12.6867 46.9936 12.1133 46.9936 11.38ZM69.6073 2.9V17H65.6873V9.22L63.0273 17H59.7473L57.0673 9.16V17H53.1473V2.9H57.8873L61.4273 12.06L64.8873 2.9H69.6073ZM71.1988 11.38C71.1988 10.22 71.4054 9.20667 71.8188 8.34C72.2454 7.47333 72.8188 6.80667 73.5388 6.34C74.2721 5.87333 75.0854 5.64 75.9788 5.64C76.7521 5.64 77.4188 5.79333 77.9788 6.1C78.5388 6.40667 78.9721 6.82 79.2788 7.34V5.78H83.1988V17H79.2788V15.44C78.9721 15.96 78.5321 16.3733 77.9588 16.68C77.3988 16.9867 76.7388 17.14 75.9788 17.14C75.0854 17.14 74.2721 16.9067 73.5388 16.44C72.8188 15.9733 72.2454 15.3067 71.8188 14.44C71.4054 13.56 71.1988 12.54 71.1988 11.38ZM79.2788 11.38C79.2788 10.66 79.0788 10.0933 78.6788 9.68C78.2921 9.26667 77.8121 9.06 77.2388 9.06C76.6521 9.06 76.1654 9.26667 75.7788 9.68C75.3921 10.08 75.1988 10.6467 75.1988 11.38C75.1988 12.1 75.3921 12.6733 75.7788 13.1C76.1654 13.5133 76.6521 13.72 77.2388 13.72C77.8121 13.72 78.2921 13.5133 78.6788 13.1C79.0788 12.6867 79.2788 12.1133 79.2788 11.38ZM87.4125 4.74C86.7192 4.74 86.1592 4.55333 85.7325 4.18C85.3192 3.79333 85.1125 3.31333 85.1125 2.74C85.1125 2.15333 85.3192 1.66667 85.7325 1.28C86.1592 0.893332 86.7192 0.699999 87.4125 0.699999C88.0925 0.699999 88.6392 0.893332 89.0525 1.28C89.4792 1.66667 89.6925 2.15333 89.6925 2.74C89.6925 3.31333 89.4792 3.79333 89.0525 4.18C88.6392 4.55333 88.0925 4.74 87.4125 4.74ZM89.3525 5.78V17H85.4325V5.78H89.3525ZM95.5048 2.2V17H91.5848V2.2H95.5048Z" fill="black"/>
</svg>
