<svg width="125" height="18" viewBox="0 0 125 18" fill="none" xmlns="http://www.w3.org/2000/svg">
<path d="M16.58 2.9V17H12.66V9.22L10 17H6.72L4.04 9.16V17H0.12V2.9H4.86L8.4 12.06L11.86 2.9H16.58ZM29.5314 11.26C29.5314 11.5667 29.5114 11.8733 29.4714 12.18H22.0514C22.0914 12.7933 22.2581 13.2533 22.5514 13.56C22.8581 13.8533 23.2447 14 23.7114 14C24.3647 14 24.8314 13.7067 25.1114 13.12H29.2914C29.1181 13.8933 28.7781 14.5867 28.2714 15.2C27.7781 15.8 27.1514 16.2733 26.3914 16.62C25.6314 16.9667 24.7914 17.14 23.8714 17.14C22.7647 17.14 21.7781 16.9067 20.9114 16.44C20.0581 15.9733 19.3847 15.3067 18.8914 14.44C18.4114 13.5733 18.1714 12.5533 18.1714 11.38C18.1714 10.2067 18.4114 9.19333 18.8914 8.34C19.3714 7.47333 20.0381 6.80667 20.8914 6.34C21.7581 5.87333 22.7514 5.64 23.8714 5.64C24.9781 5.64 25.9581 5.86667 26.8114 6.32C27.6647 6.77333 28.3314 7.42667 28.8114 8.28C29.2914 9.12 29.5314 10.1133 29.5314 11.26ZM25.5314 10.28C25.5314 9.8 25.3714 9.42667 25.0514 9.16C24.7314 8.88 24.3314 8.74 23.8514 8.74C23.3714 8.74 22.9781 8.87333 22.6714 9.14C22.3647 9.39333 22.1647 9.77333 22.0714 10.28H25.5314ZM37.7556 13.66V17H36.0556C33.189 17 31.7556 15.58 31.7556 12.74V9.04H30.3756V5.78H31.7556V3.06H35.6956V5.78H37.7356V9.04H35.6956V12.8C35.6956 13.1067 35.7623 13.3267 35.8956 13.46C36.0423 13.5933 36.2823 13.66 36.6156 13.66H37.7556ZM38.9136 11.38C38.9136 10.22 39.1203 9.20667 39.5336 8.34C39.9603 7.47333 40.5336 6.80667 41.2536 6.34C41.9869 5.87333 42.8003 5.64 43.6936 5.64C44.4669 5.64 45.1336 5.79333 45.6936 6.1C46.2536 6.40667 46.6869 6.82 46.9936 7.34V5.78H50.9136V17H46.9936V15.44C46.6869 15.96 46.2469 16.3733 45.6736 16.68C45.1136 16.9867 44.4536 17.14 43.6936 17.14C42.8003 17.14 41.9869 16.9067 41.2536 16.44C40.5336 15.9733 39.9603 15.3067 39.5336 14.44C39.1203 13.56 38.9136 12.54 38.9136 11.38ZM46.9936 11.38C46.9936 10.66 46.7936 10.0933 46.3936 9.68C46.0069 9.26667 45.5269 9.06 44.9536 9.06C44.3669 9.06 43.8803 9.26667 43.4936 9.68C43.1069 10.08 42.9136 10.6467 42.9136 11.38C42.9136 12.1 43.1069 12.6733 43.4936 13.1C43.8803 13.5133 44.3669 13.72 44.9536 13.72C45.5269 13.72 46.0069 13.5133 46.3936 13.1C46.7936 12.6867 46.9936 12.1133 46.9936 11.38ZM69.6073 2.9V17H65.6873V9.22L63.0273 17H59.7473L57.0673 9.16V17H53.1473V2.9H57.8873L61.4273 12.06L64.8873 2.9H69.6073ZM71.1988 11.38C71.1988 10.22 71.4054 9.20667 71.8188 8.34C72.2454 7.47333 72.8188 6.80667 73.5388 6.34C74.2721 5.87333 75.0854 5.64 75.9788 5.64C76.7521 5.64 77.4188 5.79333 77.9788 6.1C78.5388 6.40667 78.9721 6.82 79.2788 7.34V5.78H83.1988V17H79.2788V15.44C78.9721 15.96 78.5321 16.3733 77.9588 16.68C77.3988 16.9867 76.7388 17.14 75.9788 17.14C75.0854 17.14 74.2721 16.9067 73.5388 16.44C72.8188 15.9733 72.2454 15.3067 71.8188 14.44C71.4054 13.56 71.1988 12.54 71.1988 11.38ZM79.2788 11.38C79.2788 10.66 79.0788 10.0933 78.6788 9.68C78.2921 9.26667 77.8121 9.06 77.2388 9.06C76.6521 9.06 76.1654 9.26667 75.7788 9.68C75.3921 10.08 75.1988 10.6467 75.1988 11.38C75.1988 12.1 75.3921 12.6733 75.7788 13.1C76.1654 13.5133 76.6521 13.72 77.2388 13.72C77.8121 13.72 78.2921 13.5133 78.6788 13.1C79.0788 12.6867 79.2788 12.1133 79.2788 11.38ZM87.4125 4.74C86.7192 4.74 86.1592 4.55333 85.7325 4.18C85.3192 3.79333 85.1125 3.31333 85.1125 2.74C85.1125 2.15333 85.3192 1.66667 85.7325 1.28C86.1592 0.893332 86.7192 0.699999 87.4125 0.699999C88.0925 0.699999 88.6392 0.893332 89.0525 1.28C89.4792 1.66667 89.6925 2.15333 89.6925 2.74C89.6925 3.31333 89.4792 3.79333 89.0525 4.18C88.6392 4.55333 88.0925 4.74 87.4125 4.74ZM89.3525 5.78V17H85.4325V5.78H89.3525ZM95.5048 2.2V17H91.5848V2.2H95.5048Z" fill="black"/>
<path d="M106.419 13.43C106.793 13.4967 107.109 13.6933 107.369 14.02C107.629 14.3467 107.759 14.7167 107.759 15.13C107.759 15.4833 107.666 15.8033 107.479 16.09C107.299 16.37 107.036 16.5933 106.689 16.76C106.343 16.92 105.939 17 105.479 17H102.699V10.05H105.349C105.823 10.05 106.229 10.13 106.569 10.29C106.909 10.45 107.166 10.6667 107.339 10.94C107.513 11.2067 107.599 11.5067 107.599 11.84C107.599 12.24 107.493 12.5733 107.279 12.84C107.066 13.1067 106.779 13.3033 106.419 13.43ZM103.839 12.97H105.249C105.623 12.97 105.913 12.8867 106.119 12.72C106.333 12.5467 106.439 12.3 106.439 11.98C106.439 11.6667 106.333 11.4233 106.119 11.25C105.913 11.07 105.623 10.98 105.249 10.98H103.839V12.97ZM105.379 16.07C105.766 16.07 106.069 15.9767 106.289 15.79C106.509 15.6033 106.619 15.3433 106.619 15.01C106.619 14.67 106.503 14.4 106.269 14.2C106.036 14 105.726 13.9 105.339 13.9H103.839V16.07H105.379ZM114.048 14.11C114.048 14.3167 114.035 14.5033 114.008 14.67H109.798C109.831 15.11 109.995 15.4633 110.288 15.73C110.581 15.9967 110.941 16.13 111.368 16.13C111.981 16.13 112.415 15.8733 112.668 15.36H113.898C113.731 15.8667 113.428 16.2833 112.988 16.61C112.555 16.93 112.015 17.09 111.368 17.09C110.841 17.09 110.368 16.9733 109.948 16.74C109.535 16.5 109.208 16.1667 108.968 15.74C108.735 15.3067 108.618 14.8067 108.618 14.24C108.618 13.6733 108.731 13.1767 108.958 12.75C109.191 12.3167 109.515 11.9833 109.928 11.75C110.348 11.5167 110.828 11.4 111.368 11.4C111.888 11.4 112.351 11.5133 112.758 11.74C113.165 11.9667 113.481 12.2867 113.708 12.7C113.935 13.1067 114.048 13.5767 114.048 14.11ZM112.858 13.75C112.851 13.33 112.701 12.9933 112.408 12.74C112.115 12.4867 111.751 12.36 111.318 12.36C110.925 12.36 110.588 12.4867 110.308 12.74C110.028 12.9867 109.861 13.3233 109.808 13.75H112.858ZM116.5 12.42V15.47C116.5 15.6767 116.547 15.8267 116.64 15.92C116.74 16.0067 116.907 16.05 117.14 16.05H117.84V17H116.94C116.427 17 116.033 16.88 115.76 16.64C115.487 16.4 115.35 16.01 115.35 15.47V12.42H114.7V11.49H115.35V10.12H116.5V11.49H117.84V12.42H116.5ZM118.511 14.22C118.511 13.6667 118.624 13.1767 118.851 12.75C119.084 12.3233 119.397 11.9933 119.791 11.76C120.191 11.52 120.631 11.4 121.111 11.4C121.544 11.4 121.921 11.4867 122.241 11.66C122.567 11.8267 122.827 12.0367 123.021 12.29V11.49H124.171V17H123.021V16.18C122.827 16.44 122.564 16.6567 122.231 16.83C121.897 17.0033 121.517 17.09 121.091 17.09C120.617 17.09 120.184 16.97 119.791 16.73C119.397 16.4833 119.084 16.1433 118.851 15.71C118.624 15.27 118.511 14.7733 118.511 14.22ZM123.021 14.24C123.021 13.86 122.941 13.53 122.781 13.25C122.627 12.97 122.424 12.7567 122.171 12.61C121.917 12.4633 121.644 12.39 121.351 12.39C121.057 12.39 120.784 12.4633 120.531 12.61C120.277 12.75 120.071 12.96 119.911 13.24C119.757 13.5133 119.681 13.84 119.681 14.22C119.681 14.6 119.757 14.9333 119.911 15.22C120.071 15.5067 120.277 15.7267 120.531 15.88C120.791 16.0267 121.064 16.1 121.351 16.1C121.644 16.1 121.917 16.0267 122.171 15.88C122.424 15.7333 122.627 15.52 122.781 15.24C122.941 14.9533 123.021 14.62 123.021 14.24Z" fill="#575757"/>
</svg>
