<svg width="18" height="18" viewBox="0 0 18 18" fill="none" xmlns="http://www.w3.org/2000/svg">
<path d="M9.41359 10.865L14.7264 5.7599C14.9118 5.58176 14.9108 5.29398 14.7242 5.11707L13.3731 3.8359C13.1866 3.65901 12.8851 3.66001 12.6997 3.83813L9.40079 7.00808L9.41359 10.865Z" fill="white"/>
<path d="M14.3779 2.2255C14.5633 2.04738 14.8648 2.04638 15.0514 2.22326L16.4025 3.50443C16.589 3.68134 16.59 3.96912 16.4046 4.14727L15.7333 4.79231C15.548 4.97043 15.2464 4.97143 15.0599 4.79454L13.7088 3.51337C13.5222 3.33649 13.5213 3.04868 13.7066 2.87057L14.3779 2.2255Z" fill="white"/>
<path d="M9.40077 7.00584L6.65799 9.64142C6.47261 9.81954 6.47357 10.1073 6.66012 10.2842L8.01125 11.5654C8.1978 11.7423 8.49931 11.7413 8.68468 11.5632L9.41357 10.8628L9.40077 7.00584Z" fill="white"/>
<path d="M5.89015 10.5659C5.93451 10.4375 6.10487 10.3985 6.20531 10.4938L7.79477 12.0009C7.89521 12.0962 7.8555 12.259 7.72132 12.3022L5.34716 13.0663C5.19842 13.1142 5.0563 12.9794 5.10547 12.8371L5.89015 10.5659Z" fill="white"/>
<path d="M9.38091 1.02527L2.99999 1.04646C1.89543 1.05013 1.00297 1.94853 1.00664 3.05309L1.04648 15.053C1.05015 16.1576 1.94855 17.05 3.05311 17.0464L15.053 17.0065C16.1576 17.0029 17.0501 16.1045 17.0464 14.9999L17.023 7.95646" stroke="white" stroke-linecap="round"/>
</svg>
