<svg width="85" height="16" viewBox="0 0 85 16" fill="none" xmlns="http://www.w3.org/2000/svg">
<path d="M14.426 2.364V15H11.348V7.422L8.522 15H6.038L3.194 7.404V15H0.116V2.364H3.752L7.298 11.112L10.808 2.364H14.426ZM26.1074 9.816C26.1074 10.104 26.0894 10.404 26.0534 10.716H19.0874C19.1354 11.34 19.3334 11.82 19.6814 12.156C20.0414 12.48 20.4794 12.642 20.9954 12.642C21.7634 12.642 22.2974 12.318 22.5974 11.67H25.8734C25.7054 12.33 25.3994 12.924 24.9554 13.452C24.5234 13.98 23.9774 14.394 23.3174 14.694C22.6574 14.994 21.9194 15.144 21.1034 15.144C20.1194 15.144 19.2434 14.934 18.4754 14.514C17.7074 14.094 17.1074 13.494 16.6754 12.714C16.2434 11.934 16.0274 11.022 16.0274 9.978C16.0274 8.934 16.2374 8.022 16.6574 7.242C17.0894 6.462 17.6894 5.862 18.4574 5.442C19.2254 5.022 20.1074 4.812 21.1034 4.812C22.0754 4.812 22.9394 5.016 23.6954 5.424C24.4514 5.832 25.0394 6.414 25.4594 7.17C25.8914 7.926 26.1074 8.808 26.1074 9.816ZM22.9574 9.006C22.9574 8.478 22.7774 8.058 22.4174 7.746C22.0574 7.434 21.6074 7.278 21.0674 7.278C20.5514 7.278 20.1134 7.428 19.7534 7.728C19.4054 8.028 19.1894 8.454 19.1054 9.006H22.9574ZM33.3292 12.39V15H31.7632C30.6472 15 29.7772 14.73 29.1532 14.19C28.5292 13.638 28.2172 12.744 28.2172 11.508V7.512H26.9932V4.956H28.2172V2.508H31.2952V4.956H33.3112V7.512H31.2952V11.544C31.2952 11.844 31.3672 12.06 31.5112 12.192C31.6552 12.324 31.8952 12.39 32.2312 12.39H33.3292ZM34.4317 9.96C34.4317 8.928 34.6237 8.022 35.0077 7.242C35.4037 6.462 35.9377 5.862 36.6097 5.442C37.2817 5.022 38.0317 4.812 38.8597 4.812C39.5677 4.812 40.1857 4.956 40.7137 5.244C41.2537 5.532 41.6677 5.91 41.9557 6.378V4.956H45.0337V15H41.9557V13.578C41.6557 14.046 41.2357 14.424 40.6957 14.712C40.1677 15 39.5497 15.144 38.8417 15.144C38.0257 15.144 37.2817 14.934 36.6097 14.514C35.9377 14.082 35.4037 13.476 35.0077 12.696C34.6237 11.904 34.4317 10.992 34.4317 9.96ZM41.9557 9.978C41.9557 9.21 41.7397 8.604 41.3077 8.16C40.8877 7.716 40.3717 7.494 39.7597 7.494C39.1477 7.494 38.6257 7.716 38.1937 8.16C37.7737 8.592 37.5637 9.192 37.5637 9.96C37.5637 10.728 37.7737 11.34 38.1937 11.796C38.6257 12.24 39.1477 12.462 39.7597 12.462C40.3717 12.462 40.8877 12.24 41.3077 11.796C41.7397 11.352 41.9557 10.746 41.9557 9.978ZM61.5705 2.364V15H58.4925V7.422L55.6665 15H53.1825L50.3385 7.404V15H47.2605V2.364H50.8965L54.4425 11.112L57.9525 2.364H61.5705ZM63.172 9.96C63.172 8.928 63.364 8.022 63.748 7.242C64.144 6.462 64.678 5.862 65.35 5.442C66.022 5.022 66.772 4.812 67.6 4.812C68.308 4.812 68.926 4.956 69.454 5.244C69.994 5.532 70.408 5.91 70.696 6.378V4.956H73.774V15H70.696V13.578C70.396 14.046 69.976 14.424 69.436 14.712C68.908 15 68.29 15.144 67.582 15.144C66.766 15.144 66.022 14.934 65.35 14.514C64.678 14.082 64.144 13.476 63.748 12.696C63.364 11.904 63.172 10.992 63.172 9.96ZM70.696 9.978C70.696 9.21 70.48 8.604 70.048 8.16C69.628 7.716 69.112 7.494 68.5 7.494C67.888 7.494 67.366 7.716 66.934 8.16C66.514 8.592 66.304 9.192 66.304 9.96C66.304 10.728 66.514 11.34 66.934 11.796C67.366 12.24 67.888 12.462 68.5 12.462C69.112 12.462 69.628 12.24 70.048 11.796C70.48 11.352 70.696 10.746 70.696 9.978ZM77.5488 3.912C77.0088 3.912 76.5648 3.756 76.2168 3.444C75.8808 3.12 75.7128 2.724 75.7128 2.256C75.7128 1.776 75.8808 1.38 76.2168 1.068C76.5648 0.743999 77.0088 0.581999 77.5488 0.581999C78.0768 0.581999 78.5088 0.743999 78.8448 1.068C79.1928 1.38 79.3668 1.776 79.3668 2.256C79.3668 2.724 79.1928 3.12 78.8448 3.444C78.5088 3.756 78.0768 3.912 77.5488 3.912ZM79.0788 4.956V15H76.0008V4.956H79.0788ZM84.3874 1.68V15H81.3094V1.68H84.3874Z" fill="black"/>
</svg>
