<svg width="91" height="91" viewBox="0 0 91 91" fill="none" xmlns="http://www.w3.org/2000/svg">
<path d="M1.2642 16.4545H5.05682L9.0625 26.2273H9.23295L13.2386 16.4545H17.0312V31H14.0483V21.5327H13.9276L10.1634 30.929H8.1321L4.3679 21.4972H4.24716V31H1.2642V16.4545ZM24.4798 31.2131C23.3576 31.2131 22.3917 30.9858 21.582 30.5312C20.7771 30.072 20.1568 29.4233 19.7212 28.5852C19.2856 27.7424 19.0678 26.7457 19.0678 25.5952C19.0678 24.473 19.2856 23.4882 19.7212 22.6406C20.1568 21.7931 20.77 21.1326 21.5607 20.6591C22.3562 20.1856 23.2889 19.9489 24.359 19.9489C25.0787 19.9489 25.7487 20.0649 26.369 20.2969C26.994 20.5241 27.5385 20.8674 28.0025 21.3267C28.4712 21.786 28.8358 22.3636 29.0962 23.0597C29.3567 23.7509 29.4869 24.5606 29.4869 25.4886V26.3196H20.2752V24.4446H26.6388C26.6388 24.009 26.5442 23.6231 26.3548 23.2869C26.1654 22.9508 25.9026 22.688 25.5664 22.4986C25.235 22.3045 24.8491 22.2074 24.4087 22.2074C23.9495 22.2074 23.5423 22.3139 23.1871 22.527C22.8368 22.7353 22.5621 23.017 22.3633 23.3722C22.1644 23.7225 22.0626 24.1132 22.0579 24.544V26.3267C22.0579 26.8665 22.1573 27.3329 22.3562 27.7259C22.5598 28.1188 22.8462 28.4219 23.2156 28.6349C23.5849 28.848 24.0228 28.9545 24.5295 28.9545C24.8656 28.9545 25.1734 28.9072 25.4528 28.8125C25.7321 28.7178 25.9712 28.5758 26.1701 28.3864C26.369 28.197 26.5205 27.965 26.6246 27.6903L29.4229 27.875C29.2809 28.5473 28.9897 29.1345 28.5494 29.6364C28.1138 30.1335 27.5503 30.5218 26.859 30.8011C26.1725 31.0758 25.3794 31.2131 24.4798 31.2131ZM37.2638 20.0909V22.3636H30.6942V20.0909H37.2638ZM32.1857 17.4773H35.2113V27.6477C35.2113 27.9271 35.2539 28.1449 35.3391 28.3011C35.4244 28.4527 35.5427 28.5592 35.6942 28.6207C35.8505 28.6823 36.0304 28.7131 36.234 28.7131C36.3761 28.7131 36.5181 28.7012 36.6602 28.6776C36.8022 28.6491 36.9111 28.6278 36.9869 28.6136L37.4627 30.8651C37.3112 30.9124 37.0981 30.9669 36.8235 31.0284C36.5489 31.0947 36.2151 31.1349 35.8221 31.1491C35.0929 31.1776 34.4537 31.0805 33.9045 30.858C33.36 30.6354 32.9362 30.2898 32.6332 29.821C32.3301 29.3523 32.181 28.7604 32.1857 28.0455V17.4773ZM42.3455 31.206C41.6495 31.206 41.0292 31.0852 40.4847 30.8438C39.9402 30.5975 39.5094 30.2353 39.1921 29.7571C38.8796 29.2741 38.7234 28.6728 38.7234 27.9531C38.7234 27.3471 38.8346 26.8381 39.0572 26.4261C39.2797 26.0142 39.5827 25.6828 39.9663 25.4318C40.3498 25.1809 40.7854 24.9915 41.2731 24.8636C41.7655 24.7358 42.2816 24.6458 42.8214 24.5938C43.4558 24.5275 43.9672 24.4659 44.3555 24.4091C44.7437 24.3475 45.0255 24.2576 45.2006 24.1392C45.3758 24.0208 45.4634 23.8456 45.4634 23.6136V23.571C45.4634 23.1212 45.3214 22.7732 45.0373 22.527C44.7579 22.2808 44.3602 22.1577 43.8441 22.1577C43.2996 22.1577 42.8664 22.2784 42.5444 22.5199C42.2224 22.7566 42.0094 23.0549 41.9052 23.4148L39.1069 23.1875C39.2489 22.5246 39.5283 21.9517 39.945 21.4688C40.3616 20.9811 40.899 20.607 41.5572 20.3466C42.2201 20.0814 42.9871 19.9489 43.8583 19.9489C44.4644 19.9489 45.0444 20.0199 45.5984 20.1619C46.1571 20.304 46.6519 20.5241 47.0827 20.8224C47.5183 21.1207 47.8616 21.5043 48.1126 21.973C48.3635 22.437 48.489 22.9934 48.489 23.642V31H45.6197V29.4872H45.5344C45.3593 29.8281 45.1249 30.1288 44.8313 30.3892C44.5378 30.6449 44.185 30.8461 43.7731 30.9929C43.3612 31.1349 42.8853 31.206 42.3455 31.206ZM43.212 29.1179C43.6571 29.1179 44.0501 29.0303 44.391 28.8551C44.7319 28.6752 44.9994 28.4337 45.1935 28.1307C45.3877 27.8277 45.4847 27.4844 45.4847 27.1009V25.9432C45.39 26.0047 45.2598 26.0616 45.0941 26.1136C44.9331 26.161 44.7508 26.206 44.5472 26.2486C44.3436 26.2865 44.14 26.322 43.9364 26.3551C43.7328 26.3835 43.5482 26.4096 43.3825 26.4332C43.0273 26.4853 42.7172 26.5682 42.4521 26.6818C42.1869 26.7955 41.9809 26.9493 41.8342 27.1435C41.6874 27.3329 41.614 27.5696 41.614 27.8537C41.614 28.2656 41.7631 28.5805 42.0614 28.7983C42.3645 29.0114 42.748 29.1179 43.212 29.1179ZM50.8931 16.4545H54.6857L58.6914 26.2273H58.8619L62.8675 16.4545H66.6602V31H63.6772V21.5327H63.5565L59.7923 30.929H57.761L53.9968 21.4972H53.8761V31H50.8931V16.4545ZM72.2479 31.206C71.5518 31.206 70.9316 31.0852 70.3871 30.8438C69.8426 30.5975 69.4117 30.2353 69.0945 29.7571C68.782 29.2741 68.6257 28.6728 68.6257 27.9531C68.6257 27.3471 68.737 26.8381 68.9595 26.4261C69.1821 26.0142 69.4851 25.6828 69.8686 25.4318C70.2521 25.1809 70.6877 24.9915 71.1754 24.8636C71.6679 24.7358 72.1839 24.6458 72.7237 24.5938C73.3582 24.5275 73.8696 24.4659 74.2578 24.4091C74.6461 24.3475 74.9278 24.2576 75.103 24.1392C75.2782 24.0208 75.3658 23.8456 75.3658 23.6136V23.571C75.3658 23.1212 75.2237 22.7732 74.9396 22.527C74.6603 22.2808 74.2625 22.1577 73.7464 22.1577C73.2019 22.1577 72.7687 22.2784 72.4467 22.5199C72.1248 22.7566 71.9117 23.0549 71.8075 23.4148L69.0092 23.1875C69.1513 22.5246 69.4306 21.9517 69.8473 21.4688C70.264 20.9811 70.8014 20.607 71.4595 20.3466C72.1224 20.0814 72.8894 19.9489 73.7607 19.9489C74.3667 19.9489 74.9467 20.0199 75.5007 20.1619C76.0594 20.304 76.5542 20.5241 76.9851 20.8224C77.4207 21.1207 77.764 21.5043 78.0149 21.973C78.2659 22.437 78.3913 22.9934 78.3913 23.642V31H75.522V29.4872H75.4368C75.2616 29.8281 75.0272 30.1288 74.7337 30.3892C74.4401 30.6449 74.0874 30.8461 73.6754 30.9929C73.2635 31.1349 72.7876 31.206 72.2479 31.206ZM73.1143 29.1179C73.5594 29.1179 73.9524 29.0303 74.2933 28.8551C74.6342 28.6752 74.9018 28.4337 75.0959 28.1307C75.29 27.8277 75.3871 27.4844 75.3871 27.1009V25.9432C75.2924 26.0047 75.1622 26.0616 74.9964 26.1136C74.8355 26.161 74.6532 26.206 74.4496 26.2486C74.246 26.2865 74.0424 26.322 73.8388 26.3551C73.6352 26.3835 73.4505 26.4096 73.2848 26.4332C72.9297 26.4853 72.6196 26.5682 72.3544 26.6818C72.0893 26.7955 71.8833 26.9493 71.7365 27.1435C71.5897 27.3329 71.5163 27.5696 71.5163 27.8537C71.5163 28.2656 71.6655 28.5805 71.9638 28.7983C72.2668 29.0114 72.6503 29.1179 73.1143 29.1179ZM80.7386 31V20.0909H83.7642V31H80.7386ZM82.2585 18.6847C81.8087 18.6847 81.4228 18.5355 81.1009 18.2372C80.7836 17.9342 80.625 17.572 80.625 17.1506C80.625 16.7339 80.7836 16.3764 81.1009 16.0781C81.4228 15.7751 81.8087 15.6236 82.2585 15.6236C82.7083 15.6236 83.0919 15.7751 83.4091 16.0781C83.7311 16.3764 83.892 16.7339 83.892 17.1506C83.892 17.572 83.7311 17.9342 83.4091 18.2372C83.0919 18.5355 82.7083 18.6847 82.2585 18.6847ZM89.2134 16.4545V31H86.1879V16.4545H89.2134Z" fill="#0069E5"/>
<path d="M45.5 89.6068L16 45.3034L45.5 1L75 45.3034L45.5 89.6068Z" fill="#0069E5" fill-opacity="0.08" stroke="#0069E5" stroke-opacity="0.2"/>
<path d="M16 45.3047L45.5 60.0725L75 45.3047" fill="#0069E5" fill-opacity="0.08"/>
<path d="M16 45.3047L45.5 60.0725L75 45.3047" stroke="#0069E5" stroke-opacity="0.2"/>
<path d="M45.5005 1V89.6068V1Z" fill="#0069E5" fill-opacity="0.08"/>
<path d="M45.5005 1V89.6068" stroke="#0069E5" stroke-opacity="0.2"/>
</svg>
