<svg width="99" height="18" viewBox="0 0 99 18" fill="none" xmlns="http://www.w3.org/2000/svg">
<path d="M12.7419 16H3.25806C2.00744 16 1 14.9786 1 13.7107V8.07547C1 7.37107 1.31266 6.70189 1.86849 6.27925L6.62779 2.47547C7.4268 1.84151 8.60794 1.84151 9.40695 2.47547L14.1315 6.24403C14.6873 6.66667 15 7.33585 15 8.04025V13.7107C14.9653 14.9786 13.9578 16 12.7419 16V16ZM8.01737 3.03899C7.73945 3.03899 7.49628 3.14465 7.2531 3.32075L2.4938 7.08931C2.21588 7.33585 2.04218 7.68805 2.04218 8.07547V13.7107C2.04218 14.3799 2.59802 14.9434 3.25806 14.9434H12.7419C13.402 14.9434 13.9578 14.3799 13.9578 13.7107V8.07547C13.9578 7.68805 13.7841 7.33585 13.5062 7.12453L8.7469 3.32075C8.53846 3.14465 8.29529 3.03899 8.01737 3.03899Z" fill="#969BA0"/>
<path d="M8.06806 13C7.91421 13 7.76036 12.9541 7.63727 12.8163L2.16005 7.21296C1.97543 6.98332 1.94466 6.52403 2.09851 6.24845C2.25236 6.01881 2.46776 5.92695 2.68316 6.06474L8.09883 11.5762L13.2683 6.29438C13.4837 6.06474 13.7607 6.1566 13.9145 6.4781C14.0684 6.7996 14.0068 7.21296 13.7915 7.44261L8.49886 12.8163C8.37577 12.9081 8.22192 13 8.06806 13Z" fill="#969BA0"/>
<path d="M13.5272 14.8982C13.3607 14.8982 13.2275 14.8473 13.1276 14.7455L9.79804 11.6158C9.63155 11.4631 9.66485 11.2087 9.86463 11.0815C10.0644 10.9542 10.3974 10.9797 10.5638 11.1323L13.8935 14.2621C14.0599 14.4148 14.0266 14.6692 13.8269 14.7964C13.7603 14.8728 13.6604 14.8982 13.5272 14.8982ZM2.4729 15C2.37301 15 2.23982 14.9746 2.17323 14.9237C1.97346 14.7964 1.94016 14.542 2.10664 14.3893L5.50284 11.1832C5.66932 11.0306 6.00228 11.0051 6.20206 11.1323C6.40183 11.2596 6.43513 11.514 6.26865 11.6667L2.83915 14.8473C2.73927 14.9491 2.60608 15 2.4729 15Z" fill="#969BA0"/>
<path d="M29.1742 4.66V13H27.8062V7.288L25.2622 13H24.3142L21.7582 7.288V13H20.3902V4.66H21.8662L24.7942 11.2L27.7102 4.66H29.1742ZM30.5163 9.664C30.5163 9 30.6523 8.412 30.9243 7.9C31.2043 7.388 31.5803 6.992 32.0523 6.712C32.5323 6.424 33.0603 6.28 33.6363 6.28C34.1563 6.28 34.6083 6.384 34.9923 6.592C35.3843 6.792 35.6963 7.044 35.9283 7.348V6.388H37.3083V13H35.9283V12.016C35.6963 12.328 35.3803 12.588 34.9803 12.796C34.5803 13.004 34.1243 13.108 33.6123 13.108C33.0443 13.108 32.5243 12.964 32.0523 12.676C31.5803 12.38 31.2043 11.972 30.9243 11.452C30.6523 10.924 30.5163 10.328 30.5163 9.664ZM35.9283 9.688C35.9283 9.232 35.8323 8.836 35.6403 8.5C35.4563 8.164 35.2123 7.908 34.9083 7.732C34.6043 7.556 34.2763 7.468 33.9243 7.468C33.5723 7.468 33.2443 7.556 32.9403 7.732C32.6363 7.9 32.3883 8.152 32.1963 8.488C32.0123 8.816 31.9203 9.208 31.9203 9.664C31.9203 10.12 32.0123 10.52 32.1963 10.864C32.3883 11.208 32.6363 11.472 32.9403 11.656C33.2523 11.832 33.5803 11.92 33.9243 11.92C34.2763 11.92 34.6043 11.832 34.9083 11.656C35.2123 11.48 35.4563 11.224 35.6403 10.888C35.8323 10.544 35.9283 10.144 35.9283 9.688ZM40.4731 7.348C40.6731 7.012 40.9371 6.752 41.2651 6.568C41.6011 6.376 41.9971 6.28 42.4531 6.28V7.696H42.1051C41.5691 7.696 41.1611 7.832 40.8811 8.104C40.6091 8.376 40.4731 8.848 40.4731 9.52V13H39.1051V6.388H40.4731V7.348ZM46.3265 9.7L49.3745 13H47.5265L45.0785 10.156V13H43.7105V4.12H45.0785V9.28L47.4785 6.388H49.3745L46.3265 9.7ZM53.0163 9.664C53.0163 9 53.1523 8.412 53.4243 7.9C53.7043 7.388 54.0803 6.992 54.5523 6.712C55.0323 6.424 55.5603 6.28 56.1363 6.28C56.6563 6.28 57.1083 6.384 57.4923 6.592C57.8843 6.792 58.1963 7.044 58.4283 7.348V6.388H59.8083V13H58.4283V12.016C58.1963 12.328 57.8803 12.588 57.4803 12.796C57.0803 13.004 56.6243 13.108 56.1123 13.108C55.5443 13.108 55.0243 12.964 54.5523 12.676C54.0803 12.38 53.7043 11.972 53.4243 11.452C53.1523 10.924 53.0163 10.328 53.0163 9.664ZM58.4283 9.688C58.4283 9.232 58.3323 8.836 58.1403 8.5C57.9563 8.164 57.7123 7.908 57.4083 7.732C57.1043 7.556 56.7763 7.468 56.4243 7.468C56.0723 7.468 55.7443 7.556 55.4403 7.732C55.1363 7.9 54.8883 8.152 54.6963 8.488C54.5123 8.816 54.4203 9.208 54.4203 9.664C54.4203 10.12 54.5123 10.52 54.6963 10.864C54.8883 11.208 55.1363 11.472 55.4403 11.656C55.7523 11.832 56.0803 11.92 56.4243 11.92C56.7763 11.92 57.1043 11.832 57.4083 11.656C57.7123 11.48 57.9563 11.224 58.1403 10.888C58.3323 10.544 58.4283 10.144 58.4283 9.688ZM64.0051 13.108C63.4851 13.108 63.0171 13.016 62.6011 12.832C62.1931 12.64 61.8691 12.384 61.6291 12.064C61.3891 11.736 61.2611 11.372 61.2451 10.972H62.6611C62.6851 11.252 62.8171 11.488 63.0571 11.68C63.3051 11.864 63.6131 11.956 63.9811 11.956C64.3651 11.956 64.6611 11.884 64.8691 11.74C65.0851 11.588 65.1931 11.396 65.1931 11.164C65.1931 10.916 65.0731 10.732 64.8331 10.612C64.6011 10.492 64.2291 10.36 63.7171 10.216C63.2211 10.08 62.8171 9.948 62.5051 9.82C62.1931 9.692 61.9211 9.496 61.6891 9.232C61.4651 8.968 61.3531 8.62 61.3531 8.188C61.3531 7.836 61.4571 7.516 61.6651 7.228C61.8731 6.932 62.1691 6.7 62.5531 6.532C62.9451 6.364 63.3931 6.28 63.8971 6.28C64.6491 6.28 65.2531 6.472 65.7091 6.856C66.1731 7.232 66.4211 7.748 66.4531 8.404H65.0851C65.0611 8.108 64.9411 7.872 64.7251 7.696C64.5091 7.52 64.2171 7.432 63.8491 7.432C63.4891 7.432 63.2131 7.5 63.0211 7.636C62.8291 7.772 62.7331 7.952 62.7331 8.176C62.7331 8.352 62.7971 8.5 62.9251 8.62C63.0531 8.74 63.2091 8.836 63.3931 8.908C63.5771 8.972 63.8491 9.056 64.2091 9.16C64.6891 9.288 65.0811 9.42 65.3851 9.556C65.6971 9.684 65.9651 9.876 66.1891 10.132C66.4131 10.388 66.5291 10.728 66.5371 11.152C66.5371 11.528 66.4331 11.864 66.2251 12.16C66.0171 12.456 65.7211 12.688 65.3371 12.856C64.9611 13.024 64.5171 13.108 64.0051 13.108ZM72.5004 7.348C72.7004 7.012 72.9644 6.752 73.2924 6.568C73.6284 6.376 74.0244 6.28 74.4804 6.28V7.696H74.1324C73.5964 7.696 73.1884 7.832 72.9084 8.104C72.6364 8.376 72.5004 8.848 72.5004 9.52V13H71.1324V6.388H72.5004V7.348ZM81.7979 9.532C81.7979 9.78 81.7819 10.004 81.7499 10.204H76.6979C76.7379 10.732 76.9339 11.156 77.2859 11.476C77.6379 11.796 78.0699 11.956 78.5819 11.956C79.3179 11.956 79.8379 11.648 80.1419 11.032H81.6179C81.4179 11.64 81.0539 12.14 80.5259 12.532C80.0059 12.916 79.3579 13.108 78.5819 13.108C77.9499 13.108 77.3819 12.968 76.8779 12.688C76.3819 12.4 75.9899 12 75.7019 11.488C75.4219 10.968 75.2819 10.368 75.2819 9.688C75.2819 9.008 75.4179 8.412 75.6899 7.9C75.9699 7.38 76.3579 6.98 76.8539 6.7C77.3579 6.42 77.9339 6.28 78.5819 6.28C79.2059 6.28 79.7619 6.416 80.2499 6.688C80.7379 6.96 81.1179 7.344 81.3899 7.84C81.6619 8.328 81.7979 8.892 81.7979 9.532ZM80.3699 9.1C80.3619 8.596 80.1819 8.192 79.8299 7.888C79.4779 7.584 79.0419 7.432 78.5219 7.432C78.0499 7.432 77.6459 7.584 77.3099 7.888C76.9739 8.184 76.7739 8.588 76.7099 9.1H80.3699ZM82.6881 9.664C82.6881 9 82.8241 8.412 83.0961 7.9C83.3761 7.388 83.7521 6.992 84.2241 6.712C84.7041 6.424 85.2321 6.28 85.8081 6.28C86.3281 6.28 86.7801 6.384 87.1641 6.592C87.5561 6.792 87.8681 7.044 88.1001 7.348V6.388H89.4801V13H88.1001V12.016C87.8681 12.328 87.5521 12.588 87.1521 12.796C86.7521 13.004 86.2961 13.108 85.7841 13.108C85.2161 13.108 84.6961 12.964 84.2241 12.676C83.7521 12.38 83.3761 11.972 83.0961 11.452C82.8241 10.924 82.6881 10.328 82.6881 9.664ZM88.1001 9.688C88.1001 9.232 88.0041 8.836 87.8121 8.5C87.6281 8.164 87.3841 7.908 87.0801 7.732C86.7761 7.556 86.4481 7.468 86.0961 7.468C85.7441 7.468 85.4161 7.556 85.1121 7.732C84.8081 7.9 84.5601 8.152 84.3681 8.488C84.1841 8.816 84.0921 9.208 84.0921 9.664C84.0921 10.12 84.1841 10.52 84.3681 10.864C84.5601 11.208 84.8081 11.472 85.1121 11.656C85.4241 11.832 85.7521 11.92 86.0961 11.92C86.4481 11.92 86.7761 11.832 87.0801 11.656C87.3841 11.48 87.6281 11.224 87.8121 10.888C88.0041 10.544 88.1001 10.144 88.1001 9.688ZM90.821 9.664C90.821 9 90.957 8.412 91.229 7.9C91.509 7.388 91.885 6.992 92.357 6.712C92.837 6.424 93.369 6.28 93.953 6.28C94.385 6.28 94.809 6.376 95.225 6.568C95.649 6.752 95.985 7 96.233 7.312V4.12H97.613V13H96.233V12.004C96.009 12.324 95.697 12.588 95.297 12.796C94.905 13.004 94.453 13.108 93.941 13.108C93.365 13.108 92.837 12.964 92.357 12.676C91.885 12.38 91.509 11.972 91.229 11.452C90.957 10.924 90.821 10.328 90.821 9.664ZM96.233 9.688C96.233 9.232 96.137 8.836 95.945 8.5C95.761 8.164 95.517 7.908 95.213 7.732C94.909 7.556 94.581 7.468 94.229 7.468C93.877 7.468 93.549 7.556 93.245 7.732C92.941 7.9 92.693 8.152 92.501 8.488C92.317 8.816 92.225 9.208 92.225 9.664C92.225 10.12 92.317 10.52 92.501 10.864C92.693 11.208 92.941 11.472 93.245 11.656C93.557 11.832 93.885 11.92 94.229 11.92C94.581 11.92 94.909 11.832 95.213 11.656C95.517 11.48 95.761 11.224 95.945 10.888C96.137 10.544 96.233 10.144 96.233 9.688Z" fill="#969BA0"/>
</svg>
