<svg width="105" height="36" viewBox="0 0 105 36" fill="none" xmlns="http://www.w3.org/2000/svg">
<rect x="0.273438" y="0.612305" width="104.651" height="34.7442" rx="5.5814" fill="#006AD4"/>
<path d="M27.2239 14.4345L32.5302 12.6657C34.9114 11.872 36.2052 13.172 35.4177 15.5532L33.6489 20.8595C32.4614 24.4282 30.5114 24.4282 29.3239 20.8595L28.7989 19.2845L27.2239 18.7595C23.6552 17.572 23.6552 15.6282 27.2239 14.4345Z" stroke="white" stroke-linecap="round" stroke-linejoin="round"/>
<path d="M28.9175 19.0157L31.155 16.772" stroke="white" stroke-linecap="round" stroke-linejoin="round"/>
<path d="M52.6391 21.9844L50.8871 18.8044H50.3951V21.9844H48.3431V13.5604H51.7871C52.4511 13.5604 53.0151 13.6764 53.4791 13.9084C53.9511 14.1404 54.3031 14.4604 54.5351 14.8684C54.7671 15.2684 54.8831 15.7164 54.8831 16.2124C54.8831 16.7724 54.7231 17.2724 54.4031 17.7124C54.0911 18.1524 53.6271 18.4644 53.0111 18.6484L54.9551 21.9844H52.6391ZM50.3951 17.3524H51.6671C52.0431 17.3524 52.3231 17.2604 52.5071 17.0764C52.6991 16.8924 52.7951 16.6324 52.7951 16.2964C52.7951 15.9764 52.6991 15.7244 52.5071 15.5404C52.3231 15.3564 52.0431 15.2644 51.6671 15.2644H50.3951V17.3524ZM62.4832 18.5284C62.4832 18.7204 62.4712 18.9204 62.4472 19.1284H57.8032C57.8352 19.5444 57.9672 19.8644 58.1992 20.0884C58.4392 20.3044 58.7312 20.4124 59.0752 20.4124C59.5872 20.4124 59.9432 20.1964 60.1432 19.7644H62.3272C62.2152 20.2044 62.0112 20.6004 61.7152 20.9524C61.4272 21.3044 61.0632 21.5804 60.6232 21.7804C60.1832 21.9804 59.6912 22.0804 59.1472 22.0804C58.4912 22.0804 57.9072 21.9404 57.3952 21.6604C56.8832 21.3804 56.4832 20.9804 56.1952 20.4604C55.9072 19.9404 55.7632 19.3324 55.7632 18.6364C55.7632 17.9404 55.9032 17.3324 56.1832 16.8124C56.4712 16.2924 56.8712 15.8924 57.3832 15.6124C57.8952 15.3324 58.4832 15.1924 59.1472 15.1924C59.7952 15.1924 60.3712 15.3284 60.8752 15.6004C61.3792 15.8724 61.7712 16.2604 62.0512 16.7644C62.3392 17.2684 62.4832 17.8564 62.4832 18.5284ZM60.3832 17.9884C60.3832 17.6364 60.2632 17.3564 60.0232 17.1484C59.7832 16.9404 59.4832 16.8364 59.1232 16.8364C58.7792 16.8364 58.4872 16.9364 58.2472 17.1364C58.0152 17.3364 57.8712 17.6204 57.8152 17.9884H60.3832ZM65.6178 16.2364C65.8178 15.9244 66.0938 15.6724 66.4458 15.4804C66.7978 15.2884 67.2098 15.1924 67.6818 15.1924C68.2338 15.1924 68.7338 15.3324 69.1818 15.6124C69.6298 15.8924 69.9818 16.2924 70.2378 16.8124C70.5018 17.3324 70.6338 17.9364 70.6338 18.6244C70.6338 19.3124 70.5018 19.9204 70.2378 20.4484C69.9818 20.9684 69.6298 21.3724 69.1818 21.6604C68.7338 21.9404 68.2338 22.0804 67.6818 22.0804C67.2178 22.0804 66.8058 21.9844 66.4458 21.7924C66.0938 21.6004 65.8178 21.3524 65.6178 21.0484V25.1764H63.5658V15.2884H65.6178V16.2364ZM68.5458 18.6244C68.5458 18.1124 68.4018 17.7124 68.1138 17.4244C67.8338 17.1284 67.4858 16.9804 67.0698 16.9804C66.6618 16.9804 66.3138 17.1284 66.0258 17.4244C65.7458 17.7204 65.6058 18.1244 65.6058 18.6364C65.6058 19.1484 65.7458 19.5524 66.0258 19.8484C66.3138 20.1444 66.6618 20.2924 67.0698 20.2924C67.4778 20.2924 67.8258 20.1444 68.1138 19.8484C68.4018 19.5444 68.5458 19.1364 68.5458 18.6244ZM73.7623 13.1044V21.9844H71.7103V13.1044H73.7623ZM82.0894 15.2884L77.8894 25.1644H75.6814L77.2174 21.7564L74.4934 15.2884H76.7854L78.3334 19.4764L79.8694 15.2884H82.0894Z" fill="#F8FAFC"/>
</svg>
