<svg width="90" height="27" viewBox="0 0 90 27" fill="none" xmlns="http://www.w3.org/2000/svg">
<rect width="90" height="27" rx="5.5814" fill="#006AD4"/>
<path d="M21.1248 9.9501L26.4311 8.18135C28.8123 7.3876 30.1061 8.6876 29.3186 11.0688L27.5498 16.3751C26.3623 19.9438 24.4123 19.9438 23.2248 16.3751L22.6998 14.8001L21.1248 14.2751C17.5561 13.0876 17.5561 11.1438 21.1248 9.9501Z" stroke="white" stroke-linecap="round" stroke-linejoin="round"/>
<path d="M22.8184 14.5313L25.0559 12.2876" stroke="white" stroke-linecap="round" stroke-linejoin="round"/>
<path d="M45.292 17.584C44.676 17.584 44.124 17.484 43.636 17.284C43.148 17.084 42.756 16.788 42.46 16.396C42.172 16.004 42.02 15.532 42.004 14.98H44.188C44.22 15.292 44.328 15.532 44.512 15.7C44.696 15.86 44.936 15.94 45.232 15.94C45.536 15.94 45.776 15.872 45.952 15.736C46.128 15.592 46.216 15.396 46.216 15.148C46.216 14.94 46.144 14.768 46 14.632C45.864 14.496 45.692 14.384 45.484 14.296C45.284 14.208 44.996 14.108 44.62 13.996C44.076 13.828 43.632 13.66 43.288 13.492C42.944 13.324 42.648 13.076 42.4 12.748C42.152 12.42 42.028 11.992 42.028 11.464C42.028 10.68 42.312 10.068 42.88 9.628C43.448 9.18 44.188 8.956 45.1 8.956C46.028 8.956 46.776 9.18 47.344 9.628C47.912 10.068 48.216 10.684 48.256 11.476H46.036C46.02 11.204 45.92 10.992 45.736 10.84C45.552 10.68 45.316 10.6 45.028 10.6C44.78 10.6 44.58 10.668 44.428 10.804C44.276 10.932 44.2 11.12 44.2 11.368C44.2 11.64 44.328 11.852 44.584 12.004C44.84 12.156 45.24 12.32 45.784 12.496C46.328 12.68 46.768 12.856 47.104 13.024C47.448 13.192 47.744 13.436 47.992 13.756C48.24 14.076 48.364 14.488 48.364 14.992C48.364 15.472 48.24 15.908 47.992 16.3C47.752 16.692 47.4 17.004 46.936 17.236C46.472 17.468 45.924 17.584 45.292 17.584ZM55.9388 14.044C55.9388 14.236 55.9268 14.436 55.9028 14.644H51.2588C51.2908 15.06 51.4228 15.38 51.6548 15.604C51.8948 15.82 52.1868 15.928 52.5308 15.928C53.0428 15.928 53.3988 15.712 53.5988 15.28H55.7828C55.6708 15.72 55.4668 16.116 55.1708 16.468C54.8828 16.82 54.5188 17.096 54.0788 17.296C53.6388 17.496 53.1468 17.596 52.6028 17.596C51.9468 17.596 51.3628 17.456 50.8508 17.176C50.3388 16.896 49.9388 16.496 49.6508 15.976C49.3628 15.456 49.2188 14.848 49.2188 14.152C49.2188 13.456 49.3588 12.848 49.6388 12.328C49.9268 11.808 50.3268 11.408 50.8388 11.128C51.3508 10.848 51.9388 10.708 52.6028 10.708C53.2508 10.708 53.8268 10.844 54.3308 11.116C54.8348 11.388 55.2268 11.776 55.5068 12.28C55.7948 12.784 55.9388 13.372 55.9388 14.044ZM53.8388 13.504C53.8388 13.152 53.7188 12.872 53.4788 12.664C53.2388 12.456 52.9388 12.352 52.5788 12.352C52.2348 12.352 51.9428 12.452 51.7028 12.652C51.4708 12.852 51.3268 13.136 51.2708 13.504H53.8388ZM61.1013 10.732C61.8853 10.732 62.5093 10.988 62.9733 11.5C63.4453 12.004 63.6813 12.7 63.6813 13.588V17.5H61.6413V13.864C61.6413 13.416 61.5253 13.068 61.2933 12.82C61.0613 12.572 60.7493 12.448 60.3573 12.448C59.9653 12.448 59.6533 12.572 59.4213 12.82C59.1893 13.068 59.0733 13.416 59.0733 13.864V17.5H57.0213V10.804H59.0733V11.692C59.2813 11.396 59.5613 11.164 59.9133 10.996C60.2653 10.82 60.6613 10.732 61.1013 10.732ZM64.6993 14.14C64.6993 13.452 64.8273 12.848 65.0833 12.328C65.3473 11.808 65.7033 11.408 66.1513 11.128C66.5993 10.848 67.0993 10.708 67.6513 10.708C68.0913 10.708 68.4913 10.8 68.8513 10.984C69.2193 11.168 69.5073 11.416 69.7153 11.728V8.62H71.7673V17.5H69.7153V16.54C69.5233 16.86 69.2473 17.116 68.8873 17.308C68.5353 17.5 68.1233 17.596 67.6513 17.596C67.0993 17.596 66.5993 17.456 66.1513 17.176C65.7033 16.888 65.3473 16.484 65.0833 15.964C64.8273 15.436 64.6993 14.828 64.6993 14.14ZM69.7153 14.152C69.7153 13.64 69.5713 13.236 69.2833 12.94C69.0033 12.644 68.6593 12.496 68.2513 12.496C67.8433 12.496 67.4953 12.644 67.2073 12.94C66.9273 13.228 66.7873 13.628 66.7873 14.14C66.7873 14.652 66.9273 15.06 67.2073 15.364C67.4953 15.66 67.8433 15.808 68.2513 15.808C68.6593 15.808 69.0033 15.66 69.2833 15.364C69.5713 15.068 69.7153 14.664 69.7153 14.152Z" fill="#F8FAFC"/>
</svg>
