<svg width="40" height="40" viewBox="0 0 40 40" fill="none" xmlns="http://www.w3.org/2000/svg">
<path fill-rule="evenodd" clip-rule="evenodd" d="M20 40C8.95431 40 0 31.0457 0 20C0 8.95431 8.95431 0 20 0C31.0457 0 40 8.95431 40 20C40 31.0457 31.0457 40 20 40ZM20.8648 15.0092C19.0736 15.7543 15.4936 17.2963 10.1249 19.6354C9.2531 19.9821 8.79642 20.3212 8.75485 20.6528C8.68458 21.2133 9.38643 21.434 10.3422 21.7345C10.4722 21.7754 10.6069 21.8177 10.745 21.8626C11.6853 22.1683 12.9501 22.5259 13.6077 22.5401C14.2042 22.553 14.8699 22.3071 15.6049 21.8024C20.621 18.4163 23.2104 16.7049 23.3729 16.668C23.4876 16.6419 23.6465 16.6092 23.7542 16.7049C23.8619 16.8006 23.8513 16.9819 23.8399 17.0305C23.7704 17.3269 21.0154 19.8882 19.5896 21.2137C19.1452 21.6269 18.8299 21.92 18.7654 21.987C18.6211 22.1369 18.4739 22.2788 18.3325 22.4151C17.459 23.2572 16.8039 23.8887 18.3688 24.92C19.1208 25.4156 19.7226 25.8254 20.323 26.2342C20.9786 26.6807 21.6326 27.1261 22.4787 27.6807C22.6942 27.822 22.9001 27.9688 23.1006 28.1118C23.8637 28.6557 24.5492 29.1444 25.3961 29.0665C25.8882 29.0212 26.3965 28.5585 26.6546 27.1784C27.2647 23.9169 28.464 16.8501 28.7411 13.9381C28.7654 13.6829 28.7348 13.3564 28.7103 13.2131C28.6858 13.0698 28.6345 12.8655 28.4482 12.7144C28.2276 12.5353 27.8869 12.4976 27.7346 12.5001C27.0419 12.5125 25.9792 12.882 20.8648 15.0092Z" fill="black"/>
</svg>
