<svg width="114" height="18" viewBox="0 0 114 18" fill="none" xmlns="http://www.w3.org/2000/svg">
<g clip-path="url(#clip0_492_561)">
<path d="M12.7689 15H2.23112C0.995423 15 0 14.0833 0 12.9454V6.0546C0 4.91667 0.995423 4 2.23112 4H12.7689C14.0046 4 15 4.91667 15 6.0546V12.9454C15 14.0833 14.0046 15 12.7689 15V15ZM2.23112 4.94828C1.57895 4.94828 1.02975 5.45402 1.02975 6.0546V12.9454C1.02975 13.546 1.57895 14.0517 2.23112 14.0517H12.7689C13.4211 14.0517 13.9703 13.546 13.9703 12.9454V6.0546C13.9703 5.45402 13.4211 4.94828 12.7689 4.94828H2.23112V4.94828Z" fill="#969BA0"/>
<path d="M7.63299 11C7.40026 11 7.20077 10.9141 7.03453 10.7995L1.14962 5.73031C0.950128 5.55847 0.950128 5.30072 1.14962 5.12888C1.3491 4.95704 1.64834 4.95704 1.84783 5.12888L7.63299 10.0835L13.1522 5.32936C13.3517 5.15752 13.6509 5.15752 13.8504 5.32936C14.0499 5.50119 14.0499 5.75895 13.8504 5.93079L8.23146 10.7995C8.06522 10.9141 7.86573 11 7.63299 11V11Z" fill="#969BA0"/>
<path d="M13.5065 14C13.3704 14 13.2343 13.9377 13.1322 13.8755L8.67408 9.79789C8.46989 9.61113 8.46989 9.33099 8.64005 9.14423C8.81021 8.95747 9.15052 8.95747 9.35471 9.1131C9.35471 9.1131 9.38874 9.1131 9.38874 9.14423L13.8469 13.2218C14.051 13.4086 14.051 13.6887 13.8469 13.8755C13.7788 13.9689 13.6427 14 13.5065 14V14ZM1.52749 14C1.39136 14 1.25524 13.9377 1.15314 13.8755C0.948953 13.6887 0.948953 13.4086 1.15314 13.2218L5.61126 9.14423C5.81544 8.95747 6.12173 8.95747 6.32592 9.1131C6.5301 9.26873 6.5301 9.58 6.35995 9.76676C6.35995 9.76676 6.35995 9.79789 6.32592 9.79789L1.8678 13.8755C1.79974 13.9689 1.66361 14 1.52749 14Z" fill="#969BA0"/>
<path d="M13 4.5C13 4.56566 13.0258 4.63067 13.0761 4.69134C13.1263 4.752 13.2 4.80712 13.2928 4.85355C13.3857 4.89998 13.4959 4.93681 13.6173 4.96194C13.7386 4.98707 13.8687 5 14 5C14.1313 5 14.2614 4.98707 14.3827 4.96194C14.5041 4.93681 14.6143 4.89998 14.7072 4.85355C14.8 4.80712 14.8737 4.752 14.9239 4.69134C14.9742 4.63067 15 4.56566 15 4.5C15 4.43434 14.9742 4.36933 14.9239 4.30866C14.8737 4.248 14.8 4.19288 14.7072 4.14645C14.6143 4.10002 14.5041 4.06319 14.3827 4.03806C14.2614 4.01293 14.1313 4 14 4C13.8687 4 13.7386 4.01293 13.6173 4.03806C13.4959 4.06319 13.3857 4.10002 13.2928 4.14645C13.2 4.19288 13.1263 4.248 13.0761 4.30866C13.0258 4.36933 13 4.43434 13 4.5V4.5Z" fill="#969BA0"/>
<circle cx="14" cy="4" r="2.5" fill="#969BA0" stroke="#F3F7FF"/>
</g>
<path d="M28.8813 4.66V13H27.5133V7.288L24.9693 13H24.0213L21.4653 7.288V13H20.0973V4.66H21.5733L24.5013 11.2L27.4173 4.66H28.8813ZM30.2233 9.664C30.2233 9 30.3593 8.412 30.6313 7.9C30.9113 7.388 31.2873 6.992 31.7593 6.712C32.2393 6.424 32.7673 6.28 33.3433 6.28C33.8633 6.28 34.3153 6.384 34.6993 6.592C35.0913 6.792 35.4033 7.044 35.6353 7.348V6.388H37.0153V13H35.6353V12.016C35.4033 12.328 35.0873 12.588 34.6873 12.796C34.2873 13.004 33.8313 13.108 33.3193 13.108C32.7513 13.108 32.2313 12.964 31.7593 12.676C31.2873 12.38 30.9113 11.972 30.6313 11.452C30.3593 10.924 30.2233 10.328 30.2233 9.664ZM35.6353 9.688C35.6353 9.232 35.5393 8.836 35.3473 8.5C35.1633 8.164 34.9193 7.908 34.6153 7.732C34.3113 7.556 33.9833 7.468 33.6313 7.468C33.2793 7.468 32.9513 7.556 32.6473 7.732C32.3433 7.9 32.0953 8.152 31.9033 8.488C31.7193 8.816 31.6273 9.208 31.6273 9.664C31.6273 10.12 31.7193 10.52 31.9033 10.864C32.0953 11.208 32.3433 11.472 32.6473 11.656C32.9593 11.832 33.2873 11.92 33.6313 11.92C33.9833 11.92 34.3113 11.832 34.6153 11.656C34.9193 11.48 35.1633 11.224 35.3473 10.888C35.5393 10.544 35.6353 10.144 35.6353 9.688ZM40.1801 7.348C40.3801 7.012 40.6441 6.752 40.9721 6.568C41.3081 6.376 41.7041 6.28 42.1601 6.28V7.696H41.8121C41.2761 7.696 40.8681 7.832 40.5881 8.104C40.3161 8.376 40.1801 8.848 40.1801 9.52V13H38.8121V6.388H40.1801V7.348ZM46.0336 9.7L49.0816 13H47.2336L44.7856 10.156V13H43.4176V4.12H44.7856V9.28L47.1856 6.388H49.0816L46.0336 9.7ZM52.7233 9.664C52.7233 9 52.8593 8.412 53.1313 7.9C53.4113 7.388 53.7873 6.992 54.2593 6.712C54.7393 6.424 55.2673 6.28 55.8433 6.28C56.3633 6.28 56.8153 6.384 57.1993 6.592C57.5913 6.792 57.9033 7.044 58.1353 7.348V6.388H59.5153V13H58.1353V12.016C57.9033 12.328 57.5873 12.588 57.1873 12.796C56.7873 13.004 56.3313 13.108 55.8193 13.108C55.2513 13.108 54.7313 12.964 54.2593 12.676C53.7873 12.38 53.4113 11.972 53.1313 11.452C52.8593 10.924 52.7233 10.328 52.7233 9.664ZM58.1353 9.688C58.1353 9.232 58.0393 8.836 57.8473 8.5C57.6633 8.164 57.4193 7.908 57.1153 7.732C56.8113 7.556 56.4833 7.468 56.1313 7.468C55.7793 7.468 55.4513 7.556 55.1473 7.732C54.8433 7.9 54.5953 8.152 54.4033 8.488C54.2193 8.816 54.1273 9.208 54.1273 9.664C54.1273 10.12 54.2193 10.52 54.4033 10.864C54.5953 11.208 54.8433 11.472 55.1473 11.656C55.4593 11.832 55.7873 11.92 56.1313 11.92C56.4833 11.92 56.8113 11.832 57.1153 11.656C57.4193 11.48 57.6633 11.224 57.8473 10.888C58.0393 10.544 58.1353 10.144 58.1353 9.688ZM63.7121 13.108C63.1921 13.108 62.7241 13.016 62.3081 12.832C61.9001 12.64 61.5761 12.384 61.3361 12.064C61.0961 11.736 60.9681 11.372 60.9521 10.972H62.3681C62.3921 11.252 62.5241 11.488 62.7641 11.68C63.0121 11.864 63.3201 11.956 63.6881 11.956C64.0721 11.956 64.3681 11.884 64.5761 11.74C64.7921 11.588 64.9001 11.396 64.9001 11.164C64.9001 10.916 64.7801 10.732 64.5401 10.612C64.3081 10.492 63.9361 10.36 63.4241 10.216C62.9281 10.08 62.5241 9.948 62.2121 9.82C61.9001 9.692 61.6281 9.496 61.3961 9.232C61.1721 8.968 61.0601 8.62 61.0601 8.188C61.0601 7.836 61.1641 7.516 61.3721 7.228C61.5801 6.932 61.8761 6.7 62.2601 6.532C62.6521 6.364 63.1001 6.28 63.6041 6.28C64.3561 6.28 64.9601 6.472 65.4161 6.856C65.8801 7.232 66.1281 7.748 66.1601 8.404H64.7921C64.7681 8.108 64.6481 7.872 64.4321 7.696C64.2161 7.52 63.9241 7.432 63.5561 7.432C63.1961 7.432 62.9201 7.5 62.7281 7.636C62.5361 7.772 62.4401 7.952 62.4401 8.176C62.4401 8.352 62.5041 8.5 62.6321 8.62C62.7601 8.74 62.9161 8.836 63.1001 8.908C63.2841 8.972 63.5561 9.056 63.9161 9.16C64.3961 9.288 64.7881 9.42 65.0921 9.556C65.4041 9.684 65.6721 9.876 65.8961 10.132C66.1201 10.388 66.2361 10.728 66.2441 11.152C66.2441 11.528 66.1401 11.864 65.9321 12.16C65.7241 12.456 65.4281 12.688 65.0441 12.856C64.6681 13.024 64.2241 13.108 63.7121 13.108ZM76.8275 6.388V13H75.4595V12.22C75.2435 12.492 74.9595 12.708 74.6075 12.868C74.2635 13.02 73.8955 13.096 73.5035 13.096C72.9835 13.096 72.5155 12.988 72.0995 12.772C71.6915 12.556 71.3675 12.236 71.1275 11.812C70.8955 11.388 70.7795 10.876 70.7795 10.276V6.388H72.1355V10.072C72.1355 10.664 72.2835 11.12 72.5795 11.44C72.8755 11.752 73.2795 11.908 73.7915 11.908C74.3035 11.908 74.7075 11.752 75.0035 11.44C75.3075 11.12 75.4595 10.664 75.4595 10.072V6.388H76.8275ZM81.9684 6.28C82.4884 6.28 82.9524 6.388 83.3604 6.604C83.7764 6.82 84.1004 7.14 84.3324 7.564C84.5644 7.988 84.6804 8.5 84.6804 9.1V13H83.3244V9.304C83.3244 8.712 83.1764 8.26 82.8804 7.948C82.5844 7.628 82.1804 7.468 81.6684 7.468C81.1564 7.468 80.7484 7.628 80.4444 7.948C80.1484 8.26 80.0004 8.712 80.0004 9.304V13H78.6324V6.388H80.0004V7.144C80.2244 6.872 80.5084 6.66 80.8524 6.508C81.2044 6.356 81.5764 6.28 81.9684 6.28ZM87.7934 7.348C87.9934 7.012 88.2574 6.752 88.5854 6.568C88.9214 6.376 89.3174 6.28 89.7734 6.28V7.696H89.4254C88.8894 7.696 88.4814 7.832 88.2014 8.104C87.9294 8.376 87.7934 8.848 87.7934 9.52V13H86.4254V6.388H87.7934V7.348ZM97.0909 9.532C97.0909 9.78 97.0749 10.004 97.0429 10.204H91.9909C92.0309 10.732 92.2269 11.156 92.5789 11.476C92.9309 11.796 93.3629 11.956 93.8749 11.956C94.6109 11.956 95.1309 11.648 95.4349 11.032H96.9109C96.7109 11.64 96.3469 12.14 95.8189 12.532C95.2989 12.916 94.6509 13.108 93.8749 13.108C93.2429 13.108 92.6749 12.968 92.1709 12.688C91.6749 12.4 91.2829 12 90.9949 11.488C90.7149 10.968 90.5749 10.368 90.5749 9.688C90.5749 9.008 90.7109 8.412 90.9829 7.9C91.2629 7.38 91.6509 6.98 92.1469 6.7C92.6509 6.42 93.2269 6.28 93.8749 6.28C94.4989 6.28 95.0549 6.416 95.5429 6.688C96.0309 6.96 96.4109 7.344 96.6829 7.84C96.9549 8.328 97.0909 8.892 97.0909 9.532ZM95.6629 9.1C95.6549 8.596 95.4749 8.192 95.1229 7.888C94.7709 7.584 94.3349 7.432 93.8149 7.432C93.3429 7.432 92.9389 7.584 92.6029 7.888C92.2669 8.184 92.0669 8.588 92.0029 9.1H95.6629ZM97.9811 9.664C97.9811 9 98.1171 8.412 98.3891 7.9C98.6691 7.388 99.0451 6.992 99.5171 6.712C99.9971 6.424 100.525 6.28 101.101 6.28C101.621 6.28 102.073 6.384 102.457 6.592C102.849 6.792 103.161 7.044 103.393 7.348V6.388H104.773V13H103.393V12.016C103.161 12.328 102.845 12.588 102.445 12.796C102.045 13.004 101.589 13.108 101.077 13.108C100.509 13.108 99.9891 12.964 99.5171 12.676C99.0451 12.38 98.6691 11.972 98.3891 11.452C98.1171 10.924 97.9811 10.328 97.9811 9.664ZM103.393 9.688C103.393 9.232 103.297 8.836 103.105 8.5C102.921 8.164 102.677 7.908 102.373 7.732C102.069 7.556 101.741 7.468 101.389 7.468C101.037 7.468 100.709 7.556 100.405 7.732C100.101 7.9 99.8531 8.152 99.6611 8.488C99.4771 8.816 99.3851 9.208 99.3851 9.664C99.3851 10.12 99.4771 10.52 99.6611 10.864C99.8531 11.208 100.101 11.472 100.405 11.656C100.717 11.832 101.045 11.92 101.389 11.92C101.741 11.92 102.069 11.832 102.373 11.656C102.677 11.48 102.921 11.224 103.105 10.888C103.297 10.544 103.393 10.144 103.393 9.688ZM106.114 9.664C106.114 9 106.25 8.412 106.522 7.9C106.802 7.388 107.178 6.992 107.65 6.712C108.13 6.424 108.662 6.28 109.246 6.28C109.678 6.28 110.102 6.376 110.518 6.568C110.942 6.752 111.278 7 111.526 7.312V4.12H112.906V13H111.526V12.004C111.302 12.324 110.99 12.588 110.59 12.796C110.198 13.004 109.746 13.108 109.234 13.108C108.658 13.108 108.13 12.964 107.65 12.676C107.178 12.38 106.802 11.972 106.522 11.452C106.25 10.924 106.114 10.328 106.114 9.664ZM111.526 9.688C111.526 9.232 111.43 8.836 111.238 8.5C111.054 8.164 110.81 7.908 110.506 7.732C110.202 7.556 109.874 7.468 109.522 7.468C109.17 7.468 108.842 7.556 108.538 7.732C108.234 7.9 107.986 8.152 107.794 8.488C107.61 8.816 107.518 9.208 107.518 9.664C107.518 10.12 107.61 10.52 107.794 10.864C107.986 11.208 108.234 11.472 108.538 11.656C108.85 11.832 109.178 11.92 109.522 11.92C109.874 11.92 110.202 11.832 110.506 11.656C110.81 11.48 111.054 11.224 111.238 10.888C111.43 10.544 111.526 10.144 111.526 9.688Z" fill="#969BA0"/>
<defs>
<clipPath id="clip0_492_561">
<rect width="16" height="16" fill="white" transform="translate(0 1)"/>
</clipPath>
</defs>
</svg>
