<svg width="16" height="16" viewBox="0 0 16 16" fill="none" xmlns="http://www.w3.org/2000/svg">
    <path
        d="M6.125 14.25H9.875C13 14.25 14.25 13 14.25 9.875V6.125C14.25 3 13 1.75 9.875 1.75H6.125C3 1.75 1.75 3 1.75 6.125V9.875C1.75 13 3 14.25 6.125 14.25Z"
        stroke="#E9E9E9"
        stroke-linecap="round"
        stroke-linejoin="round"
    />
    <path
        d="M1.75 8.62502H4.1C4.575 8.62502 5.00625 8.89377 5.21875 9.31877L5.775 10.4375C6.125 11.125 6.75 11.125 6.9 11.125H9.10625C9.58125 11.125 10.0125 10.8563 10.225 10.4313L10.7813 9.31252C10.9938 8.88752 11.425 8.61877 11.9 8.61877H14.2375"
        stroke="#E9E9E9"
        stroke-linecap="round"
        stroke-linejoin="round"
    />
</svg>