<svg width="16" height="16" viewBox="0 0 16 16" fill="none" xmlns="http://www.w3.org/2000/svg">
    <path
        d="M9.08107 2.69377L10.1811 4.89377C10.3311 5.20002 10.7311 5.49377 11.0686 5.55002L13.0623 5.88127C14.3373 6.09377 14.6373 7.01877 13.7186 7.93127L12.1686 9.48127C11.9061 9.74377 11.7623 10.25 11.8436 10.6125L12.2873 12.5313C12.6373 14.05 11.8311 14.6375 10.4873 13.8438L8.61857 12.7375C8.28107 12.5375 7.72482 12.5375 7.38107 12.7375L5.51232 13.8438C4.17482 14.6375 3.36232 14.0438 3.71232 12.5313L4.15607 10.6125C4.23732 10.25 4.09357 9.74377 3.83107 9.48127L2.28107 7.93127C1.36857 7.01877 1.66232 6.09377 2.93732 5.88127L4.93107 5.55002C5.26232 5.49377 5.66232 5.20002 5.81232 4.89377L6.91232 2.69377C7.51232 1.50002 8.48732 1.50002 9.08107 2.69377Z"
        stroke="#E9E9E9"
        stroke-linecap="round"
        stroke-linejoin="round"
    />
</svg>