<svg width="19" height="19" viewBox="0 0 19 19" fill="none" xmlns="http://www.w3.org/2000/svg">
    <path
        d="M12.6844 10.0428V13.3125C12.6844 16.0373 11.5945 17.1273 8.86966 17.1273H5.59989C2.87508 17.1273 1.78516 16.0373 1.78516 13.3125V10.0428C1.78516 7.31795 2.87508 6.22803 5.59989 6.22803H8.86966C11.5945 6.22803 12.6844 7.31795 12.6844 10.0428Z"
        fill="#3C6FF4"
        fill-opacity="0.8"
    />
    <path
        d="M13.5416 1.55713H10.2718C7.97524 1.55713 6.8455 2.3369 6.54676 4.20791C6.45562 4.77877 6.93714 5.25509 7.51522 5.25509H8.87046C12.1402 5.25509 13.6583 6.77319 13.6583 10.043V11.3982C13.6583 11.9763 14.1347 12.4578 14.7055 12.3667C16.5765 12.0679 17.3563 10.9382 17.3563 8.64164V5.37186C17.3563 2.64705 16.2664 1.55713 13.5416 1.55713Z"
        fill="#3C6FF4"
        fill-opacity="0.8"
    />
</svg>