<svg width="19" height="19" viewBox="0 0 19 19" fill="none" xmlns="http://www.w3.org/2000/svg">
<path d="M12.6844 10.0429V13.3127C12.6844 16.0375 11.5945 17.1274 8.86966 17.1274H5.59989C2.87508 17.1274 1.78516 16.0375 1.78516 13.3127V10.0429C1.78516 7.31807 2.87508 6.22815 5.59989 6.22815H8.86966C11.5945 6.22815 12.6844 7.31807 12.6844 10.0429Z" fill="#3C6FF4" fill-opacity="0.5"/>
<path d="M13.5407 1.55701H10.2709C7.97438 1.55701 6.84464 2.33678 6.54591 4.20779C6.45476 4.77865 6.93628 5.25496 7.51437 5.25496H8.86961C12.1394 5.25496 13.6575 6.77307 13.6575 10.0428V11.3981C13.6575 11.9762 14.1338 12.4577 14.7047 12.3665C16.5757 12.0678 17.3554 10.9381 17.3554 8.64151V5.37174C17.3554 2.64693 16.2655 1.55701 13.5407 1.55701Z" fill="#3C6FF4" fill-opacity="0.5"/>
</svg>
