<svg xmlns="http://www.w3.org/2000/svg" width="36" height="36" viewBox="0 0 36 36" fill="none">
<rect x="0.375" y="0.125" width="35" height="35" rx="5" fill="#F5F5F6"/>
<path fill-rule="evenodd" clip-rule="evenodd" d="M18.9996 12C18.6482 12 18.3633 12.2849 18.3633 12.6364V18.3636H12.6364C12.2849 18.3636 12 18.6485 12 19C12 19.3515 12.2849 19.6364 12.6364 19.6364H18.3633V25.3636C18.3633 25.7151 18.6482 26 18.9996 26C19.3511 26 19.636 25.7151 19.636 25.3636V19.6364H25.3636C25.7151 19.6364 26 19.3515 26 19C26 18.6485 25.7151 18.3636 25.3636 18.3636H19.636V12.6364C19.636 12.2849 19.3511 12 18.9996 12Z" fill="#4F4F4F"/>
</svg>