<svg xmlns="http://www.w3.org/2000/svg" width="36" height="36" viewBox="0 0 36 36" fill="none">
  <rect x="0.125" y="0.625" width="35" height="35" rx="5" fill="#DBDBDB" fill-opacity="0.04"/>
  <path fill-rule="evenodd" clip-rule="evenodd" d="M17.9996 11C17.6482 11 17.3633 11.2849 17.3633 11.6364V17.3636H11.6364C11.2849 17.3636 11 17.6485 11 18C11 18.3515 11.2849 18.6364 11.6364 18.6364H17.3633V24.3636C17.3633 24.7151 17.6482 25 17.9996 25C18.3511 25 18.636 24.7151 18.636 24.3636V18.6364H24.3636C24.7151 18.6364 25 18.3515 25 18C25 17.6485 24.7151 17.3636 24.3636 17.3636H18.636V11.6364C18.636 11.2849 18.3511 11 17.9996 11Z" fill="#DBDBDB"/>
</svg>