<svg width="17" height="19" viewBox="0 0 17 19" fill="none" xmlns="http://www.w3.org/2000/svg">
<g id="Paper">
<g id="Group 3">
<mask id="mask0_2358_2812" style="mask-type:luminance" maskUnits="userSpaceOnUse" x="0" y="0" width="17" height="19">
<path id="Clip 2" fill-rule="evenodd" clip-rule="evenodd" d="M0.9375 0.135742H16.9244V18.7484H0.9375V0.135742Z" fill="white"/>
</mask>
<g mask="url(#mask0_2358_2812)">
<path id="Fill 1" fill-rule="evenodd" clip-rule="evenodd" d="M5.22445 1.54205C3.67101 1.54205 2.38101 2.80018 2.34445 4.35174V14.3783C2.30976 15.9842 3.57538 17.3071 5.16538 17.3427H12.7254C14.2901 17.278 15.5294 15.9777 15.5182 14.3839V6.0683L11.1729 1.54205H5.2357H5.22445ZM5.23603 18.7489H5.13385C2.76947 18.6954 0.886972 16.7286 0.938534 14.3632V4.3348C0.992909 2.00887 2.91385 0.135742 5.22291 0.135742H5.23885H11.4732C11.6645 0.135742 11.8473 0.213555 11.9804 0.351367L16.7288 5.29855C16.8545 5.42887 16.9248 5.60418 16.9248 5.78512V14.3782C16.9417 16.7304 15.1098 18.6523 12.7538 18.7479L5.23603 18.7489Z" fill="black"/>
</g>
</g>
<path id="Fill 4" fill-rule="evenodd" clip-rule="evenodd" d="M16.2169 6.67299H13.6341C11.9184 6.6683 10.5234 5.26955 10.5234 3.5558V0.828613C10.5234 0.440488 10.8384 0.125488 11.2266 0.125488C11.6147 0.125488 11.9297 0.440488 11.9297 0.828613V3.5558C11.9297 4.49705 12.6956 5.26393 13.6359 5.26674H16.2169C16.605 5.26674 16.92 5.58174 16.92 5.96986C16.92 6.35799 16.605 6.67299 16.2169 6.67299Z" fill="black"/>
<path id="Fill 6" fill-rule="evenodd" clip-rule="evenodd" d="M11.0518 13.3521H5.98926C5.60113 13.3521 5.28613 13.0371 5.28613 12.6489C5.28613 12.2608 5.60113 11.9458 5.98926 11.9458H11.0518C11.4399 11.9458 11.7549 12.2608 11.7549 12.6489C11.7549 13.0371 11.4399 13.3521 11.0518 13.3521Z" fill="black"/>
<path id="Fill 8" fill-rule="evenodd" clip-rule="evenodd" d="M9.13453 9.83447H5.98828C5.60016 9.83447 5.28516 9.51947 5.28516 9.13135C5.28516 8.74322 5.60016 8.42822 5.98828 8.42822H9.13453C9.52266 8.42822 9.83766 8.74322 9.83766 9.13135C9.83766 9.51947 9.52266 9.83447 9.13453 9.83447Z" fill="black"/>
</g>
</svg>
