<svg
    xmlns="http://www.w3.org/2000/svg"
    xmlns:xlink="http://www.w3.org/1999/xlink"
    fill="none"
    version="1.1"
    width="12"
    height="12"
    viewBox="0 0 12 12"
>
    <g>
        <g />
        <g>
            <path
                d="M0.5,6L0.5,9.02623Q0.5,10.06177,1.219117,10.78088Q1.938232,11.5,2.97377,11.5L9.02623,11.5Q10.06177,11.5,10.78088,10.78088Q11.5,10.06177,11.5,9.02623L11.5,2.97377Q11.5,1.938232,10.78088,1.219117Q10.06177,0.5,9.02623,0.5L2.97377,0.5Q1.938234,0.5,1.219117,1.219117Q0.5,1.9382329999999999,0.5,2.97377L0.5,6ZM1.926224,10.07378Q1.5,9.64755,1.5,9.02623L1.5,2.97377Q1.5,2.35245,1.926224,1.926224Q2.35245,1.5,2.97377,1.5L9.02623,1.5Q9.64755,1.5,10.07378,1.926224Q10.5,2.35245,10.5,2.97377L10.5,9.02623Q10.5,9.64755,10.07378,10.07378Q9.64755,10.5,9.02623,10.5L2.97377,10.5Q2.35245,10.5,1.926224,10.07378Z"
                fill-rule="evenodd"
                fill="#B3B3B3"
                fill-opacity="0.6000000238418579"
            />
        </g>
    </g>
</svg>