<svg width="16" height="16" viewBox="0 0 16 16" fill="none" xmlns="http://www.w3.org/2000/svg">
<path d="M2 4H3.33333H14" stroke="#545454" stroke-linecap="round" stroke-linejoin="round"/>
<path d="M5.33331 3.99967V2.66634C5.33331 2.31272 5.47379 1.97358 5.72384 1.72353C5.97389 1.47348 6.31302 1.33301 6.66665 1.33301H9.33331C9.68693 1.33301 10.0261 1.47348 10.2761 1.72353C10.5262 1.97358 10.6666 2.31272 10.6666 2.66634V3.99967M12.6666 3.99967V13.333C12.6666 13.6866 12.5262 14.0258 12.2761 14.2758C12.0261 14.5259 11.6869 14.6663 11.3333 14.6663H4.66665C4.31302 14.6663 3.97389 14.5259 3.72384 14.2758C3.47379 14.0258 3.33331 13.6866 3.33331 13.333V3.99967H12.6666Z" stroke="#545454" stroke-linecap="round" stroke-linejoin="round"/>
<path d="M6.66669 7.33301V11.333" stroke="#545454" stroke-linecap="round" stroke-linejoin="round"/>
<path d="M9.33331 7.33301V11.333" stroke="#545454" stroke-linecap="round" stroke-linejoin="round"/>
</svg>
