<svg
    width="16"
    height="16"
    viewBox="0 0 16 16"
    fill="none"
    fill-opacity="0"
    xmlns="http://www.w3.org/2000/svg"
>
    <path
        d="M5.8543 1.54266L3.5918 3.81141"
        stroke="#7F7F7F"
        stroke-miterlimit="10"
        stroke-linecap="round"
        stroke-linejoin="round"
    />
    <path
        d="M9.8418 1.54266L12.1043 3.81141"
        stroke="#7F7F7F"
        stroke-miterlimit="10"
        stroke-linecap="round"
        stroke-linejoin="round"
    />
    <path
        d="M1.59766 5.19891C1.59766 4.04266 2.21641 3.94891 2.98516 3.94891H12.7102C13.4789 3.94891 14.0977 4.04266 14.0977 5.19891C14.0977 6.54266 13.4789 6.44891 12.7102 6.44891H2.98516C2.21641 6.44891 1.59766 6.54266 1.59766 5.19891Z"
        stroke="#7F7F7F"
    />
    <path d="M6.44775 9.04266V11.2614" stroke="#7F7F7F" stroke-linecap="round" />
    <path d="M9.32275 9.04266V11.2614" stroke="#7F7F7F" stroke-linecap="round" />
    <path
        d="M2.53516 6.54266L3.41641 11.9427C3.61641 13.1552 4.09766 14.0427 5.88516 14.0427H9.65391C11.5977 14.0427 11.8852 13.1927 12.1102 12.0177L13.1602 6.54266"
        stroke="#7F7F7F"
        stroke-linecap="round"
    />
</svg>