<svg width="16" height="16" viewBox="0 0 16 16" fill="none" xmlns="http://www.w3.org/2000/svg">
<path d="M7.84766 13.4697H4.72266C2.84766 13.4697 1.59766 12.5322 1.59766 10.3447V5.96967C1.59766 3.78217 2.84766 2.84467 4.72266 2.84467H10.9727C12.8477 2.84467 14.0977 3.78217 14.0977 5.96967V7.84467" stroke="#7F7F7F" stroke-miterlimit="10" stroke-linecap="round" stroke-linejoin="round"/>
<path d="M10.9727 6.28217L9.0164 7.84467C8.37265 8.35717 7.3164 8.35717 6.67265 7.84467L4.72266 6.28217" stroke="#7F7F7F" stroke-miterlimit="10" stroke-linecap="round" stroke-linejoin="round"/>
<path d="M12.354 9.8884L10.1416 12.1009C10.0541 12.1884 9.9728 12.3509 9.95405 12.4697L9.8353 13.3134C9.79155 13.6197 10.0041 13.8322 10.3103 13.7884L11.1541 13.6697C11.2728 13.6509 11.4416 13.5697 11.5228 13.4822L13.7353 11.2697C14.1166 10.8884 14.2978 10.4447 13.7353 9.88217C13.1791 9.32592 12.7353 9.50715 12.354 9.8884Z" stroke="#7F7F7F" stroke-miterlimit="10" stroke-linecap="round" stroke-linejoin="round"/>
<path d="M12.0352 10.2072C12.2227 10.8822 12.7477 11.4072 13.4227 11.5947" stroke="#7F7F7F" stroke-miterlimit="10" stroke-linecap="round" stroke-linejoin="round"/>
</svg>
