<svg width="12" height="12" viewBox="0 0 12 12" fill="none" xmlns="http://www.w3.org/2000/svg">
<path d="M6.86495 1.75501L7.74495 3.51501C7.86495 3.76001 8.18495 3.99501 8.45495 4.04001L10.05 4.30501C11.07 4.47501 11.31 5.21501 10.575 5.94501L9.33495 7.18501C9.12495 7.39501 9.00995 7.80001 9.07495 8.09001L9.42995 9.62501C9.70995 10.84 9.06495 11.31 7.98995 10.675L6.49495 9.79001C6.22495 9.63001 5.77995 9.63001 5.50495 9.79001L4.00995 10.675C2.93995 11.31 2.28995 10.835 2.56995 9.62501L2.92495 8.09001C2.98995 7.80001 2.87495 7.39501 2.66495 7.18501L1.42495 5.94501C0.694954 5.21501 0.929955 4.47501 1.94995 4.30501L3.54495 4.04001C3.80995 3.99501 4.12995 3.76001 4.24995 3.51501L5.12995 1.75501C5.60995 0.800007 6.38995 0.800007 6.86495 1.75501Z" stroke="#707070" stroke-opacity="0.7" stroke-linecap="round" stroke-linejoin="round"/>
</svg>
