<svg width="13" height="13" viewBox="0 0 13 13" fill="none" xmlns="http://www.w3.org/2000/svg">
    <path
        d="M7.36495 2.25507L8.24495 4.01507C8.36495 4.26007 8.68495 4.49507 8.95495 4.54007L10.55 4.80507C11.57 4.97507 11.81 5.71507 11.075 6.44507L9.83495 7.68507C9.62495 7.89507 9.50995 8.30007 9.57495 8.59007L9.92995 10.1251C10.21 11.3401 9.56495 11.8101 8.48995 11.1751L6.99495 10.2901C6.72495 10.1301 6.27995 10.1301 6.00495 10.2901L4.50995 11.1751C3.43995 11.8101 2.78995 11.3351 3.06995 10.1251L3.42495 8.59007C3.48995 8.30007 3.37495 7.89507 3.16495 7.68507L1.92495 6.44507C1.19495 5.71507 1.42995 4.97507 2.44995 4.80507L4.04495 4.54007C4.30995 4.49507 4.62995 4.26007 4.74995 4.01507L5.62995 2.25507C6.10995 1.30007 6.88995 1.30007 7.36495 2.25507Z"
        stroke="#b2b2b2"
        stroke-opacity="0.6"
        stroke-linecap="round"
        stroke-linejoin="round"
    />
</svg>