<svg width="33" height="12" viewBox="0 0 33 12" fill="none" xmlns="http://www.w3.org/2000/svg">
<path d="M3 1H9.6C10.15 1 10.6 1.45 10.6 2V3.1C10.6 3.5 10.35 4 10.1 4.25L7.95 6.15C7.65 6.4 7.45 6.9 7.45 7.3V9.45C7.45 9.75 7.25 10.15 7 10.3L6.3 10.75C5.65 11.15 4.75 10.7 4.75 9.9V7.25C4.75 6.9 4.55 6.45 4.35 6.2L2.45 4.2C2.2 3.95 2 3.5 2 3.2V2.05C2 1.45 2.45 1 3 1Z" stroke="#707070" stroke-miterlimit="10" stroke-linecap="round" stroke-linejoin="round"/>
<path d="M16.94 9.58H14.03L13.53 11H12.34L14.83 4.04H16.15L18.64 11H17.44L16.94 9.58ZM16.62 8.65L15.49 5.42L14.35 8.65H16.62ZM20.8627 3.6V11H19.7227V3.6H20.8627ZM23.4994 3.6V11H22.3594V3.6H23.4994Z" fill="#707070"/>
</svg>
