<svg width="16" height="15" viewBox="0 0 16 15" fill="none" xmlns="http://www.w3.org/2000/svg">
<path d="M6.51123 13.75H10.2612C13.3862 13.75 14.6362 12.5 14.6362 9.375V5.625C14.6362 2.5 13.3862 1.25 10.2612 1.25H6.51123C3.38623 1.25 2.13623 2.5 2.13623 5.625V9.375C2.13623 12.5 3.38623 13.75 6.51123 13.75Z" stroke="#7F7F7F" stroke-linecap="round" stroke-linejoin="round"/>
<path d="M2.13623 8.12502H4.48623C4.96123 8.12502 5.39248 8.39377 5.60498 8.81877L6.16123 9.93752C6.51123 10.625 7.13623 10.625 7.28623 10.625H9.49248C9.96748 10.625 10.3987 10.3563 10.6112 9.93127L11.1675 8.81252C11.38 8.38752 11.8112 8.11877 12.2862 8.11877H14.6237" stroke="#7F7F7F" stroke-linecap="round" stroke-linejoin="round"/>
</svg>
