<svg width="13" height="12" viewBox="0 0 13 12" fill="none" xmlns="http://www.w3.org/2000/svg">
<path d="M5.26807 9.5C5.26807 10.05 5.71807 10.5 6.26807 10.5C6.81807 10.5 7.26807 10.05 7.26807 9.5C7.26807 8.95 6.81807 8.5 6.26807 8.5C5.71807 8.5 5.26807 8.95 5.26807 9.5Z" fill="white" stroke="#7F7F7F"/>
<path d="M5.26807 2.5C5.26807 3.05 5.71807 3.5 6.26807 3.5C6.81807 3.5 7.26807 3.05 7.26807 2.5C7.26807 1.95 6.81807 1.5 6.26807 1.5C5.71807 1.5 5.26807 1.95 5.26807 2.5Z" fill="white" stroke="#7F7F7F"/>
<path d="M5.26807 6C5.26807 6.55 5.71807 7 6.26807 7C6.81807 7 7.26807 6.55 7.26807 6C7.26807 5.45 6.81807 5 6.26807 5C5.71807 5 5.26807 5.45 5.26807 6Z" fill="white" stroke="#7F7F7F"/>
</svg>
