<svg width="16" height="16" viewBox="0 0 16 16" fill="none" xmlns="http://www.w3.org/2000/svg">
<path d="M7.99999 8.66634C8.36818 8.66634 8.66666 8.36786 8.66666 7.99967C8.66666 7.63148 8.36818 7.33301 7.99999 7.33301C7.63181 7.33301 7.33333 7.63148 7.33333 7.99967C7.33333 8.36786 7.63181 8.66634 7.99999 8.66634Z" stroke="#7F7F7F" stroke-width="2" stroke-linecap="round" stroke-linejoin="round"/>
<path d="M7.99999 4.00033C8.36818 4.00033 8.66666 3.70185 8.66666 3.33366C8.66666 2.96547 8.36818 2.66699 7.99999 2.66699C7.63181 2.66699 7.33333 2.96547 7.33333 3.33366C7.33333 3.70185 7.63181 4.00033 7.99999 4.00033Z" stroke="#7F7F7F" stroke-width="2" stroke-linecap="round" stroke-linejoin="round"/>
<path d="M7.99999 13.3333C8.36818 13.3333 8.66666 13.0349 8.66666 12.6667C8.66666 12.2985 8.36818 12 7.99999 12C7.63181 12 7.33333 12.2985 7.33333 12.6667C7.33333 13.0349 7.63181 13.3333 7.99999 13.3333Z" stroke="#7F7F7F" stroke-width="2" stroke-linecap="round" stroke-linejoin="round"/>
</svg>
