<svg width="12" height="12" viewBox="0 0 12 12" fill="none" xmlns="http://www.w3.org/2000/svg">
<path d="M11 5.25V7.75C11 9.5 10 10.25 8.5 10.25H3.5C2 10.25 1 9.5 1 7.75V4.25C1 2.5 2 1.75 3.5 1.75H7" stroke="#707070" stroke-width="0.8" stroke-miterlimit="10" stroke-linecap="round" stroke-linejoin="round"/>
<path d="M3.5 4.5L5.065 5.75C5.58 6.16 6.425 6.16 6.94 5.75L7.53 5.28" stroke="#707070" stroke-width="0.8" stroke-miterlimit="10" stroke-linecap="round" stroke-linejoin="round"/>
<path d="M9.75 4C10.4404 4 11 3.44036 11 2.75C11 2.05964 10.4404 1.5 9.75 1.5C9.05964 1.5 8.5 2.05964 8.5 2.75C8.5 3.44036 9.05964 4 9.75 4Z" stroke="#707070" stroke-width="0.8" stroke-miterlimit="10" stroke-linecap="round" stroke-linejoin="round"/>
</svg>
