<svg width="12" height="12" viewBox="0 0 12 12" fill="none" xmlns="http://www.w3.org/2000/svg">
<path d="M5.99992 4.66C6.59492 4.66 7.07992 4.175 7.07992 3.58C7.07992 2.985 6.59492 2.5 5.99992 2.5C5.40492 2.5 4.91992 2.985 4.91992 3.58C4.91992 4.175 5.40492 4.66 5.99992 4.66Z" stroke="#707070" stroke-linecap="round" stroke-linejoin="round"/>
<path d="M3.39543 9.49984C3.99043 9.49984 4.47543 9.01484 4.47543 8.41984C4.47543 7.82484 3.99043 7.33984 3.39543 7.33984C2.80043 7.33984 2.31543 7.82484 2.31543 8.41984C2.31543 9.01484 2.79543 9.49984 3.39543 9.49984Z" stroke="#707070" stroke-linecap="round" stroke-linejoin="round"/>
<path d="M8.60539 9.49984C9.20039 9.49984 9.68539 9.01484 9.68539 8.41984C9.68539 7.82484 9.20039 7.33984 8.60539 7.33984C8.01039 7.33984 7.52539 7.82484 7.52539 8.41984C7.52539 9.01484 8.01039 9.49984 8.60539 9.49984Z" stroke="#707070" stroke-linecap="round" stroke-linejoin="round"/>
</svg>
