<svg t="1711439710779" class="icon" viewBox="0 0 1177 1024" version="1.1" xmlns="http://www.w3.org/2000/svg" p-id="5999" width="200" height="200"><path d="M102.401741 460.800666h1023.996928c14.950355 0 27.238318 4.812786 36.863889 14.335957 9.523171 9.625571 14.335957 21.913534 14.335957 36.863889a49.86865 49.86865 0 0 1-14.335957 36.863889 49.86865 49.86865 0 0 1-36.863889 14.335957H102.401741a49.86865 49.86865 0 0 1-36.86389-14.335957A49.86865 49.86865 0 0 1 51.201894 512.000512c0-14.950355 4.812786-27.238318 14.335957-36.863889A49.86865 49.86865 0 0 1 102.401741 460.800666z m20.787137 51.199846l425.573124 423.934728c9.625571 10.751968 14.438357 23.039931 14.438356 36.86389a49.151853 49.151853 0 0 1-15.257554 35.942292A49.151853 49.151853 0 0 1 512.000512 1023.998976a53.45264 53.45264 0 0 1-36.863889-14.335957l-460.798618-460.798618A53.45264 53.45264 0 0 1 0.002048 512.000512c0-13.823959 4.812786-26.111922 14.335957-36.863889l460.798618-460.798618A53.45264 53.45264 0 0 1 512.000512 0.002048a49.151853 49.151853 0 0 1 35.942292 15.155155A49.151853 49.151853 0 0 1 563.200358 51.201894a53.45264 53.45264 0 0 1-14.335957 36.86389L123.086479 512.000512z" p-id="6000" fill="#ffffff"></path></svg>