<svg t="1710940069483" class="icon" viewBox="0 0 1024 1024" version="1.1" xmlns="http://www.w3.org/2000/svg" p-id="6746" width="200" height="200"><path d="M495.349785 311.23244c69.088518 0 125.287471-56.198953 125.287471-125.276214 0-12.209066-9.899464-22.10853-22.10853-22.108531s-22.10853 9.899464-22.108531 22.108531c0 44.696991-36.368302 81.060177-81.07041 81.060177-44.691875 0-81.060177-36.363186-81.060177-81.060177 0-44.702108 36.368302-81.065294 81.060177-81.065294 11.119245 0 21.871123 2.197038 31.953759 6.53688 11.237949 4.831029 24.223704-0.361227 29.03836-11.577686 4.825912-11.216459-0.356111-24.218588-11.57257-29.0445-15.642259-6.720052-32.266891-10.130731-49.419549-10.130732-69.077262 0-125.276215 56.198953-125.276215 125.282355-0.001023 69.076238 56.198953 125.275191 125.276215 125.275191zM495.349785 395.061684c-69.077262 0-125.276215 56.198953-125.276215 125.282355s56.198953 125.282355 125.276215 125.282354c69.088518 0 125.287471-56.198953 125.287471-125.282354s-56.198953-125.282355-125.287471-125.282355z m0 206.347648c-44.691875 0-81.060177-36.368302-81.060177-81.065293s36.368302-81.065294 81.060177-81.065294c44.702108 0 81.07041 36.368302 81.07041 81.065294s-36.368302 81.065294-81.07041 81.065293zM495.349785 710.104917c-69.077262 0-125.276215 56.198953-125.276215 125.276215 0 69.088518 56.198953 125.287471 125.276215 125.287471 69.088518 0 125.287471-56.198953 125.287471-125.287471 0-69.077262-56.198953-125.276215-125.287471-125.276215z m0 206.347648c-44.691875 0-81.060177-36.368302-81.060177-81.07041 0-44.691875 36.368302-81.060177 81.060177-81.060177 44.702108 0 81.07041 36.368302 81.07041 81.060177 0 44.702108-36.368302 81.07041-81.07041 81.07041z" p-id="6747" fill="#515151"></path></svg>