<svg width="16" height="16" viewBox="0 0 16 16" fill="none" xmlns="http://www.w3.org/2000/svg">
<path d="M9.4673 2.69377L10.5673 4.89377C10.7173 5.20002 11.1173 5.49377 11.4548 5.55002L13.4486 5.88127C14.7236 6.09377 15.0236 7.01877 14.1048 7.93127L12.5548 9.48127C12.2923 9.74377 12.1486 10.25 12.2298 10.6125L12.6736 12.5313C13.0236 14.05 12.2173 14.6375 10.8736 13.8438L9.0048 12.7375C8.6673 12.5375 8.11105 12.5375 7.7673 12.7375L5.89855 13.8438C4.56105 14.6375 3.74855 14.0438 4.09855 12.5313L4.5423 10.6125C4.62355 10.25 4.4798 9.74377 4.2173 9.48127L2.6673 7.93127C1.7548 7.01877 2.04855 6.09377 3.32355 5.88127L5.3173 5.55002C5.64855 5.49377 6.04855 5.20002 6.19855 4.89377L7.29855 2.69377C7.89855 1.50002 8.87355 1.50002 9.4673 2.69377Z" stroke="#707070" stroke-linecap="round" stroke-linejoin="round"/>
</svg>
