<svg
    xmlns="http://www.w3.org/2000/svg"
    xmlns:xlink="http://www.w3.org/1999/xlink"
    fill="none"
    version="1.1"
    width="16"
    height="16"
    viewBox="0 0 16 16"
>
    <g>
        <g>
            <g>
                <path
                    d="M7.999104375,0.63525390625Q6.857494375,0.63525390625,6.169824375,2.00344090625L6.169124375,2.00484390625L4.993054375,4.357023906249999Q4.873434375,4.60125390625,4.603684375,4.6470639062500005L2.4766443750000002,5.00045390625Q1.005277375,5.24568390625,0.660482375,6.32544390625Q0.3161343750000001,7.40378390625,1.369609375,8.45725390625L3.022944375,10.11058390625Q3.2353243750000003,10.32296390625,3.1692243749999998,10.61792390625L2.695914375,12.66445390625Q2.304138375,14.35755390625,3.269534375,15.06195390625Q4.234234375,15.76585390625,5.728664375,14.87895390625L7.717114375,13.70185390625Q7.817244375,13.64355390625,8.002444375,13.64355390625Q8.184404375,13.64355390625,8.277884375,13.69895390625L10.271824375,14.87935390625Q11.771584375,15.76525390625,12.732584375,15.06465390625Q13.695384375,14.36275390625,13.303984375,12.66455390625L12.831784375,10.62288390625Q12.764584375,10.32296390625,12.976984375,10.11058390625L14.628484375,8.45905390625Q15.689084375,7.40562390625,15.341484375,6.32408390625Q14.994884375,5.245723906249999,13.522884375,5.00039390625L11.396584375,4.64712390625Q11.119644375,4.60097390625,10.997424375,4.35151390625L9.824794375,2.00625090625Q9.142884375000001,0.63525390625,7.999104375,0.63525390625ZM7.510054375,2.67706390625L7.510764375,2.67566390625Q7.782664375,2.13525390625,7.999104375,2.13525390625Q8.213664375,2.13525390625,8.481754375000001,2.6742539062499997L9.655784375,5.02233390625Q9.853444375,5.42594390625,10.279644375,5.74041390625Q10.701984375,6.05205390625,11.149974375,6.12671390625L13.276984375,6.48011390625Q13.846584375,6.57503390625,13.913384375,6.78309390625Q13.979684375,6.98928390625,13.571384375,7.39478390625L11.916284375,9.049923906250001Q11.569384375,9.39676390625,11.414684375,9.93718390625Q11.261134375,10.47375390625,11.368084375,10.95095390625L11.842584375,13.00255390625Q11.944984375,13.44705390625,11.894784375,13.71855390625Q11.873384375,13.83475390625,11.848984375,13.85255390625Q11.823784375,13.87085390625,11.704684375,13.85575390625Q11.429284375,13.82085390625,11.034724375,13.58785390625L9.041994375,12.40815390625Q8.595474375,12.14355390625,8.002444375,12.14355390625Q7.412634375,12.14355390625,6.962774375,12.40535390625L4.9645543750000005,13.58815390625Q4.573144375,13.82045390625,4.2992743749999995,13.85465390625Q4.180174375,13.86955390625,4.153684375,13.85025390625Q4.127574375,13.83115390625,4.105704375,13.71415390625Q4.055184375,13.44395390625,4.157294375,13.00265390625L4.630654375000001,10.95591390625Q4.738744375,10.47374390625,4.5851443750000005,9.93718390625Q4.430444375,9.39676390625,4.083604375,9.049923906250001L2.430264375,7.39659390625Q2.023082375,6.98940390625,2.0893963749999998,6.78173390625Q2.1555183749999998,6.57467390625,2.723234375,6.48005390625L4.849524375,6.12678390625Q5.295454375,6.05106390625,5.715804375,5.73938390625Q6.140474375,5.42451390625,6.340154375,5.01682390625L7.510054375,2.67706390625Z"
                    fill-rule="evenodd"
                    fill="#3C6FF4"
                    fill-opacity="1"
                />
            </g>
            <g style="opacity:0;" />
        </g>
    </g>
</svg>