<svg width="14" height="15" viewBox="0 0 14 15" fill="none" xmlns="http://www.w3.org/2000/svg">
<path d="M7.92873 2.16869L9.02873 4.36869C9.17873 4.67494 9.57873 4.96869 9.91623 5.02494L11.91 5.35619C13.185 5.56869 13.485 6.49369 12.5662 7.40619L11.0162 8.95619C10.7537 9.21869 10.61 9.72494 10.6912 10.0874L11.135 12.0062C11.485 13.5249 10.6787 14.1124 9.33498 13.3187L7.46623 12.2124C7.12873 12.0124 6.57248 12.0124 6.22873 12.2124L4.35998 13.3187C3.02248 14.1124 2.20998 13.5187 2.55998 12.0062L3.00373 10.0874C3.08498 9.72494 2.94123 9.21869 2.67873 8.95619L1.12873 7.40619C0.216227 6.49369 0.509977 5.56869 1.78498 5.35619L3.77873 5.02494C4.10998 4.96869 4.50998 4.67494 4.65998 4.36869L5.75998 2.16869C6.35998 0.974939 7.33498 0.974939 7.92873 2.16869Z" stroke="#7F7F7F" stroke-linecap="round" stroke-linejoin="round"/>
</svg>
