<svg xmlns="http://www.w3.org/2000/svg" width="11" height="11" viewBox="0 0 11 11" fill="none">
    <path
        d="M3.72318 1.24805L2.21484 2.76055"
        stroke="#808080"
        stroke-width="0.8"
        stroke-miterlimit="10"
        stroke-linecap="round"
        stroke-linejoin="round"
    />
    <path
        d="M6.38184 1.24805L7.89017 2.76055"
        stroke="#808080"
        stroke-width="0.8"
        stroke-miterlimit="10"
        stroke-linecap="round"
        stroke-linejoin="round"
    />
    <path
        d="M0.885742 3.68587C0.885742 2.91504 1.29824 2.85254 1.81074 2.85254H8.29408C8.80658 2.85254 9.21908 2.91504 9.21908 3.68587C9.21908 4.58171 8.80658 4.51921 8.29408 4.51921H1.81074C1.29824 4.51921 0.885742 4.58171 0.885742 3.68587Z"
        stroke="#808080"
        stroke-width="0.8"
    />
    <path d="M4.11865 6.24805V7.72721" stroke="#808080" stroke-width="0.8" stroke-linecap="round" />
    <path d="M6.03564 6.24805V7.72721" stroke="#808080" stroke-width="0.8" stroke-linecap="round" />
    <path
        d="M1.51074 4.58203L2.09824 8.18203C2.23158 8.99036 2.55241 9.58203 3.74408 9.58203H6.25658C7.55241 9.58203 7.74408 9.01537 7.89408 8.23203L8.59408 4.58203"
        stroke="#808080"
        stroke-width="0.8"
        stroke-linecap="round"
    />
</svg>